<?xml version="1.0" encoding="utf-8"?>
<!-- Generator: Adobe Illustrator 24.0.1, SVG Export Plug-In . SVG Version: 6.00 Build 0)  -->
<svg version="1.1" id="Capa_1" xmlns="http://www.w3.org/2000/svg" xmlns:xlink="http://www.w3.org/1999/xlink" x="0px" y="0px"
	 viewBox="0 0 2592.3 2367" style="enable-background:new 0 0 2592.3 2367;" xml:space="preserve">
<style type="text/css">
	.st0{fill-rule:evenodd;clip-rule:evenodd;fill:#FC7292;}
	.st1{fill-rule:evenodd;clip-rule:evenodd;}
</style>
<title>chicosFelices</title>
<path id="Combined-Shape" class="st0" d="M890.3,642.8c9.5-1,10.9,11.9,12.2,17.8c3.7-2.3,6.9-0.1,7.8-5.5
	c11.6,12.2,20.9,26.1,31.2,39.3c9.9,12.7,25.3,22.7,33.8,36.1c7.3,11.3-4.7,28.5-6.2,40.5c-1.7,13.6,1.9,29.1,11.2,39.5
	c4.2,4.9,9.8,8.2,16.1,9.5c6.4,1.3,12.4-2.5,18-1.7c4.7,0.7,4.9,3.8,6.5,8.3c2.2,6.3,5.1,12.2,10.3,16.6c5.9,4.9,12.2,6.3,16.7,13
	c3.9,5.8,6.1,11.4,12.2,15.4c8.1,5.4,21.1,7,20.2,19.5l4.2-3.3c3.4,10.4,7.5,20.4,12.4,30.2c2.2,4.6,3.4,7,3.3,12.1
	c-0.1,3.4-1.9,5.9,0.1,9.1c3.2,5.2,11.7,4.5,15.6,8.7s-0.2,10.1,4.4,13.9c-1.9,0.6-7.3,4.9-5.3,7.6c2.9,3.8,3.1-1.4,5.2-0.8
	c4.7,1.4,3.7,7.3,7.3,8.8c0.7,0.3,0.7-3.1,0.7-4l0,0l1.6,3.2c24.3,47.5,53.2,92.5,76.1,140.7l1.5,3.2
	c42,89.8,91.9,177.3,147.1,259.7c13,19.4,27.3,38.7,39.4,58.7s27.2,37.9,40.6,57.1c13.8,19.8,26.4,40.3,40.2,60
	c11.1,15.7,24.6,32.4,24.4,52.6c-0.1,9-1.4,18.9-10.1,23.8c-0.2-3.7-5.8,0.4-7.2,1.3c-5.8,3.9-2.6,3.5-8.9,2.1
	c-10.1-2.2-18.8,0.8-28.1-5c-19.9-12.2-39.4-24.8-59.7-36.4c-43.7-25.2-87-51-127.5-81.1c-70.8-52.6-147.8-99.8-213-159.6
	S911.2,1234.7,834,1190.9c-5.2-2.9-20-7.3-18.6-14.3c1.2-6.1,14.5-14.7,19.2-19c16.2-14.7,33.2-28.7,48.8-44
	c28.9-28.3,57.6-59.6,80.8-92.9c11.3-16.2,17-34.2,23.6-52.6c5.8-16.2,11.2-36.2,1.8-52.3c-4.4-7.4-10.4-10.5-18.8-9.9
	c-7,0.5-6.7,1.9-9.4-5.5c-3-8-5.4-17.2-13.4-21.8c-8.3-4.8-13.9,0.3-20.6,5.1c-7.7-11.1-17.2-30.4-32.7-31.5
	c-16.2-1.1-25.5,19-31.1,31c-16.6,35.7-38.2,69-61.4,100.8c-25.2,34.5-50.9,69.5-78.6,102c-5.9,6.9-12.5,16.9-20.8,21.1
	s-15.1,0.5-22.1-4.2l-0.6-0.4c-16.9-11.6-33.3-23.5-50.9-34.1c-19.5-11.8-39.5-22.5-59.4-33.6c-8.8-4.9-17.1-10.8-26.1-15.2
	c-8.4-4.1-17.6-6.1-26.2-9.7c31.6-9.4,65,2.9,94.9,12.7c15.5,5.1,31.8,10.4,48.4,9c14.3-1.2,27.4-8.9,38.7-17.3
	c20.5-15.2,22.1-38,15.4-61c-7.7-26.5-19.5-52-28.4-78.2c-4-11.9-6.8-24.5,2.4-34.8c8.3-9.2,18.9-10.3,30.2-6.7
	c27.3,8.8,51.5,17,80.7,16.2c22.9-0.7,51.9-7.1,67.3-25.7c8.4-10.2,8.8-24.2,8.8-36.8c0.1-15-0.9-30-3-44.9
	c-3.7-26.5-13.4-53-1.3-78.7C874.5,657.7,882.5,643.7,890.3,642.8z M1128,973.3L1128,973.3L1128,973.3
	C1128,973.1,1128,973.1,1128,973.3z M181.9,849c7.1-9.9,26.7-32.9,41.6-27.9c2.6,0.9,4.5,3.5,6.2,5.4c1.2,1.6,2.4,3.2,3.6,4.8
	c0.8,2.1,2.1,2.7,4,1.9c5.2,7.3,12.6,12.7,15.6,21.7s11,17.4,15.7,25.5c3.7,6.3,11.9,23,11.3,30.8v20c-0.8,7.8-15.3,21.7-20.4,26.9
	c-12.7,13.1-26.4,14.7-45.2,13.1c-15.9-1.4-36.5-6.7-47.3-19.4c-10.4-12.1-10.2-31-8.7-45.9C160.5,885,169.7,865.9,181.9,849z
	 M230.9,852.3c-2.9-5.4-9.3-6.8-14.9-6.1s-12,1.1-17.2,3.6c-4.7,2.3-7.1,6.4-13.1,5c2.3,4-1.9,6.4-2.5,10c-0.7,4.5,0.7,9.1,3.8,12.4
	c6.4,7.3,15.9,7.2,24.8,7.9c7.5,0.6,16.7,1.8,21.1,8.9c2.8,4.5,0.3,7.8,1.6,12.4c1,3.3,5.1,5.3,6.9,8.2c6-8.8,5.8-27.8,2.1-37.3
	c-2.1-5-4.6-9.7-7.6-14.2c-0.8-1.3-2.9-2.8-3.4-3.9C231.8,857.4,231.9,854.2,230.9,852.3L230.9,852.3z"/>
<g id="Ink">
	<path id="ink-shape" class="st1" d="M931,2032.3c10.9-4.3,24.3-2.3,35.7-2.1c14.3,0.3,28.6,1.3,42.9,2.5c27.4,2.1,54.6,1.2,82,3.8
		c13.6,1.3,27.2,2.5,40.8,3.6c11.9,1,25.8,4.2,37.7,1.9c4.9-0.9,18.2-5.6,15.7-12.8c-1.9-5.6-16.8-9-21.7-10.6
		c-11.4-3.7-23.3-6.4-34.8-9.7c-5.9-1.7-11.9-3.5-18.1-3c-5.3,0.5-10.9,4.5-16.3,4c-8-0.7-12.1-10.7-17.9-15.1
		c-9.3-7-16.2-3.3-23.3,4.5c-5.3,5.7-10.3,14.4-18.9,14.9c-11,0.7-13.1-8.8-8.3-16.8c4.5-7.4,16.6-14.9,17.3-24.1
		c0.4-5.8-8.9-21.3-14.2-23.6c-9-3.7-21.7,6.1-29.8,9.1c-14.2,5.3-28.7,9.9-43,14.7c-9.8,3.3-24.4,3.6-26.2,15.1
		C928.2,2003.1,931,2017.7,931,2032.3 M369.1,1810.6c2.9-6.3,5.9-9.9,0.1-15.8c-3.2-3.3-7.7-4.9-10.8-8.3c-4.7-5.1-12.1-19.1-2-22.7
		c9.6-3.3,17.8,10.2,25.6,13.2c9.9,3.8,16-2.5,17.4-12c1.8-12.1-0.2-24.8,1.3-37.1c1.4-12,5.6-22,8.8-33.6c2.2-7.8,4.9-15.7-5-17.4
		c-9.1-1.6-19.7,2.2-28.9,2.7c-14.4,0.8-29,1.5-43.2,3.7c-15.9,2.4-15.6,18.7-19.6,32c-9.7,32.3-22.7,64-28.8,97.3
		c-2.6,14.4,4.3,24.2,12.4,35.5c10.1,14.1,20.6,28.2,32,41.3c7.6,8.8,16.2,16.9,27.3,20.9c12.6,4.6,17.4-0.5,14.5-12.9
		c-3.8-16.4-9.6-32.2-8.9-49.3c0.3-6.2,2-12.9-2.4-18.1c-3.1-3.6-8.4-4.8-12.5-7c-6.7-3.6-17-15.3-4-17.8
		C351.2,1803.6,360.6,1809.6,369.1,1810.6 M669.7,1168.9c7.9,8.9,16.6,17.4,24.1,26.6c4.3,5.3,7.4,11.6,12,16.7
		c10.2,11,20.3-1.2,29.2-8.3c35.3-28,68.6-58.3,102.3-88.2c16-14.3,33.1-27.4,48.9-41.9c16-14.7,29.3-32,44.3-47.6
		c7.2-7.5,15.8-15,20.3-24.6c3.8-8.2,4.6-17.1,8.9-25.2c7.5-14,21.2-30.3,18-47.3c-9.3,9.7-24.7,44.5-40.8,28.2
		c-11.5-11.7,0.3-28.9-0.3-42.5c-11,4.7-8.1,23.5-19.8,26.8c-6.3,1.8-11.7-3.9-14.7-8.9c-5.1-8.7-3.2-17.7-0.9-26.9
		c1.6-6.3,11.6-26.9,1.7-29.5c-8.6-2.2-15.8,13.6-18.7,19.3c-5.2,10.3-9.3,21-15,31c-9.9,17.4-21.3,34-32.2,50.8
		c-22.4,34.6-48,67-74.3,98.7C734.7,1109.8,704.3,1141.7,669.7,1168.9 M918.6,1278.9c-1.1,30.4-27.3,53.5-49.9,70.5
		c-28.9,21.6-55.6,46.2-90.1,58.5c-13.3,4.7-29.8,3.4-35.2,18.3c-2.1,5.8-0.2,8,2.1,13.9c3.5,9.2,5.6,19.2,7.3,28.9
		c5.7,33,0.2,66.5-19.6,94c-10.5,14.6-24,27-37.9,38.3s-27,24.4-42.3,33.8c-32.6,19.9-68.8,31.3-106.4,36.8
		c-19.6,2.9-39.2,5.4-58.9,6.4c-10.2,0.5-20.5,0.6-30.7,0.2c-4.6-0.2-21.6-4.1-24.9-1.4c-2.5,2-3.7,14.3-4.2,17.6
		c-1.1,7.1-1.9,14.2-3.4,21.3c-3,14.2-6.9,30.3-2.6,44.6c1.3,4.2,2.3,7.5,6.1,8.9c2.4,0.9,6.7-0.7,9.2-0.9
		c5.4-0.6,10.9-0.7,16.4-0.2c18.4,1.9,36.4,6.6,54.9,5.4c39.5-2.7,79.1-5.5,118.3-11.7c19-3,37.3-8.7,56.1-13.1
		c17.9-4.2,35.7-8.4,52.4-16.3c32.6-15.6,62.8-35.7,89.8-59.8c28.8-25.5,47.8-55.8,65.8-89.6c15.8-29.7,29.2-59.7,28.5-93.9
		c-0.4-21.7-3.5-48.5,9-67.6c5.7-8.7,17.2-16.8,28-12.2c19.5,8.4,1.1,24.9-6.4,34c-10.7,13.1-9.3,33-10.4,49
		c-1.3,18.9-5.6,35.4-9.7,53.7c-4,17.9,4.1,39.1,4.9,57.3c0.9,19.8,0.3,39.6,0.1,59.3c-0.4,39.3,1.4,78.6,1.3,117.9
		c-0.1,20.4,0.5,40.9-0.8,61.3c-1.2,18.6-5,36.3-8.3,54.6c-3.3,17.9-8,39.3-6.9,57.5c44.7-17,88.1-37.1,133.5-52.3
		c-14.1-12.3-14.8-29.8-15.9-47.2c-1.5-23-5.3-45.7-6.9-68.7c-3.3-45.3-2.3-93,1.5-138.3c4.1-48.6,11.5-97.1,13-145.9
		c0.6-23.5-1-47.1-4.9-70.3c-3.2-19.6-6-44.2-16.2-61.5c-9.7-16.6-27.6-27.1-42.6-38.3C959.8,1315.1,939.6,1296.6,918.6,1278.9
		 M921.4,643c5.6,7.5,11.9,14.6,18.6,21.2c6.9,6.8,9.8,5.3,18.1,1.8c16.4-7,16.1-15.2,6.9-29.4c-21.3-32.8-29.3-71.9-51.8-104.1
		c-22.2-31.7-54.5-57.3-88.3-75.5c-36.3-19.6-75.7-25.8-116.6-25.3c-20.9,0.3-42,1.7-62.7,4.1c-20.2,2.3-38.2,8.9-57.8,13.9
		c-9.8,2.5-20,4.6-29.6,8.1c-8.4,3-16,7.7-24.5,10.6c-18.6,6.2-37.3,13.2-54.1,23.3c-16.1,9.8-31.5,20.7-46,32.7
		c-15.4,12.6-28.8,27.3-45.5,38.4c-15.2,10.1-27.3,23.7-41,35.5c-14.6,12.7-27.5,27.2-38.4,43.2c-10.5,15.3-14.6,35-20.9,52.3
		c-7.4,20.1-14.8,41.5-17.6,62.8c-5.2,39.6,6.5,86,21.3,122.6c14.7,36.3,38.5,66.5,67,93.1c13.9,13,29,24.7,45.9,33.4
		c14.5,7.4,33.4,20.7,49.2,11.4c6.4-3.8,11.6-8.2,19-9.8c8.1-1.9,16-1.1,22.5-7c5.5-5,8.2-11.1,15.5-14.1c8.6-3.6,18.8-4.3,28-4.2
		c20.7,0.1,41.5,5.3,61.3,11c18.1,5.3,33.3,13.2,52.6,8.4c14.3-3.6,37.3-13.1,40.3-29.5c2.8-14.7-7.9-33.7-13.2-46.8
		c-7.4-18.1-14.1-36-18.8-55.1c-3.7-15.1-9.5-39.3,0.9-53.1c10.2-13.6,33.9-13.4,48.6-10c9.6,2.2,18.5,6.7,28.1,9
		c9.8,2.3,20,3.5,30,4.6c34.7,3.9,84-5,82.2-49.3c-1.7-39.5-23.4-79.2-10.7-118.8c5.2-16.1,15.8-34.8,33.5-39
		c14-3.4,33,0.2,45.3,7.5c9.9,5.9,19.8,18.2,2.7,22.2 M224.6,819.7c-35,6.8-58.1,43.7-64.5,76.4c-2.9,14.8-3.9,32.5,1.7,46.8
		c6.5,16.5,24.8,23.4,40.9,26.9c18.5,4,34.8,2.4,49.4-10.4c6.4-5.7,11.9-12.2,16.5-19.4c4.7-7.3,11.3-12.7,6.5-20.9
		c-11.8-20.3-21.8-40.2-29.6-62.6c-3.5-9.8-6.5-19.8-8.8-30C234.9,818.4,234.1,813.5,224.6,819.7 M530.9,1041
		c-6.7,6.5-14.6,11.7-23.3,15.2c-9.6,3.8-12.5,2-12,13.1c0.5,12.3,0.6,22-5,33.4c-2.6,5.3-12.3,12.5-10.4,18.5
		c2.6,8.6,29.4,17.3,37.2,20.3c18.7,7.2,40.5,7.3,58.2-2.8c20.5-11.8,22.3-33.3,14.6-54c-0.8-2.2-3.8-6-3.1-8.4
		c1.3-4.4,6.9-3.8,10.1-2.1c6.9,3.7,9.8,14.8,11.3,21.8c4,18.6-3.3,38.8-17.3,51.6c-7.1,6.5-15.9,10.9-25,14
		c-5.1,1.9-10.5,3.1-15.9,3.7c-4.4,0.4-9.9-0.9-14.1,0.3c-7.4,2.2-7.7,11.3-9.5,17.9c-3.3,11.9-4.7,24.7-5.1,37
		c-0.7,19.9,1.7,45.2,13.1,62c26.6,39.3,78.2,52.9,118.4,73.2c21.4,10.7,41.2,24.3,60.3,38.7c1.9,1.4,4.7,4.2,7,5.3
		c7.6,3.8,1,2.4,5.8-0.1c3.8-1.9,7-6.1,10.9-8.2c9-5,19-7.7,28.1-12.4c21.2-11,39.9-24.6,58.7-39.1c19.3-14.9,38.8-28.4,56.3-45.4
		c7.4-7.1,15.8-13,23.3-19.8s-2.1-9.7-8.5-14.8c-21.8-17.2-43.3-35-66.6-50.3c-7.8-5.1-14.6-11.9-22.7-16.4
		c-8.5-4.7-13.5-0.5-20.2,5.5c-7.3,6.5-14.2,12.9-22.3,18.5c-10.7,7.4-23.2,10.9-33.9,17.9c6.9,7.2,23.8,9.7,26.2,20.6
		s-14.1,19.8-21.8,24.1c-13.7,7.6-28.7,12.2-43.9,15.5c-12.7,2.7-31.4-1.4-41.6,8.2c-2.9-6.1-5.6-9.3-0.8-15.2s13.2-6.9,19.9-9.1
		c18.1-6.1,36-14.2,53.5-21.8c-2.3-5.4-8.1-9.2-12.6-12.7c-6.2-5-11.8-10.7-16.8-17c-9.8-12-18.7-24.8-28-37.2
		c-4.1-5.4-7.8-10.7-15.2-7.8c-6.5,2.6-12.9,9.4-19.2,13c-14.2,8-26.7,15.6-42.3,20.7c-6.3,2-32.2,7.9-25.3-7.9
		c2-4.7,8.8-6.6,13-8.7c7.8-3.8,15.5-7.7,22.9-12c15.3-8.9,28.9-20.4,43.2-30.7c15.8-11.4,31.9-22.5,46.8-35.1
		c-14.8-9.8-31.2-17-46.5-25.9c-15.5-9.1-31-17.3-47-25.3c-12.7-6.4-25.7-13.3-37.3-21.5C551.8,1046.1,535.9,1032.4,530.9,1041
		 M995.9,722.1c-1.9,0.5-3.9,1-5.8,1.7c13,19.8-1.3,44.4,2.7,65.9c12-7.1,13.5-34.6,31.7-29.5c19.6,5.5,9.8,29.6,15.8,43.4
		c9.3-8.1,20-0.5,23.9,9.1c4.1,10.4-1.6,20,0.3,30.3c2,10.7,7.9,3.7,11.2-2.6c4.2-8,7.9-18.8,6.3-28c-1.9-11.1-9.4-21.5-14-31.6
		s-8.9-20.3-15.6-29.2C1039.8,734.5,1017.9,719.3,995.9,722.1 M1121.3,960.1c-8.5-21.1-21-40.5-29-61.8c-2.3-6.2-3.6-16.2-9.8-20
		c-4.1-2.5-9.5-1-14-2.4c-4.7-1.6-9-4.3-12.4-7.9c-5.9-6.1-7.8-14.4-14.7-19.7c-8.9-6.8-15.8-9.5-20.1-20.9
		c-3.3-9-3.3-10.3-13.4-8.3c-10.9,2.2-19.8-0.5-27.4-9c-12.8-14.5-14.2-34.9-7.9-52.4c2.9-8.2,8-17.7,3.8-26.3
		c-3.9-8-13.5-13.7-19.6-20c-15.3-16-27.3-34.8-41.7-51.6c-3.4-4-7-8-9.6-12.7c-1.7-2.9-2.7-8-6.6-8.8c-6.7-1.4-16.1,10.2-19.5,14.4
		c-24.7,31-7,73.2-4,108.1c1.5,17.8,5,39.1-2.9,55.8c-7.4,15.8-26.2,23.7-42.1,28.1c-21.4,5.9-44.3,5.7-66.1,2.1
		c-11.3-2-22.4-5-33.1-9.2c-11-4.2-22.5-11.3-33.8-3.8c-14.5,9.8-10,29.4-6.8,43.7c5.2,23.3,14.3,45.1,22.3,67.5
		c6.8,18.8,12.2,42.5-2,59.3s-37.7,27.4-59.6,26.5c-45.4-1.8-86.8-35.7-133.2-21.8c8.7,3.6,17.9,5.7,26.4,9.8
		c10.3,5,19.8,11.6,29.8,17.1c19.2,10.6,38.4,21.1,57.1,32.5c16.9,10.3,32.9,21.6,49,33c20.1,14.2,30.7-1.5,43.6-16.9
		c28.2-33.5,55-69,80.6-104.5c22.3-30.9,42.9-63.1,59-97.6c5.8-12.3,15.5-33.3,32.3-30.8c15,2.2,23.7,20.2,31.4,31.3
		c5.4-3.9,10-9,17.3-6.9c6,1.8,10.2,8,12.9,13.3c1.8,3.6,3.1,15.9,6.2,17.7c2.2,1.3,10.5-1.5,14.3-0.6c12.8,3,16.8,19.3,16.7,30.7
		c-0.2,15.7-6.7,31.4-12.1,45.9c-12,32.6-32.7,58-55.4,83.8c-22.9,25.8-47.4,50.2-73.2,73c-6.4,5.7-12.8,11.5-19,17.4
		c-5.1,4.8-13.3,9.9-17.3,15.5c-7.4,10.5,12.5,15.3,19.9,19.1c31.8,16.6,61.2,38.3,89.2,60.6c28.9,22.9,58,45.9,85.8,70.2
		c27.2,23.8,52.9,49.1,81.5,71.2c29.4,22.7,60.2,43.7,90.5,65.3s59.7,44.4,89.9,66c29.5,21.2,61.2,39.3,92.3,58.1
		c16.3,9.8,32.6,19.5,48.9,29.2c13.2,7.8,27.5,20,43.2,21c14.1,0.9,27.5,6.1,35.9-9.3c6.4-11.6,3.8-27.7-1.8-39
		c-6.8-13.8-17.5-26.5-26.1-39.3c-9.9-14.7-19-29.8-28.8-44.6c-9.3-14.2-19.8-27.2-30.2-40.6c-10.6-13.5-18.6-28.8-28-43.1
		c-20.2-30.6-40.9-60.7-60-92c-43.8-71.8-83-146-120.5-221.2C1196.2,1097.9,1119.2,961.3,1121.3,960.1 M1059.6,1401.7
		c23.5,81.4,10,164.3,5.1,247.1c-2.4,41.9-2.8,84-3.9,126c-0.5,20.4-0.5,40.8,0.4,61.2c0.4,10.3,1.2,20.5,1.9,30.7
		c0.7,9.1-1.8,19.1-0.6,27.8c1.5,11.2,23.7,13.4,16.8,27.7c-4.6,9.6-20.6,11.1-29.2,15.2c3.8,4.4,9.8,11,16.1,11.4
		c5.7,0.4,10.2-4.6,15.3-6.5c4.6-1.7,10.8-3.3,13.7,2c3,5.6-3.3,11.8-5.8,16.1c8.5,1.6,14.4-3.4,22-3c8.1,0.5,8.4,8.4,13.7,13
		c6.1,5.3,16.6,6.4,24.1,8.6c8.8,2.4,17.3,5.9,25.3,10.2c14.2,8,26.3,23,31.5,38.5c5.4,16-3,29.8-15.6,39.6
		c-4.7,3.6-11.4,7.9-17.7,5.9c-7.1-2.3-8.2-8.1-16.9-7.6c-7.8,0.4-15.2,3.5-23,3.9c-11.5,0.6-23-1.5-34.5-1.1
		c-46.5,1.8-93,2.2-139.4-2.3c-12-1.2-23.8-2.1-35.6-2.5c-9.2-0.3-10-7.2-11.5-15.8c-3.8-20.8,4.6-41.3,0.4-61.6
		c0.3,1.3-6.2-2.1-7-2.8c-4.8-4-6.4-9.8-7.8-15.7c-3.8-15.8-3.8-32-2.6-48.1c2.7-36.7,9.5-73,8.9-109.9c-0.3-18.6,0.3-37.1,0.3-55.7
		c0-17.1,1.5-33.9,1.7-50.8c0.3-37.1,4.2-73.9,5.3-111c-7.7,7.5-11.8,18-16.7,27.4c-6,11.6-12.8,22.9-20.1,33.7
		c-15.2,22.2-35.7,40.2-56.8,56.6c-40.4,31.2-84.3,55.4-133.7,68.7c-53.4,14.2-107.9,24.1-162.9,29.4c-12.8,1.3-25.7,1.9-38.5,0.7
		c-8.4-0.8-22-7.6-30-4.2c-9.1,3.9-10.9,13.3-22.8,10.7c-4.5-1-7.8-4-11.8-6.1c-5.8-3-6.1-0.9-11.6-0.6c-6.2,0.4-9.9-2.7-15.3,2.3
		c-4.6,4.3-4.1,7.2,0,11.2c5.9,5.6,15.4,6.5,21.3,12.4c5.8,5.7,4.7,12.7-4.1,12.7s-16.9-6.3-25.6-7.1c1.9,25.8,9.6,54.7,1,80
		c-4,11.8-12.6,19.3-25.4,19.3c-21.4-0.1-40.2-19.8-53-35.2c-7.1-8.5-12.9-18-19.8-26.7c-7-8.9-14.6-17.8-18.6-28.6
		c-4.3-11.4-3-22.9-0.6-34.6c3-14.5,5.7-29.2,9.3-43.6c7-27.9,20.9-53.4,28-81.2c2.7-10.5,2.6-22.9,9.4-31.9
		c7.1-9.6,18.2-10.2,29.2-9.6c13.6,0.8,27.2,2.3,40.8,3.8c8.6,1,27.3,7.1,34.3,1.9c2.4-1.8,2.4-6.6,5.2-8.2s7.1-0.4,10-0.2
		c14.6,1.1,29.4,2.4,44,2.8c54.5,1.6,111.9-6.9,160.6-32.2c22.6-11.8,39.8-30.2,57.9-47.7c17.8-17.2,33.4-35.7,38.2-60.6
		c4.4-22.8,2.7-50-4.6-72c-7.1-21.5-32.2-34.5-50.5-45.1c-25.4-14.7-52.3-26.8-79.7-37.4c-4.3-1.7-9.6-3.8-14.4-2.9
		c-5.9,1-9.8,6.1-15.1,8.4c-6.3,2.7-14.1,2.7-20.8,4.2c-6.5,1.5-12.8,3.6-19.4,4.6c-20.8,3.1-50,0.6-67.2-12.7
		c-28.1-21.7-11.1-52.4-2.1-78.9c-9.5-0.3-17.5,1.9-26.6-2.2c-9-4.1-16.2-11.3-20.3-20.3c-7.5-16.4-3.2-35.3-1-52.4
		c1-7.7,2.1-15.4,5.1-22.7c2.3-5.6,6-11,7.4-17c1.5-6.6-0.5-6.9-5.9-10.1c-8.1-4.4-14.9-10.9-19.7-18.9
		c-10.1-16.6-10.4-34.8-2.1-52.3c3.4-7.1,11.3-16.8,10.4-25.1c-0.8-7.1-8.8-12.7-13.6-17.3c-14.7-14.3-30.1-27.7-46.4-40.2
		c-7.6-5.9-15.9-11.2-22.8-17.8c-5-4.9-10.2-15.5-17.1-18.1s-11.5,5.2-16.3,9.3c-7.5,6.5-14.7,13.9-22.9,19.5
		c-14.7,10-32.9,8.2-49.4,5c-17.3-3.3-33.3-9.2-48.1-19c-5.9-3.9-12.7-11.7-19.9-12.3c-7.7-0.7-16.1,7-21.6,11.6
		c-14.4,12-18.7,30.7-27.1,46.8c-9.3,18-13.3,36.7-10.8,57c2.3,18.2,9.3,32,19.8,46.7c2.2,3,7.2,8.8,3.5,12.2
		c-4.5,4.1-13.8-4.2-16.8-6.8c-30.2-26.5-47.3-66.5-37.5-106.5c5.3-21.5,15.5-41.4,27.5-59.9c5.1-7.9,10-15.7,18.8-19.7
		c10-4.6,21.4-4,32.2-5.1c-7.4-36.4-9.8-75.9,13.1-107.6c17.5-24.3,53.3-45.6,81.8-25.9c-1.2-26.8-5-52.3,2.1-78.7
		c3.3-11.8,7.7-23.2,13.1-34.2c5.3-10.8,12.5-19.9,16.8-31.2c16.8-44.3,49-83.9,83.4-115.6c34.8-32.1,68.9-71.3,112.8-91.4
		c45.7-21,92.3-39.8,141.9-49.4c51.5-9.9,104.3-11.9,156.2-2.6c45.4,8.2,87.5,35.8,121.9,65.6c39.2,34,64.6,74.9,84.6,122.3
		c4.4,10.4,8.7,20.9,14,30.9c6,11,13.7,21.3,18.1,33.2c3.9,10.6,4.6,22-2.4,31.5c-4.9,6.7-15,8.2-19.3,14.2c-2.2,3.1-2,6,2.8,6.9
		s7.3-4.6,10.8-6.8c8.8-5.5,21.3-0.8,30.2,2.3c21.1,7.4,37.7,20.7,50.4,39.1c12.1,17.6,20.2,37.7,28.2,57.4c5,12.4,9.8,24.8,12.6,38
		c1,5,2.5,18.4-5.3,12.5c-3.2-2.4-7.7,15.7-6.9,18.6c3,10,13.6,19.4,19.8,27.6c14.7,19.1,24.5,40.5,34.9,62.1
		c22.4,46.8,47.4,92.2,71.4,138.1c48.9,93.6,102.3,183.6,158.4,273c27.8,44.3,56.5,88,86.1,130.9c13.1,19,26.2,38,39.1,57.2
		c10.9,16.3,21.6,34.5,18.8,54.8c-2.6,18.6-13.6,33.6-31.5,39.7c-9.6,3.3-21,7-31.2,6c-11.2-1.1-21.1-8.6-30.5-14.3
		c-43-25.9-86-51.8-129-77.7c-48.1-28.9-92.1-63.3-138-95.5c-23.3-16.4-47.4-31.1-71.8-45.9
		C1089.8,1422.3,1064.9,1398.4,1059.6,1401.7"/>
	<path id="ink-shape-2" class="st1" d="M643.1,1484c-11.8,17.3-24.1,33.6-40.7,46.7c-17.4,13.8-35.7,25-55.1,35.8
		c-34.3,18.9-80.3,35.7-120.1,27.1c-11.3-2.4-29.5-12.4-19.6-26.5c5-7.1,15.6-5.3,23.1-4.9c12.1,0.6,22.7,1.3,34.3-2.8
		c21.3-7.5,42.8-14.6,63.6-23.4c20.2-8.6,37.9-20.3,56.4-31.8c17.4-10.8,30.6-23.7,45.8-36.8c4.2-3.6,11.3-9.8,15.3-2.9
		C649,1469.6,644.7,1479.1,643.1,1484"/>
	<path id="ink-shape-3" class="st1" d="M1117.9,652.5c-1.3,7.5-4.9,22.4-15.4,20.4c-13.4-2.6-6.8-29-7-37.9
		c-0.9-39-13.6-76.5-32.4-110.2c-9.3-16.8-20.9-32.3-29.4-49.6c-1.7-3.4-6.7-11.7-3-15.3c4.4-4.4,12.8,2.2,15.8,5.4
		c11.9,12.1,21.4,30.2,30.6,44.4c12.3,19,23.1,39,30.9,60.3C1117.4,595.5,1122.7,625.3,1117.9,652.5z"/>
	<path id="ink-shape-4" class="st1" d="M1143.1,527.9c1.3,6.8,7.4,25.2-3.6,26.8c-12.4,1.8-16.3-28.8-19.7-36.9
		c-1.8-4.3-11.5-23.1-6.5-27.2C1123.8,482,1140.6,522.5,1143.1,527.9"/>
	<path id="ink-shape-5" class="st1" d="M558.2,1439.9c-11.8,10.8-25.5,10.1-40.4,9.1c-7.6-0.5-25.1-5-12.9-14.4
		C511.3,1429.7,561.1,1426.3,558.2,1439.9"/>
	<path id="ink-shape-6" class="st1" d="M1477.3,1636.8c0.8-1.7,7.9-9.7,9.4-6.4C1488.2,1633.4,1479.2,1636.7,1477.3,1636.8"/>
	<path id="ink-shape-7" class="st1" d="M539.1,1042.3c-1.5,3-7.5,0.4-9.6,0.8C532.4,1037,535.7,1038.3,539.1,1042.3"/>
	<path id="ink-shape-8" class="st1" d="M995,724.4l-1.9,7.2l-2.9-5.4L995,724.4"/>
	<path id="ink-shape-9" class="st1" d="M1006.6,1178c15.1,1.5,30.3,2.3,45.5,2.8c12.8,0.4,18.1-2,19.7-15.4
		c1.9-15.8,2.6-31.8,4.6-47.6c0.9-7.2,7.8-21.6-0.6-25.4c-7-3.2-18,1.4-25.4,1.9c-8.2,0.6-20.6-1.9-27.8,3c-7.8,5.2-6.1,23.4-7.4,32
		C1012.7,1145.6,1009.7,1161.8,1006.6,1178 M999.4,1101.2c-13.7,1-27.5,1.9-41.2,3.3c-6.1,0.7-18.4,3.7-23.5-0.8
		c-12-10.4,33-14.1,38.1-14.9c8.6-1.4,23.3,0.4,28.9-7.7s4.1-21.6,5.5-30.9c2.1-14,4.6-28.1,6-42.2c0.5-4.8-0.2-20.5,4.8-22.8
		c11.5-5.4,7.9,49.9,7.7,54.1c-0.3,7.1-0.7,14.3-1.7,21.4c-0.6,4-2.5,9.4-1.3,13.4c3.5,11.5,23.2,4.9,32.2,3.9
		c10.1-1,25.7,2.9,29-9.6c4.2-15.6,3.6-33.4,5.1-49.5c0.4-4.5,1.6-37.7,9.8-35.1c9.2,2.9,5.6,30.7,5.5,37.8
		c-0.1,8.1-0.1,16.1-0.6,24.2c-0.5,7.2-2.5,16.1-1,23.3c2.7,12.6,17.5,5.9,21.9,15.9c4.1,9.5-18.3,2-22.5,5.3
		c-6.3,4.9-4.8,25.3-5.6,32.4c-2,15.7-5.7,31.9-6.9,47.6c-1,12.3,8.9,10.7,19,9.8c8.6-0.8,18.1-2.8,26.8-1.7
		c7,0.9,16.7,7.3,6.6,11.6c-15.8,6.7-48.1-7-56.1,13.3c-1.5,3.8-8.5,48.2-17.3,26.3c-3.7-9.2,5.3-23.5-4.3-30.6
		c-3.3-2.4-8.3-2-12.1-2.3c-9.5-0.7-19-0.9-28.6-1.1s-18-2.1-21.7,8.3c-2.8,8.1-2.5,17.2-4.8,25.5c-1.7,6.2-7.3,17.1-13.2,6.9
		c-3.8-6.7-0.9-18.3-0.1-25.6c0.4-3.6,2.5-11.2-0.2-14.2c-3-3.3-10.9-1.5-14.6-1.2c-10.8,0.8-30.9,6.1-39.2-3.8
		c-6.9-8.2,7.5-8.4,13.1-8.9c5.8-0.6,11.7-1.1,17.5-1.7c6.4-0.7,14.9,0.2,20.9-1.8c10.1-3.4,9.4-17.2,10.1-26.1
		C992.6,1135.7,996.5,1118.5,999.4,1101.2"/>
	<path id="ink-shape-10" class="st1" d="M1177.4,1138.5c-0.8,10.1-1.9,21.4-5.2,31c-2.5,7.2-7.4,9.4-9.1,0.2
		C1162,1163.9,1169.1,1130.9,1177.4,1138.5"/>
	<path id="ink-shape-11" class="st1" d="M537.8,1072.1c-4-2.9-23.2-18.2-9.3-18.8c7.1-0.3,22.3,11.3,22.7,17.8
		c0.1,1.6-3.4,2.5-3.2,4.1c0.4,3,4.8,4.4,6.2,6.8c3.2,5.3,1.8,15.7-2.2,20.7c-9.3,11.4-19.6-7.9-12.4-11.7
		c-1.6,0.8-23.1-10.1-23.9-12.6C511.2,1064.8,536.6,1077.6,537.8,1072.1"/>
	<path id="ink-shape-12" class="st1" d="M571.5,1125.3c-4.9,0.2-14.8-0.2-18.4-3.7c-6.8-6.5,6.5-7.4,10.4-10.4
		c5.5-4.3,6.5-18.1,15.1-9.5S579.6,1120.1,571.5,1125.3"/>
	<path id="ink-shape-13" class="st1" d="M500.7,1089.4c8.9-1.3,28.6,17.8,19,19.1C513.4,1109.4,502.1,1094.5,500.7,1089.4"/>
</g>
<path id="Accent" class="st0" d="M2011.9,1244.3c2.7-1.1,10.7-6.1,13.6-5.6c4.8,0.9,12.8,14.7,16.1,18.6
	c10.6,12.6,21.1,25.3,31.6,37.9c4.2,5,10.3,10.4,13.3,16.2c2.3,4.5,3.1,10.7,4.5,15.5c17.1,60,33.9,120.3,46.4,181.4
	c2.7,13.2,5.2,26.4,6.7,39.8c0.7,6.6,2.7,16.3-0.2,22.7c-3.2,7.2-13.7,10.2-20.4,12.4c-13.2,4.3-27,6.9-40.6,9.2
	c-32.9,5.6-66.2,8.8-99.4,11.4c-10.2,0.8-20.6,0.8-30.7,2.2c-4.8,0.7-3.4-0.6-4.9,2.6c-2.1,4.5-0.7,13.9-1,18.8l0,0l-1.8,34.6
	c-1.6,31.5-3.2,63-4.8,94.5c-1.6,31.9-3.3,63.9-4.9,95.8c-0.6,12.1-1.2,24.2-1.8,36.3c-0.3,6.5,0.7,14.8-1.1,21.1
	c-1.3,4.7,0.8,3.3-5,3.6c-13.4,0.7-27.4-1-40.8-1.5l-45.8-1.6c-4.4-0.2-9.2,1.1-11-2c-2.1-3.8-0.5-14.3-0.7-18.5
	c-0.4-11.8-0.8-23.7-1.3-35.5l0,0l-3.5-97.5c-1.6-44.3-3.2-88.7-4.8-133l-50.9,10.2l-75.2,15.1c-11.5,2.3-25.2,7.6-37,5.9
	s-16.7-6.7-17.3-17.9c-0.7-12-0.4-24.1-0.3-36.1c0.3-19.6,0.8-39.3,1.6-58.9l100.5-9.1l53.5-4.8c4-0.4,14,0.4,15.8-2.6
	c2.8-4.7-0.3-20.3-0.4-25.7c-0.3-16.9-0.5-33.8-0.8-50.7c-1-62.2-1.9-124.4-2.9-186.6c8,0.3,16,0.5,24,0.7c34.9,1,70,2.4,104.9,1.3
	c17.5-0.5,34.1-5.3,50.6-10.8C1994.6,1250.9,2003.3,1247.7,2011.9,1244.3z M1978.2,1412.3l-17.8,87.2l61-4L1978.2,1412.3z"/>
<path id="ink-shape-14" class="st1" d="M2487.7,705.3c-1.3,9.7-0.4,20.3-11.3,22.8c-10.1,2.4-21.3,1.7-31.6,2.5
	c-11.6,0.9-23.2,2.2-34.8,3.4c-14.6,1.4-12.5-4.2-15.7-16.6c-2.9-11.4-7.6-22.8-11.4-33.9c-1.8-5.1-3.9-10-6.4-14.8
	c-2.2-4.4-1.2-10.4-3.6-14.1c-8.2-12.6-48,21.9-51.8,15.1c6.7-5.3,18.4-11.1,20.5-20.1c2.4-10.6-4.3-13.7-12.7-9.9
	c-21.4,9.8-44.1,16.7-67.4,20.4c7.3-4.9,73.5-43.5,51.3-54.9c-5-2.6-11.7,2.3-16.2,4.1c-7.2,2.8-14.6,5-22.1,6.8
	c-7.9,2-15.8,3.9-23.7,5.8c-5.6,1.3-15.5,5.8-20.9,4.7s4.3-4.6,5.8-5.4c7-3.5,13.8-7.3,20.6-11.1c12.1-6.8,23.2-14.6,32.4-25.1
	c6.9-7.9,18.3-25.1,13.5-36c-2.8-6.3-8.9-12.2-12.5-18.2c-4.2-7-7.6-14.5-11.2-21.8c6.1,2.7,12.9,3.4,19.2,5.8
	c6.2,2.4,12.6,4.4,19,6.1c13,3.6,25.9,4.2,38.8,7.1c14.6,3.3,29.8,7,44.6,8.9c12.9,1.7,24.5,5.2,35.5,12.2
	c22.2,13.9,38.6,35.4,46.1,60.5c4.6,14.9,5.8,30.5,6.3,46.1C2488.6,672.3,2489.8,689,2487.7,705.3 M2361.1,706.6
	c-15.8,11.5-34.1,20.5-51,30.2c-9.7,5.6-19.6,10.8-29.4,16c-7,3.7-15.5,10.5-23.2,12.5c-4.9,1.2-4.5,1.3-7.6-3.2
	c-2.9-4.2-5.5-8.8-8.3-13.2c-5.1-8.1-10.2-16.1-15.4-24.1c-11.5-18-23-36-35.1-53.6s-23.8-35.7-35.5-53.6
	c-5.5-8.3-10.9-16.7-16.7-24.8c-4.4-6.2-15.8-15.6-10.4-22.9c5-6.8,16.4-12.4,23.2-17.5c8.2-6.3,16.5-12.4,24.8-18.7
	c17.7-13.5,34.9-27.6,52.6-41.1c15,26.3,32.6,50.9,50.4,75.4c-16.1,10.3-32.3,20-49.3,28.8c-12.5,6.5-31.7,15.3-39.6,27.6
	c-7.8,12.1-0.1,26.1,13.7,26.3c8.3,0.1,16.6-2.1,24.7-3.3c5.9-0.9,16.6-5.1,21.9-2.2c-9.5,6.1-44.1,23.8-25.4,39.3
	c13.3,11.1,35.8-5.1,50.2-1.8c-4.4,8.4-8.9,21.8,3.2,26.4c10.1,3.8,23.4-3.3,32.5-7.1c6.6-2.7,13.1-5.5,19.6-8.5
	c5.1-2.4,11.3-7.2,16.8-8.2C2354.2,684.1,2367.3,702,2361.1,706.6 M2068.4,1326.4c9-1.6,13.6-5.4,16.5,5.6
	c2.5,9.8,5.1,19.2,8.3,28.9c-14.1,1.2-26.5,7.9-36.7,17.4c-7.3,6.7-21.8,22.8-18.2,34.1c8.8,27.4,53-34.1,58.2-40.7
	c6.4,9.4,8.8,21.7,12,32.5c2.3,7.7,10.7,22.3-0.4,24.2c-15.7,2.6-45.1,8.4-43.2,30.6c2.2,26.2,35.5,26,54.2,27.2
	c10.5,0.7,10.6,9.1,12.1,18.6c0.7,4.2,2.8,9.9-0.8,13c-3.2,2.8-12.9,2.8-17.1,3.7c-12.1,2.6-24.2,5.2-36.3,7.8
	c-13.7,3-21-1.2-33.8-4.9c-4.8-1.4-9.5-0.8-9.9-6.1c-0.2-3.3,3-8.3,4-11.5c4.1-12.8,7.7-25.9,8.8-39.3c1.7-19.5-0.4-48.7-24.4-52.5
	c-11.4-1.8-13.6-2.4-18.8-13.1c-5.6-11.6-14.4-22.3-12.3-35.7c1.5-9.7-1.1-28,5.1-36c2.8-3.7,8.4-5.9,12.2-8.6
	c4.8-3.5,9.5-7.2,14-11.1c3.8-3.3,8.4-9.7,12.7-12c5.3-2.9,5.4-0.9,9.2,3.6C2049.4,1308.6,2058.2,1328.3,2068.4,1326.4
	 M2093.8,1369.7c-3.1,6.3-10.3,12.2-14.9,17.4s-9,10.9-14.2,15.7c-5.7,5.3-25.8,18-21.4,0.9c3.5-13.3,16.4-24.2,27.8-30.8
	C2073.3,1371.6,2099.1,1359,2093.8,1369.7 M2115.9,1433.2c2,8.9,3.1,18.2,4.8,27.2c0.9,4.6,5.7,15.7,3.7,20.1
	c-3.3,7.5-33.4-1.4-39.6-4c-14.8-6.2-21.6-21.9-8-33.2C2081.9,1439.1,2113.8,1424.3,2115.9,1433.2 M2135.6,1540.5
	c1.7,8.5,6.6,16.4-1.5,22.9c-6.7,5.3-17.7,9-26,10.9c-11.3,2.6-14.9-3.7-20.9-11.9c-6.4-8.8-13.3-17.2-20.4-25.4l66.9-15
	C2133.7,1528.2,2134.3,1534.4,2135.6,1540.5 M2082.1,1580.1c-11.6-0.6-24.1,2.9-35.9,3.8c-14.7,1.2-29.4,2.8-44.2,3.8
	c3.8-12,10.6-22.8,15.9-34.2s9.1-12.7,21.3-13.5c11.3-0.8,19.3-4.7,27.7,4.9c8.7,10,16.6,20.9,24.6,31.5
	C2088.8,1578.2,2085.6,1580.2,2082.1,1580.1 M1999,1582.5c-2.9,2.1-11.7-3.8-14.7-5c-5.8-2.2-7.1-3-10.1-8.6
	c-2.6-4.9-6.7-10.4-7.6-15.9c-1.1-7.3,2.2-17,3.3-24.2c3.1,7.6,13.4,8.5,20.4,9.7c5.3,0.9,20.9-0.6,24.8,3.2
	c4.4,4.2-3.7,15.7-5.8,20.1C2006.9,1566.8,2003.8,1579,1999,1582.5 M1993.4,1588.5c-3.5,0.6-13.4,4-13.2-2.3
	C1980.4,1579,1994.1,1586.8,1993.4,1588.5 M1975.9,1588.1c-0.6,6.1-13.7,5.6-14,0.2C1961.4,1579.4,1976.9,1578.4,1975.9,1588.1
	 M1961,1424.6c-3.3,9.5-23.7,12.9-31.5,15.8c-7.1,2.7-28.4,15-35.8,10.5c24.9-17.1,50.4-33.9,71.5-55.7c0.9,5.4-0.4,9.9-2,15
	C1961.8,1414.9,1962.5,1420.4,1961,1424.6 M1954.8,1459.3c-3.6,23.3-7.1,46.9-12,69.9c-9.2-2.8-16.8-8.5-26.6-10.5
	c-8.9-1.7-18-1.9-26.9-0.5c-19,2.8-36,12.2-52.6,21.4c-1.5-16-4.7-33.1-4.3-49.1c0.3-13.3,23.1-17.3,33.4-22.8
	c6.3-3.3,11.9-8,19-9.2c7.3-1.2,14.4-1.2,21.6-3.4c17.1-5.3,33.2-13.7,50-19.9C1957.9,1443.3,1956,1451.4,1954.8,1459.3
	 M1938.8,1557.8c-0.8,5.3,0.2,14.7-3.8,18.8c-3.8,3.8-11.9,3.9-16.9,5c-15.3,3.1-30.5,6.3-45.7,9.6c-6.8,1.5-13.6,2.8-20.5,4.1
	c-3.3,0.6-11.5,3.8-14.2,1.2s-0.7-10.3-0.5-13.7c0.4-6.6,0.5-13.2,0.2-19.8c-0.8-12.7-0.1-17.5,11.7-24.1
	c12.3-6.9,25.7-11.8,39.6-14.3c13.9-2.6,28.4-1.2,41.5,4.3c3.8,1.5,9.5,3.4,11.2,7.5C1943.7,1541.9,1939.6,1552.2,1938.8,1557.8
	 M1921.6,1762.2c-5.6,3.5-17.8,2.9-24.2,3.6c-10.4,1-20.8,0.6-31.1-1.1c-7.8-1.2-19.3-2.9-25.3-8.3c-8.4-7.7,1.3-8.1,7.8-7.6
	c18.8,1.6,37.8,0.5,56.6-0.9c3.7-0.3,13.5-3.5,17-2C1926.9,1747.8,1925.5,1759.7,1921.6,1762.2 M1911,1887.2
	c-35-3.4-55.3-32.4-68-62c-6.8-15.9-4.4-32.6-5-49.4c-0.1-3.1-2.1-10.7,1.1-13c3-2.2,15,4.5,18.2,5.3c17,4.2,34.7,4.4,51.8,0.5
	c7.2-1.7,11.3-4.9,13.6,2.3c1.8,5.8-1.2,16.4-1.5,22.5C1920.6,1803.8,1922.2,1888.3,1911,1887.2 M1841.1,1887.3
	c-0.1-5.1-2.7-56.4-0.2-56.6c7.4,15.9,15,30.2,28.4,41.9c6.9,6,14.6,11.4,23.2,14.6c3.2,1.2,21.5,2.1,22.4,6.1
	c1.6,7-10.9,4.2-14.6,3.6c-3-0.5-5.7-1.7-8.6-2.3c-5.6-1-10.8,0.3-16.4,0.5c-8.5,0.2-16.8-0.7-25.3,0
	C1842.3,1895.9,1841.3,1895,1841.1,1887.3 M1846.2,1657c30-9.7,55,8.7,70.9,32.7c9,13.7,11,23.3,9.5,39.5c-0.6,5.8,0.5,9.7-4.9,12.1
	s-17.3,0.6-23,0.9c-16.4,0.8-32.8,1.8-49.3,0.8c-10.7-0.6-12.2-2.4-12-12.8c0.2-12.5-0.8-24.9-1.5-37.4
	C1835.1,1679.3,1830.5,1662.1,1846.2,1657 M1836.4,1639c0-9.2-0.5-18.6,0-27.7s4.4-8.6,13-10.2c18.6-3.4,37.1-7.1,55.4-11.7
	c7.2-1.8,15.4-5.3,23-5.3c7.9,0,7.5,4,7,11c-1.2,15.5-4,30.8-4.9,46.3c-0.9,16.7-1.4,33.5-1.3,50.2c0,5.6,1.4,9.8-3.4,4.5
	s-7.2-13.7-11.4-19.6c-8.8-12.1-21.9-21.9-36.4-26c-8-2.3-16.5-2.6-24.6-1c-2.5,0.5-14.9,6.4-16.5,5.3
	C1835.2,1654,1836.4,1639.4,1836.4,1639 M1946.1,1956.8c11.9,8.5,25.1,15.4,38.4,21.4c7.5,3.4,37.2,10.4,38.1,18
	c0.5,4-4.4,8.6-7.6,9c-4.1,0.6-10.8-2.1-15-2.6c-15.1-1.8-30.3-1.8-45-6.1c-29.5-8.4-60.1-10.8-89.9-18.1c-7.1-1.8-14.2-3.4-21.3-5
	c-6.8-1.5-9.8-1.2-10-8.5c-0.5-15.9,4-32.2,4.1-48.2c24.1,2.8,48.3,2.7,72.5,5c10.4,1,10.1,2.9,14.7,12
	C1929.7,1943.1,1937.8,1950.7,1946.1,1956.8 M1828.6,1440.9c-0.3-5.9-0.6-11.8-1.1-17.6c-0.4-3.9-4-15-1.9-18
	c2.4-3.6,4.8-1.4,9.2-1.5c5.7-0.1,10.4-2.4,15.1-5.4c8.9-5.7,15.5-13.1,21.2-21.8c5.1-7.7,4.1-18.1,4.1-27.3
	c-0.2-23.7,1.6-46.8,0.1-70.6c-0.7-10.9,8.7-4.2,16.2-2.8c12.3,2.3,25.7,0.7,38.3,0.7c-0.5,2.9-26.1,10.2-30.2,12.9
	c-10.6,7-16.8,18.3-15.8,31.2c1.9,25.9,30.4,30.2,51.3,30.2c-17.3,15.3-34.2,29.8-47.8,48.7c-10,13.9-27.6,41.3-11.3,56.6
	c-14.5,8.2-28.8,17.3-45.2,21.3C1830,1465.3,1829.3,1453.1,1828.6,1440.9 M1822.1,968.7c5.9,3.8,8.4-1.6,12.8-4.3
	c6.3-3.9,8.4-3.5,9.2-12.2c1.5-16.2-5.3-30.8-13.9-44c-3.9-6-7.8-13.2-13.2-17.9c-5-4.3-10-2.8-14.7-7.2c-1.8-1.8-1.4-4.2-4.4-4.1
	c-2,0-6.8,6.2-8.4,7.5c-5.2,4.3-11.5,7.5-18.2,4c-9.8-5.1-6.7-23.7,1-29.8c5.9-4.6,12.8-3.9,19.6-4.7c5-0.6,6.1-0.3,4-6.1
	c-1.4-4-4.8-7.2-6.4-11.1c-3.2-7.6-2.5-16.8-3.8-24.8c-1.2-7.2-4.1-14.9-4-22.2c0.1-9.3,3.2-11.7,11.2-14.3
	c7.8-2.5,14.2-8.1,20.9-12.7c7.5-5.3,15.7-8.8,23.4-13.6c5.2-3.3,8.6-9.9,14.4-6.8c6.8,3.7,14.1,14.3,19.9,19.8
	c-8.5,5.4-10.5,7.8-9.3,18.3c1.1,9.7,3.1,18.3,10.5,25.1c2.8,2.6,8.2,4.7,10.4,7.7c2.6,3.5,0.9,0.4,0.6,4.3c-0.2,2.1-1.8,3.5-1.5,6
	c1.6,10.9,14.2,4.5,19.3,0.7c18.4-13.5-16-24.3-24.2-29.2c-5.7-3.4-8.4-14.3,0.5-11.4c5.9,1.9,19.4,18.2,20.8,3.4
	c14.8,8.6,23.9,26.8,36.2,38.3c8.9,8.3,20.9,17.5,13.8,30.8c-9,16.9-26.9,24.6-43.3,31.9c-15.8,7.1-12.6,27.1-4.1,39.3
	c4.9,7.1,11.3,11.2,19,14.7c7.9,3.5,9.5,7.7,11.2,15.8c1.9,9-0.1,12.7-8,17.4c-7.7,4.7-15.6,8.9-23.8,12.6
	c-17.7,7.7-36,8.2-54.8,10.8c-6.6,0.9-12.9,2.8-16.5-3.7C1824.2,989.6,1823.9,977,1822.1,968.7 M1819.2,933.6
	c-4.4-2.3-15.1,5.4-20.7,5.8c-9,0.5-15,0.3-23,5.1c-15.2,9.1-27.8,20.7-39.9,33.4c-13.7,14.3-27.4,28.6-41,42.9
	c-6.2,6.5-12.4,12.9-18.7,19.3c-5,5-9.8,12.1-15.9,15.7c0.3-4.3,2.9-7.3,3.9-11.2c0.5-2.3-0.4-4.3,0-6.5c0.1-0.7,2-3.2,2.3-4
	c0.8-2.2,1.7-4.3,2.7-6.5s0.7-4.3,1.6-6.5s3.4-3.7,4.2-6c2.5-6.5-1.7-9.5-8.3-9.4c2.6-13,3.8-19.4,17.3-24
	c13-4.4,25.7-9.3,37.6-16.2c10.6-6.1,19.4-14.8,29.6-21.6c9.1-6.1,20.5-12.4,20.4-24.9c5.2,3.5,10,6.5,15.9,3c5-3,5.7-5.3,11.4-5.9
	c4.7-0.5,7.6-0.6,11.8,1.5c4.9,2.4,5.6,4.1,8.5-3c3.3,2.8,11.6,14.2,11.3,18.8c-0.2,2.5-0.5,3.6-3.6,4.3
	C1822.3,938.7,1822.4,935.3,1819.2,933.6 M1798.6,1613.2c-2.2,3.3-11.2,2.7-14.7,2.6c-10.7-0.1-14.4-9.1-19.1-17.8
	c-7.4-13.7-18.4-42-6.3-56.3c9.6-11.3,28.2,2.9,34.7,11.5c5.6,7.4,4,18.4,4.5,27.3C1798.1,1588,1802.8,1606.7,1798.6,1613.2
	 M1769.4,1618.1c-4.3,4.3-18.1,3.4-23.8,4.3c-10.1,1.5-20.1,3.7-29.9,6.6c-7.3,2.2-14.5,8.2-16.4-2c-1.6-8.5-0.8-18.8-0.7-27.4
	c0.2-9.3,1.1-18.5,2-27.8c0.6-6.3-0.8-17.8,4.3-22.6c4.4-4.1,15.1-4.5,20.8-5.9c9.4-2.3,19.2-5.2,29-4.2
	c-5.7,15.5-6.2,31.7-0.1,47.1C1756.5,1590.6,1772.1,1615.5,1769.4,1618.1 M1697.7,1556.5c-2.4,23.3-4.8,46.7-2.5,70
	c0.1,1.4,1.8,7.8,1.1,8.8s-6.7,1.6-8,1.9c-5.3,1.3-10.7,2.6-16.1,3.7c-10.5,2.2-11.8-4.4-13.9-14.1c-4.4-20.8,4.1-43.3,9.3-63.3
	c2.5-9.7,4.4-10.8,14-11.7C1688.3,1551.3,1698.8,1546.6,1697.7,1556.5 M1657.4,1643.2c-4,3.6-8-13.5-8.3-15.3c-1.4-7-0.6-14-0.6-21
	c0-11-0.8-22-0.8-33c0-5.9-4.5-18.1,2.6-21.2c2.1-0.9,10.3-0.5,12.1,0.7c3.9,2.5,2.3,4.2,1.2,8.5c-2.6,9.8-4.8,19.7-7,29.6
	c-2.2,9.7-4.3,19.1-3.3,29.1C1653.5,1624.1,1659.9,1641,1657.4,1643.2 M1785,1534.9c9.8-2.8,10.3,4.7,10.3,11.9
	C1793.7,1545.6,1779.9,1536.3,1785,1534.9 M1654.5,1009.9c-2.4,3.9-17.5,5-21.9,6c-8.5,2-17,4.1-25.5,6.2
	c-15.9,4-31.4,8.5-47.7,10.6c9-14.3,11.7-26.7,10.1-44.6c-2.1-22.6-4.8-44.9-10-67c-5.1-21.8-11.1-43.5-16.8-65.1
	c-2.8-10.6-5.8-21.1-9.6-31.4c-3-8.3-7.7-18.7-2.6-27.2c12.9,9.4,23.2,19.5,30.6,33.8c7.9,15.3,14.8,31,23.9,45.7
	c4.2,6.7,9.1,12.8,13.5,19.3c2.7,3.9,4.6,9.4,8,12.7c3.9,3.8,8.1,5.5,10.3-0.8c2.4-6.8-5.3-20.2-7.5-26.6
	c-5.4-15.4-10.8-30.8-15-46.6c-3.4-12.8-9-28.2-7-41.7s11-3.8,15.6,2.4c9.4,12.8,15.1,27.7,21.3,42.2c5.7,13.3,12.3,26,18.7,39
	c2.2,4.5,5.1,16.2,10.8,17.6c8.4,2,7.7-9.8,6.9-14.6c-5.3-31.7-19.1-62-22-94.2c-0.1-1.5-2.1-13.5-0.5-14.5
	c3.1-1.9,7.3,10.2,8.7,13.2c7,15.5,11.9,31.8,16.3,48.1c3.8,13.9,7.2,27.9,11.5,41.7c2.3,7.6,5,15,7.7,22.5
	c2.4,6.8,4.8,18.3,11.1,22.8c8.9,6.3,40.6-8.7,43.8,4.7c2.3,9.6-27.1,17.3-33.4,20.2c-8.3,3.8-16.3,8-24.6,11.8
	c-6.3,2.9-15.2,4.1-19.8,9.5c-4.8,5.8-5.6,13.9-5.7,21C1653.7,991.9,1657.4,1005.2,1654.5,1009.9 M1634.6,1114.2
	c-0.4,3-2.8,7-3.9,9.8c-2.2,5.8-4,12.8-7.1,18.2c-2.6,4.7-6.5,8.9-9,13.6c-2.4,4.5-2.7,9.7-5.5,14.2c-3.2,5.2-8.5,8.9-11.7,14
	c-1.6,2.8-3.4,5.5-5.4,8.1c-7.8,9.6-15.6,18.6-21.9,28.8c-1.6,2.6-9.5,14-12.6,14.7c-6.6,1.3,1.1-8,2.4-10
	c9.3-13.9,17.5-28.6,26.5-42.8c8.7-13.7,17.6-27.3,25.9-41.2c6.8-11.3,11.5-27.6,22.6-35.6
	C1634.9,1108.7,1634.8,1111.5,1634.6,1114.2 M1937.1,986c5.4,22.2,11.8,43.7,17.9,65.7c5.6,20.4,13.2,42.2,15.5,63.3
	c2.5,21.1,7.5,41.8,14.8,61.7c3.3,9.2,6.7,18.3,10.3,27.4c2,5,4.2,9.8,6.4,14.7c1.7,3.8,6.3,9.9,6.5,13.9c0.1,3.2,1.3,1.9-1.9,4.3
	s-8.9,1.6-12.7,2c-9.9,1.2-19.6,4.9-29.3,7.3c-18.7,4.7-40.9,8.4-60,5.1c-8-1.4-16.4-2.6-24.4-4.3c-9.8-2.2-11.8-6.3-13.8-15.9
	c-4.4-21-8.2-42-11.8-63.2c-4.3-25.2-9-50.3-12.3-75.7c-3.4-25.7-5.8-51.3-11-76.7c21.3,3.6,41.3,7.6,62.6,1.8
	C1912.8,1012.1,1926.4,1002,1937.1,986 M2020.4,1260.6c4.8,9.8-6.7,18.6-12.3,26.2c-7.3,9.9-14.2,20.3-22.7,29.3
	c-2.6-10.2-4.8-21.7-11.6-30.1c-8.7-10.7-18.9-6.3-29.5-11.4c11.2-5.4,25.5-3.4,37.3-8.2s23.5-8.5,34.4-14.8
	C2017.5,1254.6,2018.9,1257.6,2020.4,1260.6 M1978.9,1489.1c-7.2,0.4-2.4-14.7-1.9-18.4c1.3-10.3,2.6-20.6,3.7-30.9l17.7,46.7
	C1991.9,1487.4,1985.4,1488.8,1978.9,1489.1 M1967.3,1563.7c1,2.2,5.5,9.4,1.9,10.7C1964.3,1576.2,1963.7,1564.3,1967.3,1563.7
	 M1958.7,1396.1c-22.8,18.2-45.4,36.4-70,52.1c-5.4,3.4-10.8,4.9-14.4-1.9c-2.8-5.3,0.2-11.4,2-16.6c4.6-13.3,12.6-24.9,21.5-35.8
	c17.7-21.7,38.8-40.2,65.8-48.8c4.4-1.4,11.2-5.6,12.8,0.2c0.9,3.4-2.9,12-3.7,15.2C1969.4,1373.8,1970.1,1387.1,1958.7,1396.1
	 M2024.3,1528.7c0.5,15.4-41.7,3-47,0.2C1982.9,1527.1,2024.1,1521.8,2024.3,1528.7 M2040,1528.8c2.5,0.7,12.1,1.5,8.5,4.8
	c-3.2,2.9-17.8,1.8-21.6,2.1C2029.5,1527.2,2031.5,1526.5,2040,1528.8 M2032.2,1508.1c-1,3.4-1.3,8.7-4.4,11
	c-3.8,2.9-12,1.2-16.3,1.2c-7.4,0-14.7,0.4-22.1,1.2c-2.8,0.3-14.2,3.7-16.8,1.4c-1.9-1.7-1.2-9.8,0.2-11.6
	c2.9-3.7,9.5-2.4,13.7-2.6C2001.8,1508.1,2016.9,1508.1,2032.2,1508.1 M2022.4,1451.1c-2.2-3.2-2.5-3.2-3.5-8c-1-5.2-3.5-9.6-5-14.6
	c-3.2-11,7.1-10,14.7-6c19.7,10.5,14.9,47,10,64.2c-7.1-5.2-9.7-7.6-12.1-15.9c-0.9-3.2-2-6.3-2.9-9.5
	C2022.9,1458.9,2023.4,1452.7,2022.4,1451.1 M2024,1273.1c5.5-0.7,10.5,16.4,8.9,20c-3.2,7.5-15.5,14.3-21.7,19.1
	c-4.2,3.2-8.3,6.9-12.7,9.7c-4.1,2.6-6.5,1.1-10.3,2.4c-5.6,1.8-6.9,7.7-12.6,10.2c-8,3.6-17.7,4.6-26,7.8c-10.1,3.9-19.4,4-30,2.2
	c-15.3-2.7-33.2-10.2-31.8-28.8c2.4-32.7,67.4-49.5,85.2-21.8c4.6,7.2,4.5,15.7,7.5,23.4c3.2,8.4,6.4,5.1,11.3-1.1
	c6.4-8.1,12.3-16.6,18.4-24.9C2012.3,1288.5,2020.1,1273.5,2024,1273.1 M1625.6,1591.7c-0.3,5.6,0,11.2-1.9,16.5s-5.9,9.7-8.2,14.9
	c-4.6,10.6-4.6,23.3-4.4,34.6c0.4,26.3,6.7,51.9,10,77.8c-11,0-22.3,0.1-32.9-3c-9.5-2.8-11-9.7-13.7-18.5
	c-7.5-24.6-15.7-49-18.1-74.7c-1.2-12.3-1.7-24.6-2.2-36.9c-0.5-10.8,1.9-15.5,11.7-20.8c21.2-11.6,43.1-21.3,64-33.4
	C1627.7,1562.7,1626.4,1577.3,1625.6,1591.7 M2529,729.9c-5.1-0.9-10.4-1.5-15.6-2.2c-2.7-0.3-11.2,0.1-13.2-1.6
	c-2.4-2.1,1.8-18,2-21.4c1.3-20.5-0.2-41.7-2.1-62.2c-3.4-37-15.1-71.3-41.9-98c-13.4-13.3-28.4-23.8-46.7-28.9
	c-10.6-3-21.6-4.5-32.3-7.4c-8.6-2.3-16.6-5-25.6-5.9c-17.8-1.8-34.1-8.6-51.5-12.5c-12.8-2.9-33.4-9.7-41.7,4.8
	c-6.2-7.3-13.4-13.7-21.3-19.1c-7.9-5.5-9.2-10.9-18.9-4.6c-18.8,12.3-36.4,27.3-53.9,41.2c-16.4,13-32.2,26.7-49.4,38.7
	c-17.5,12.2-14.2,33-6,50.2c15.5,32.4,39.4,60.1,60.3,87.9c13.1,17.4,26.2,34.8,39.3,52.3c12.5,16.7,23.3,36,37.8,50.9
	c9.2,9.4,20.1-2.9,28.4-8.6c10.3-7.1,20.4-14.4,30.7-21.5c21.5-14.7,44.4-28.5,67.1-41.3l5,14c-5,0.4-11.7-0.7-14.2,4.6
	c-3.6,7.6,5.3,8.6,6.8,13c1.4,3.9-4.3,14.3-6,17.8c-3.8,7.9-9.1,14.8-14.9,21.3c-23.1,25.9-52.3,44.4-81.9,62
	c-31.7,18.9-65.7,30.4-100.4,42.6c-17.6,6.2-36,9.1-54.2,13c-17.6,3.8-35.1,8.8-53,10.3c-36.7,3-75.6,5.2-111.8-2.8
	c-4-0.9-8.2-2.7-12.2-3.1c-3.2-0.3-5.6,1.1-8.7,1.2c-6.6,0.4-10.3-5.5-15.5,0c-2.6,2.7-2.7,7.3-6.3,2.2c-4.6-6.5,7.2-7.7,11.6-9.6
	c14.7-6.2,26.6-18.7,35.9-31.3s10.7-26.1,5-40.9s-18.6-24.8-28.4-36.8c-4.7-5.8-9-12-14.2-17.4c-2.8-2.9-7.2-5.7-7.4-8.6
	c-0.2-3.4,1.8-5.1,0.6-9.2c-0.3-1.1-1.7-1.7-2-2.9c-0.5-1.9,0.2-3.5,0-5.3c-0.6-4.2-2.2-6.8-4.5-10.3c-1.4-2.2-3.6-6.5-5.6-8.1
	c-3.5-2.8-8.3-1.7-11.8-4.5c-5.6-4.5-7.6-14.1-12.6-19.6c-7-7.7-8.5,0.1-16-2.4c-6.4-2.1-6.3-11.7-11.4-14.9
	c-7.2-4.5-13.3,3.8-19.8,5.7c-8.5,2.5-5.2-7.1-12.8-8c-6.8-0.8-16.2,13-19.6,17.9c-3.5-4-7.2-10.9-13.5-8.4
	c-6.5,2.6-7.7,14.6-12.5,18.9c-1.7,1.5-1.3,2.6-3.4,3.3c-2.6,0.9-6.2-3-9.6-1.8c-6.9,2.4-6.1,11.6-6.1,17.5
	c-8.1-1.2-13.8-1.8-16.5,7c-2.7,8.6-3.7,4.8-12.3,7.6c-7.4,2.4-8.4,9.4-9.6,16.3c-0.8,4.3-0.1,6,1.1,9.9c1.4,4.9,1.4,4.8-0.9,9.5
	c-4.1,8.2-4.4,17.2-5,26.2c-0.7,9.6-2.4,18.3,0.3,27.7c1.7,5.8,1.8,13.7,7.5,16.9c2.3,1.3,6.1,0.6,8,1.9c3.7,2.4,2.5,6.1,5,9.7
	c1.8,2.7,4.8,2.9,6.8,5.1c2.2,2.3,2.4,5.2,3.6,8.1c3.8,8.5,7.3,12.6-4.9,13.1c-7.5,0.3-15.6,2.6-23.1,1.9
	c-8.9-0.8-11.1-5.8-13.9-13.3c-14.2-38-21.8-79.2-40.6-115.3c-4.1-7.9-21-40.3-28.1-16.7c-6,19.9,1.9,44.2,4.9,64
	c-9.5-8.5-13-24-20.2-34.4c-5.3-7.7-22-26.7-31.8-15.8c-7.7,8.5-5.8,26.7-4.4,36.9c2.3,16.2,7.4,31.8,11.1,47.7
	c-4.7-6.1-6.9-13.5-10.2-20.4c-4.1-8.6-9.1-16.7-14.8-24.3c-5-6.6-10.6-12.7-16.8-18.3c-4.7-4.3-13-13.7-19.6-14.2
	c-17-1.3-11.7,29.9-9.1,38.9c5.4,18.5,11.2,36.5,15.4,55.4c8.2,36.9,18,72.9,24.1,110.3c1.3,8.3,2.9,14.9-0.3,22.9
	c-2.9,7-5.9,15.4-11.2,20.8c-11.9,12.1-22.3,25.5-31.1,40c-9.7,15.8-19.6,31.7-27.5,48.4c-3.6,7.7-6.6,16-10.8,23.4
	c-3.8,6.7-8.3,12-11,19.4c-12.8,35.4-22.2,70.1-26.6,107.6c-3.6,30.8-0.3,71.7,36.9,78.8c17.1,3.3,32.4-4.3,47.8-10.5
	c15.9-6.4,27.4-17,40.4-28.1c16.1-13.8,32.8-26.8,49.1-40.5s31.4-28.8,47.6-42.5c15.8-13.5,30.7-28.2,44.3-43.9
	c13.7-15.7,24.9-33.1,38.2-49c0,20.6-3.1,41-4,61.6c-0.8,18.8-0.8,37.7,0,56.5c0.8,18.8-4.2,36.8-4.3,55.5c0,18.3-0.8,36.6-1.2,54.9
	c-0.2,8.2-1.8,17.4,1.3,25.3c2.3,5.9,9.5,7.8,15.6,9.4c9.5,2.5,38.1-2.3,42.3,7.9c2.3,5.5,0,15.6,0.2,21.7c0.3,10.1,0.7,20.2,1,30.2
	c0.4,10.4,0.7,20.8,1.1,31.2c0.3,9.2,2.1,19.4,1,28.5c-0.9,7.8-5.5,6.8-12.7,7.2c-10.8,0.6-21.7,1.1-32.6,1.6
	c-15.9,0.7-32.6,0.4-47.8,2.3c-6.4,0.8-13.4,0.5-20.2,1.7c-8.5,1.6-16.3,2-24.9,2.4c-6.9,0.3-15.8-0.2-21.3,5
	c-1.9,1.8-2.3,3.9-3.7,5.9c-2.5,3.7-1.1,2.7-5.2,3.6c-16,3.1-31.7,7.2-47.1,12.4c-7.9,2.8-15.2,6.4-23.1,9c-6.9,2.3-12,5-15.4,11.9
	c-6.1,12.2-4.6,29.8-4.1,42.8c0.7,20.4,5.2,39.9,10.1,59.7c5.1,20.6,9.1,41.7,19,60.6c3.3,6.2,6.8,14.1,13.4,17.4
	c8.6,4.2,21.8,1.7,31.2,1.7c6.3,0,23.1,2.2,27.8-3.1c4.6-5.1,0-19.5-0.7-25.8c-2.3-22.2-6.3-44.6-6.3-67c5.1,7.6,14,20.7,22.9,9
	c2.2-2.9,1.3-4.2,5.2-5.8c2.9-1,5.9-1.4,9-1.3c3.2,0.2,4.4,1.5,7.3,0.9c2.6-0.6,5.5-2.9,8.5-3.6c36.9-8.8,73.5-18.2,110.5-26
	c9.8-2.1,8.4,5.4,9,13.9c0.7,9.4-0.7,18.8,0.7,28.1c1.1,8.1,2,15.9,0.4,24c-1.9,9.6-0.7,17.5,1.2,27c7.2,36.5,5.9,76,7.5,113.1
	c0.8,19.3-1,39,0.8,58.2c0.7,7.3,4.7,11.3,6.4,17.9c1.9,7.6-3.3,17.2-4.8,24.6c-3.1,14.7-8.7,35.8,1.4,48.7
	c5.4,6.9,12.6,7.9,20.7,10.3c9.7,2.8,19.2,6.1,28.9,8.7c35.4,9.7,73.8,11.6,110.1,16.9c8.7,1.2,17.4,1.3,26.1,0.6
	c5.5-0.4,19.1,1.4,23.7-1.9c2.5-1.8,1.2-4,2.5-6.1c1.8-3.1,3.9-4.3,7-6.2c5-3.2,10.8-5,11.6-11.5c2.1-16-17.9-24.5-28.6-31.4
	c-13.7-8.8-30.2-12.3-44.6-19.5c-8-4-15.7-8.5-23.4-13c-3.3-2-10.1-4.2-12.4-7.3s0-7.6,0.9-12.1c4.1-18.6,2.7-37.6,4.8-56.3
	s1.5-37.7,2.2-56.6c0.7-19.5,2.3-38.9,3.6-58.3c1.1-18,2.3-36.2,2.5-54.2c0.2-16.7,2.4-33,3-49.8c0.2-5.7-0.8-16,2.9-20.8
	c3.3-4.2,14.3-3.7,19.4-4.4c13.8-2,26.9-3.8,40.6-5c32.5-2.9,68.6-5,99.3-16.3c12.7-4.7,29.5-11,33.7-25.6
	c4.8-16.7-1.5-37.3-1.7-54.3c-0.2-18.2-5.5-36-9.5-53.7c-4.3-19-7-38.4-11.6-57.3c-4.2-17.4-11.1-32.8-17.6-49.3
	c-2.6-6.7-17.6-29.8-13-35.5c2.5-3.1,11.5-3.8,15.2-5.3c8-2.9,15.7-6.5,23.1-10.8c9.7-5.8,31-15.3,32-28
	c0.9-12.2-11.1-24.5-17.1-34.1c-9.8-15.4-22.2-28.9-31.5-44.7c-18.9-31.8-33.9-66.7-47.7-100.9c-7.2-17.9-9.6-34.8-10.8-54
	c20.9,0,42.2,2.6,63-0.3c22.6-3.2,45.3-8.6,67.7-13c40.9-8,80.1-17.1,117.9-35.3c35.4-17,71.4-35.6,100.7-62.5
	c15.2-13.9,30.6-28.1,43.7-44.1c13.5-16.4,23.6-35,34-53.3c11.4-20.3,20.7-41.6,27.8-63.8c1.4-4.5,1.4-10.1,3.3-14.4
	c2.1-4.8,5.9-4.9,9.9-7.4c5.6-3.5,9.3-15.3-0.4-17.1"/>
<path id="ink-shape-15" class="st1" d="M2041.8,502.9c4.8,4.1,25.4,18.6,32.1,15.1c8.2-4.3-4.8-17.4-8.3-20.7
	c-4.4-4.1-20.4-16.5-26.5-15.4C2026.9,484.2,2037.5,499.2,2041.8,502.9"/>
<path id="ink-shape-16" class="st1" d="M2052,651.5c2.7-5.3,9.9-7.3,13.2-12.4c4-6.2,5.8-11.6,4.4-19.2c-10.2,3.5-21.9,13.9-28.7,22
	c-5.7,6.8-13.9,21.1,1.1,21.1l-0.4-6.1C2045.8,657.6,2050.1,655.4,2052,651.5"/>
<path id="ink-shape-17" class="st1" d="M2003.2,563c6.6,1.9,12,1.6,18.8,1.8c4.9,0.1,11.6,2.8,15.6-0.2c-3.5-2,0.9-2.2,0-4.1
	c-0.7-1.7-2.1-1.1-3.3-2.5c-4-4.8-7.5-4.7-13.9-5.7c-5-0.8-12.2-2.6-17-0.1C1998.4,554.7,1996.4,561.1,2003.2,563"/>
<path id="ink-shape-18" class="st1" d="M2097.1,709.5c4.3-3.6,8.9-13.9,9.8-19.3c0.3-2.1-1.2-3.7-1-5.2c0.4-2.9,6.4-8.6,0.1-11
	c-5.5-2.1-10.7,14.3-12.1,17.9s-5.4,10.8-4.2,14.3C2090.7,709.1,2094.3,711.9,2097.1,709.5"/>
<path id="ink-shape-19" class="st1" d="M2148.2,487.6c3.9-3.6,6.3-7.6,5.9-12.6c-0.3-3.9-3.2-17.3-6.5-16.9
	C2136.7,459.4,2141.6,493.7,2148.2,487.6"/>
<path id="ink-shape-20" class="st1" d="M1918.8,1086c-0.9-3.3-4.1-23.3-9.8-21.9c-4.3,1,0.2,18.6,0.4,21c0.4,4.8-8.9,4.7-13.2,4
	c-6.9-1-6.3-5.1-7.3-11.3c-0.4-2.4-1.9-13-6.8-9.1c-3.3,2.6-1,15.8-0.7,18.8c1,10.4,2.1,28.1,8.3,37.6c2.5,3.8,4.7,5.6,7.3,0.8
	s-3.3-19.8-4.3-24.8c4.9,0.5,19-1.1,21.9,4c2.7,4.6-1.6,17.9,7,19c5.1,0.6,4.2-5.3,3.7-9.8C1924.2,1104.6,1921.3,1095.3,1918.8,1086
	"/>
<path id="ink-shape-21" class="st1" d="M1931.9,1081.4c-5.7,2.6,1.4,39.9,9.7,38.7C1951.4,1118.7,1937.3,1079,1931.9,1081.4"/>
<path id="ink-shape-22" class="st1" d="M1925.6,1069c-0.7,8.4,10.2,11.5,10.7,2.4C1936.8,1064.4,1926.4,1060.2,1925.6,1069"/>
<path id="ink-shape-23" class="st1" d="M1865.7,846.2c5,18.6,50.4,26.5,44.3,1.4c-3.1-12.5-15.8-1.4-24.8-2.9
	C1879.4,843.9,1862.2,833.1,1865.7,846.2"/>
<path id="ink-shape-24" class="st1" d="M1854.3,813.1c2.1-9.9-19.6-20.9-27.5-18.2c-11.5,4-11.5,29.6-2.7,36.4
	c1.2,0.9,4.7,3,6.4,1.3c2.8-2.7-0.3-2-0.9-4.6c-1-4.3-4.3-9.8-1-14.6C1834.9,804.2,1851.3,827.4,1854.3,813.1"/>
<path id="ink-shape-25" class="st1" d="M1788,861.4c-7.8-0.5-14.3,11.7-2.7,10.7c2.2-0.2,7-0.8,8.2-3.1
	C1795.6,865.1,1791.4,861.5,1788,861.4"/>
<path id="ink-shape-26" class="st1" d="M2168.3,571.3c-2.7-3.9-8.3-10.1-13.1-6.2c-4.3,3.5-3.6,12-1.9,16.2
	c4.4,11.4,14.9,21.6,26.7,15C2175.9,588,2173.6,578.9,2168.3,571.3"/>
</svg>
