<svg id="Capa_1" data-name="Capa 1" xmlns="http://www.w3.org/2000/svg" viewBox="0 0 300 70"><defs><style>.cls-1{fill:#fff;}</style></defs><title>logoClaroHor</title><path class="cls-1" d="M40.51,26.33a2.62,2.62,0,0,0,.43-1Q43.88,16.8,46.8,8.25a10.24,10.24,0,0,1,5.63-6.34A10.36,10.36,0,0,1,66.12,7.12a10.19,10.19,0,0,1,.8,2.71,11.11,11.11,0,0,1-.6,5.33c-1.57,4.61-3.18,9.22-4.76,13.83L54.11,50.77c-1.14,3.35-2.36,6.68-3.46,10a10.52,10.52,0,0,1-11.8,7,10.38,10.38,0,0,1-8.52-7.24c-1.07-3-2.07-6-3.12-9Q22.13,36.83,17,22.12c-.85-2.46-1.75-4.89-2.58-7.35a10,10,0,0,1,.7-8.32,10,10,0,0,1,8.13-5.34A10.45,10.45,0,0,1,34.1,8.25c1.91,5.79,4,11.53,6,17.29A1.16,1.16,0,0,0,40.51,26.33Zm.39,37,.29-.2c2.41-2.38,4.69-4.89,6.9-7.45a21.07,21.07,0,0,0,2.57-3.38A10.1,10.1,0,0,0,51.72,45c-.65-3-2.18-5.31-5.37-6.09-1.85-.46-4.52-.09-5.52,2.07a.34.34,0,0,1-.39.25c-.18-.27-.39-.55-.57-.84A3.07,3.07,0,0,0,38.1,39a6.09,6.09,0,0,0-6.25,1.34,8.56,8.56,0,0,0-2.6,5.53,9.9,9.9,0,0,0,2.27,7.9c1,1.23,2,2.53,3.11,3.7a79.86,79.86,0,0,0,5.56,5.78.41.41,0,0,0,.56.15h0a.45.45,0,0,0,.14-.1ZM25.22,15.42c.07.1.11.2.16.22,2.67.55,4.44-.07,5.69-2.18,2.07-3.43,0-7.19-2.46-8.57A8.09,8.09,0,0,0,23.16,4a7.9,7.9,0,0,0-6.58,7.67,10.51,10.51,0,0,0,3.36,7.56,4.91,4.91,0,0,0,4.78,1.35c1-.23,1.92-.41,2.88-.6,2.66-.52,5.3-.7,7.86.48a3.34,3.34,0,0,0,.32-.15l-2.37-6-.79,1a7,7,0,0,1-6.39,3.08,8.2,8.2,0,0,1-7-5.83,4.71,4.71,0,0,1,1.41-4.95A6.21,6.21,0,0,1,25,6.16a4.64,4.64,0,0,1,.19,9.26Zm20,4.91a13,13,0,0,1,7.08-.56c1.35.25,2.71.47,4,.77a5.08,5.08,0,0,0,4.84-1.48,10.6,10.6,0,0,0,3-5.62,7.86,7.86,0,0,0-.44-4.86,8.18,8.18,0,0,0-9.4-4.5,6.66,6.66,0,0,0-5.2,7,5,5,0,0,0,2.43,4.1,4.47,4.47,0,0,0,4.19.17,3.59,3.59,0,0,1-.72-.11,4.43,4.43,0,0,1-3.53-4.55,4.54,4.54,0,0,1,3.64-4.47A6.33,6.33,0,0,1,60.68,8a4.11,4.11,0,0,1,1.23,3,6.82,6.82,0,0,1-2.73,5.51c-3.14,2.64-7.85,2.83-10.71-1a2.86,2.86,0,0,0-1-1.1ZM34.46,30.21a2.4,2.4,0,0,0-.3-1.68c-1.73-3.5-6.95-3.78-9.29-.5a8.62,8.62,0,0,0-1.33,3.38,5.09,5.09,0,0,0,1.61,5.05A8.22,8.22,0,0,0,38.4,27.85a7.09,7.09,0,0,0-5.73-5.45,11.21,11.21,0,0,0-6.38.52,6.93,6.93,0,0,1-5.4-.12c-.22-.09-.43-.35-.79-.14a50.47,50.47,0,0,0,1.84,4.74,14.66,14.66,0,0,1,2.52-2.64c4.1-3.11,11.29-2.1,12.73,4.17a6.37,6.37,0,0,1-6.74,8.39,4.6,4.6,0,0,1-4.29-2.63,4.78,4.78,0,0,1,.55-5.32c2.19-2.88,6.4-2.42,7.51.63C34.27,30.1,34.32,30.21,34.46,30.21Zm12,.22a1.33,1.33,0,0,0,.43-.68,4,4,0,0,1,4.82-2.14A5.12,5.12,0,0,1,55.34,32a4.86,4.86,0,0,1-3,5,6.42,6.42,0,0,1-4.24,0c-2.36-.76-4.05-2.18-4.47-4.81A7.8,7.8,0,0,1,43.76,29a7,7,0,0,1,5.31-5.59c3.88-.93,7,.35,9.5,3.43.16.2.22.54.65.43.27-.73.56-1.51.81-2.3a5.49,5.49,0,0,0,.66-2.48l-1,.27a8.77,8.77,0,0,1-5.34.11,21.25,21.25,0,0,0-3.71-.6,7.31,7.31,0,0,0-4.54,1c-3.29,1.89-4.24,5-3.7,8.61a8.1,8.1,0,0,0,9.37,6.59A7.76,7.76,0,0,0,53.4,38c2.88-1.11,4.3-3.11,4.05-6.16a6.29,6.29,0,0,0-5.11-6c-2.86-.47-6.06,1.66-5.89,4.64Zm3.22-.72a2.85,2.85,0,0,0-.07,5.7,2.9,2.9,0,0,0,2.88-2.83,2.82,2.82,0,0,0-2.73-2.87ZM28.35,32.43a2.76,2.76,0,0,0,2.49,3h.31a2.86,2.86,0,0,0,.06-5.72,2.71,2.71,0,0,0-2.89,2.51,1.48,1.48,0,0,0,0,.21ZM35,62.18a3.23,3.23,0,0,0,1.48,2.91A6.28,6.28,0,0,0,40,66.3a6.36,6.36,0,0,0,4.32-1.23,3.15,3.15,0,0,0,1.46-2.58A8.74,8.74,0,0,1,35,62.18ZM24.32,8.65a2.27,2.27,0,0,0-2.48,1.77,4,4,0,0,0,.67,3c.11.19.34.31.49.15.74-.8,1.82-.88,2.71-1.34a1.56,1.56,0,0,0,.83-2l-.06-.13A2.09,2.09,0,0,0,24.32,8.65Zm32.4,0a2.27,2.27,0,0,0-2.34,1.89c-.14,1,.43,1.7,1.69,2a3.45,3.45,0,0,1,1.76.87c.31.32.56.16.74-.17a4.78,4.78,0,0,0,.6-1.76,2.41,2.41,0,0,0-2-2.79A2.11,2.11,0,0,0,56.72,8.65ZM27.89,45.31a35.92,35.92,0,0,0,2.32-4.16,26.14,26.14,0,0,0-4-.95C26.75,41.9,27.28,43.47,27.89,45.31ZM53,45l1.75-4.75a18.43,18.43,0,0,0-3.89.74ZM40.43,34.14a6.35,6.35,0,0,0-1.07,2.42,8.84,8.84,0,0,0,2.24-.07A9.92,9.92,0,0,0,40.43,34.14Z"/><path class="cls-1" d="M40.9,63.29a.43.43,0,0,1-.58.13.49.49,0,0,1-.12-.13Z"/><path class="cls-1" d="M40.92,63.29h-.74a1.64,1.64,0,0,0-.38-1.1,67.73,67.73,0,0,0-6-8.19,12,12,0,0,1-2.71-5,7,7,0,0,1,1.77-6.77,3.32,3.32,0,0,1,4.58-.72,3.63,3.63,0,0,1,1.7,4.27,3.83,3.83,0,0,1-.86,1.66,2.38,2.38,0,0,1-4.14-2.1,2.67,2.67,0,0,1,.1-.49,2.49,2.49,0,0,0-.91,3.4A2.53,2.53,0,0,0,34,49a3.58,3.58,0,0,0,4.66-.2,7.82,7.82,0,0,0,1.83-2.55,10.8,10.8,0,0,0,1.81,2.49,3.52,3.52,0,0,0,4.35.52c1.86-1,2-3.16.18-4.59a4,4,0,0,1,0,2,2.37,2.37,0,0,1-3,1.44,2.31,2.31,0,0,1-1-.65,4.23,4.23,0,0,1-.8-4.29,3.92,3.92,0,0,1,3.57-2.3,3.7,3.7,0,0,1,2.66,1.38,7.33,7.33,0,0,1,1.24,8,16,16,0,0,1-3,4.53,59.09,59.09,0,0,0-5.31,7.37A1.66,1.66,0,0,0,40.92,63.29Z"/><path class="cls-1" d="M140.16,13.19V33.54c0,1.89,0,1.89-1.9,1.91h-2.84c-.82,0-1.27-.36-1.27-1.21V2.81c-.06-.93.29-1.4,1.27-1.33.67.05,1.36,0,2,0,3.33,0,3.31,0,5,2.85L153.91,23a.94.94,0,0,0,.71.54c.3-.42.17-1,.17-1.46V3.4c0-1.9,0-2,1.87-1.91,1.32,0,3-.6,3.88.37s.25,2.47.25,3.74V34.2c.05.83-.26,1.27-1.15,1.27h-4.26c-1,.05-1.39-.68-1.82-1.36l-5.85-9.48-6.8-11a.6.6,0,0,0-.74-.44Z"/><path class="cls-1" d="M250.68,17.83H256c1.2,0,1.44.28,1.37,1.49-.56,9.36-7.85,16.46-16.41,16.68-8.39.2-15.51-6.35-16.74-14.64a17.38,17.38,0,0,1,5.33-16A16.21,16.21,0,0,1,252.4,6l.46.51c1.09,1.3,1.08,1.42-.35,2.2L252,9c-1,.54-2,1.41-3,1.53s-1.75-1.27-2.68-1.89a10.12,10.12,0,0,0-13.4,1.89,12.13,12.13,0,0,0,1.17,17c4.69,4.09,12.31,2.86,15.23-2.54.76-1.41.66-1.6-.91-1.64h-3c-.84,0-1.17-.29-1.24-1.17-.33-4.3-.36-4.3,4-4.3h2.63Z"/><path class="cls-1" d="M191.39,35.45a68,68,0,0,1,2.34-6.79c3.07-8.5,6.2-17,9.27-25.5.74-2.06.92-1.67,2.44-1.69,1.22,0,2.44.07,3.65,0A1.63,1.63,0,0,1,211,2.77v0c1.27,3.69,2.68,7.35,4,11q3.5,9.62,7,19.22c.85,2.39.85,2.4-1.76,2.41-3.86,0-3.84,0-5.15-3.65-1-2.83-.42-2.36-3.34-2.39H201.41a1.77,1.77,0,0,0-2,1.44c-.31,1.11-.85,2.27-1.23,3.42a1.46,1.46,0,0,1-1.6,1.22C194.9,35.42,193.28,35.45,191.39,35.45ZM212,23.28c-1.63-4.48-3.21-8.79-4.78-13.12h-.43c-1.55,4.31-3.25,8.55-4.65,13.12Z"/><path class="cls-1" d="M261.53,18.31v-15c0-1.78,0-1.81,1.79-1.81h17.86c1.69,0,1.76,0,1.71,1.66,0,1.4.63,3.15-.37,4.09s-2.59.24-3.93.26h-9.53c-1.45,0-1.47,0-1.5,1.48v3.85c0,1,.42,1.3,1.34,1.27h9.74c.77,0,1.1.34,1.09,1.11,0,1.22-.05,2.43,0,3.65,0,1-.43,1.27-1.35,1.27h-8.93c-1.87,0-1.88,0-1.89,1.91s0,3.92,0,5.89c0,1.43.05,1.47,1.5,1.48h12.78c.79,0,1.08.38,1.07,1.11V34c0,1.15-.42,1.49-1.44,1.46H263.2c-1.64,0-1.69,0-1.69-1.72Q261.52,26,261.53,18.31Z"/><path class="cls-1" d="M101,27.46c.34-.82.69-1.6,1-2.39q4-11,8-21.9c.61-1.69.61-1.69,2.44-1.69h3.25c.82,0,1.12.37.88,1.14s-.56,1.67-.85,2.49q-5,13.82-10,27.62c-1,2.72-1,2.73-3.83,2.73-1.08,0-2.17-.07-3.25,0a1.84,1.84,0,0,1-2.19-1.41v0c-1.6-4.52-3.25-9-4.89-13.54l-6-16.37c-.14-.38-.29-.77-.4-1.15-.37-1.27-.29-1.43,1-1.48h3c1.89,0,1.89,0,2.56,1.87Q95.9,14.67,100,26C100.19,26.48,100.19,27.09,101,27.46Z"/><path class="cls-1" d="M181.9,21.51V33.68c0,1.73,0,1.79-1.63,1.76-1.39,0-3.13.62-4.08-.36s-.28-2.59-.28-3.92V9.48c0-1.94,0-1.94-2.06-2H167c-1.45,0-1.46,0-1.5-1.49V2.54c0-.76.32-1.13,1.1-1.09h24.51c.8,0,1.06.4,1,1.13V6.23c0,1-.46,1.27-1.36,1.27h-7.1c-1.74,0-1.76,0-1.76,1.83Q181.89,15.44,181.9,21.51Z"/><path class="cls-1" d="M127.89,18.62V33.2c0,2.42.1,2.26-2.35,2.26h-2.23c-1,.06-1.55-.27-1.44-1.36V2.72c-.08-1,.42-1.27,1.34-1.27,1.08.05,2.16,0,3.24,0,1.39,0,1.43.06,1.43,1.55V18.62Z"/><path class="cls-1" d="M150.42,67.71c-1.6-2.23-2.09-4.71-3.59-6.94-1.59,2-2.17,4.46-3.48,6.37-.71.08-.78-.45-.95-.8q-3.17-6.66-6.26-13.34a4.51,4.51,0,0,1-.39-1,.62.62,0,0,1,.23-.54.72.72,0,0,1,.61,0c.62.35.76,1,1,1.61q2.44,5.19,4.87,10.4a2,2,0,0,0,.79,1.09,34.89,34.89,0,0,0,2.39-5.06,3,3,0,0,0-.37-2.5c-.73-1.49-1.46-3-2.16-4.49-.17-.35-.56-.8.06-1.08a.83.83,0,0,1,1.06.45h0c.42.84.82,1.7,1.21,2.55l1.11,2.43c1-.57,1.16-1.57,1.56-2.36s.77-1.71,1.18-2.56c.19-.4.54-.77,1-.55s.27.74.1,1.1c-.71,1.51-1.4,3-2.19,4.49a3.24,3.24,0,0,0-.11,3.28c.69,1.33,1.3,2.72,2,4.17a3.64,3.64,0,0,0,1.46-2.06c1.47-3.14,2.91-6.29,4.36-9.44.18-.4.38-.78.59-1.16a.6.6,0,0,1,.78-.36h.13c.3.18.22.51.11.78-.55,1.26-1.1,2.52-1.68,3.76C154.11,59.85,152.33,63.64,150.42,67.71Z"/><path class="cls-1" d="M175.18,53.66c.07-.62.11-1.19.19-1.76a.59.59,0,0,1,.6-.51.65.65,0,0,1,.74.55h0V52a11.3,11.3,0,0,1,0,1.3V65.42a9.43,9.43,0,0,1-.06,1.3.6.6,0,0,1-.58.54.65.65,0,0,1-.77-.5v-.05c-.13-.56.08-1.16-.24-1.71-.73-.2-1,.48-1.39.8a8.34,8.34,0,0,1-8.95,1.2,8.08,8.08,0,0,1-5-7.52c-.11-3.42,1.65-5.93,4.62-7.53,3.16-1.71,6.26-1.26,9.16.79a15.16,15.16,0,0,1,1.17,1A1.86,1.86,0,0,1,175.18,53.66Zm-14,5.67a7.17,7.17,0,1,0,14.34,0h0a7.3,7.3,0,0,0-7-7.16,7.17,7.17,0,0,0-7.33,7h0v.16Z"/><path class="cls-1" d="M209.52,65c3.59,2.61,6.19,2.2,10.44-1.59.59,1.29-.16,2-1,2.71a8.64,8.64,0,0,1-12.08-1.83c-.18-.25-.35-.5-.51-.77A8.14,8.14,0,0,1,208.27,53a8.6,8.6,0,0,1,11.31.28c.73.67.4,1.07-.11,1.58L211,63.22A5.1,5.1,0,0,0,209.52,65Zm-1.27-1.25c.13,0,.31,0,.39-.13,3-2.94,6-5.88,8.94-8.83.81-.79.37-1.19-.37-1.62-3.08-1.86-6.51-1.2-9.11,1.75-2.27,2.57-2.21,5.89.15,8.8Z"/><path class="cls-1" d="M199.83,52.16v8.69c0,3.17.85,4.43,3.77,5.58h.22c.45.1.9.25.68.84s-.58.39-.93.32a6,6,0,0,1-4.86-4.12,9,9,0,0,1-.4-2.78V42.88c0-.69-.46-1.93.68-1.93,1.36,0,.74,1.33.76,2C199.87,46.09,199.83,49.13,199.83,52.16Z"/><path class="cls-1" d="M222.54,63.77c1.08,1.91,2.39,2.79,4.23,2.78a4.21,4.21,0,0,0,3.87-2.32c.58-1.48.14-2.92-1.26-4.25A9,9,0,0,0,227,58.45,9.12,9.12,0,0,1,224,56a2.93,2.93,0,0,1,.32-4.13,2.34,2.34,0,0,1,.31-.24c1.53-1.1,4-.9,4.93.37a.94.94,0,0,1,0,1.22c-.69,0-1.07-.68-1.69-.91a2.26,2.26,0,0,0-2.87.83c-.69,1-.08,1.79.56,2.48a13.19,13.19,0,0,0,3,2.08,8.26,8.26,0,0,1,2.71,2.09,4.61,4.61,0,0,1,.35,5.29,5.73,5.73,0,0,1-6,2.56,5,5,0,0,1-2.81-1.52A1.92,1.92,0,0,1,222.54,63.77Z"/><path class="cls-1" d="M189.57,58c0-2.45-.07-4.91,0-7.36a6.05,6.05,0,0,1,5.26-5.72c.36,0,.75-.08.91.35s-.13.67-.49.81-.84.23-1.24.4a4.31,4.31,0,0,0-3,4.11v7.79c0,1.58.1,1.62,1.81,1.68.79,0,1.58,0,2.38,0a.55.55,0,0,1,.56.53.51.51,0,0,1-.47.55h-.07c-1,0-2,.06-3,.06-.81,0-1.19.35-1.18,1.17V65.9c0,.54.16,1.31-.68,1.36-1,0-.79-.84-.79-1.43V58Z"/><path class="cls-1" d="M180.81,58.14V50.56A6,6,0,0,1,185.93,45c.39,0,.76,0,.84.46s-.26.63-.63.71c-3.45.81-4.22,3.3-4.11,6.41.07,2,.05,4.05,0,6.07,0,1.14.45,1.55,1.54,1.49h2.6a.69.69,0,0,1,.77.6h0c0,.4-.37.54-.75.55h-1.95c-2.19,0-2.19,0-2.2,2.29V66.4c0,.46-.1.91-.7.83s-.5-.45-.5-.83V58.16Z"/></svg>