<svg xmlns="http://www.w3.org/2000/svg" viewBox="0 0 292.8 96.02"><defs><style>.cls-1{fill:#fff;}</style></defs><title>Recurso 1</title><g id="Capa_2" data-name="Capa 2"><g id="Capa_1-2" data-name="Capa 1"><path class="cls-1" d="M38.22,36.3a3.8,3.8,0,0,0,.62-1.41l8.4-24.48A14.69,14.69,0,0,1,55.3,1.32,14.86,14.86,0,0,1,76.07,12.66a15.78,15.78,0,0,1-.87,7.63C73,26.91,70.65,33.51,68.38,40.12Q63,55.74,57.71,71.33c-1.64,4.8-3.39,9.57-5,14.39A15.06,15.06,0,0,1,35.84,95.79c-6.18-1.06-10.14-4.59-12.2-10.38-1.54-4.3-3-8.63-4.47-13Q11.87,51.37,4.54,30.27C3.32,26.74,2,23.26.85,19.74a14.31,14.31,0,0,1,1-11.92A14.33,14.33,0,0,1,13.5.16,15,15,0,0,1,29,10.4c2.75,8.3,5.7,16.52,8.58,24.77C37.72,35.52,37.72,36,38.22,36.3Zm.56,53a3.3,3.3,0,0,0,.41-.29c3.46-3.41,6.73-7,9.89-10.67a30.42,30.42,0,0,0,3.68-4.84A14.48,14.48,0,0,0,54.28,63c-.92-4.29-3.12-7.61-7.69-8.73-2.66-.65-6.48-.12-7.91,3a.5.5,0,0,1-.56.35c-.26-.38-.55-.78-.82-1.21a4.42,4.42,0,0,0-2.53-1.89,8.74,8.74,0,0,0-9,1.93,12.23,12.23,0,0,0-3.72,7.91,14.27,14.27,0,0,0,3.25,11.33c1.48,1.77,2.88,3.63,4.46,5.3a109.29,109.29,0,0,0,8,8.28.59.59,0,0,0,.82.21A.61.61,0,0,0,38.78,89.27ZM16.31,20.68c.1.14.15.28.23.3,3.82.79,6.35-.1,8.16-3.11,2.95-4.92-.05-10.3-3.53-12.28a11.45,11.45,0,0,0-7.81-1.33,11.3,11.3,0,0,0-9.43,11A15.08,15.08,0,0,0,8.75,26.08,7.05,7.05,0,0,0,15.6,28c1.36-.33,2.75-.59,4.13-.86,3.81-.74,7.59-1,11.25.69.06,0,.19-.08.46-.21L28,19.05c-.48.64-.8,1.08-1.13,1.51-2.31,3-5.19,4.71-9.15,4.41-4.41-.33-9-4-10-8.35-.59-2.67-.2-5.19,2-7.1A8.87,8.87,0,0,1,16,7.4c5.46.25,7.55,5.95,5.47,9.91A6.73,6.73,0,0,1,16.31,20.68Zm28.62,7a18.68,18.68,0,0,1,10.15-.8c1.93.35,3.88.67,5.79,1.1a7.29,7.29,0,0,0,6.94-2.11,15.33,15.33,0,0,0,4.37-8.07,11.3,11.3,0,0,0-.62-7A11.74,11.74,0,0,0,58.08,4.42a9.58,9.58,0,0,0-7.46,10.1,7.2,7.2,0,0,0,3.49,5.86,6.39,6.39,0,0,0,6,.25c-.34,0-.69-.09-1-.16A6.34,6.34,0,0,1,54,14c0-2.44,1.74-5.93,5.21-6.4a9.07,9.07,0,0,1,7.88,2.55,5.89,5.89,0,0,1,1.77,4.26A9.8,9.8,0,0,1,65,22.25C60.47,26,53.73,26.3,49.62,20.8a4.07,4.07,0,0,0-1.39-1.57ZM29.55,41.87a3.44,3.44,0,0,0-.44-2.42c-2.47-5-9.94-5.41-13.3-.7a12.35,12.35,0,0,0-1.91,4.84,7.25,7.25,0,0,0,2.31,7.23A11.63,11.63,0,0,0,34,48a11.8,11.8,0,0,0,1.17-9.47A10.13,10.13,0,0,0,27,30.68a16,16,0,0,0-9.14.75,10,10,0,0,1-7.73-.18c-.32-.14-.62-.5-1.14-.2a71.81,71.81,0,0,0,2.64,6.79,22.07,22.07,0,0,1,3.6-3.78c5.89-4.45,16.19-3,18.25,6,.63,2.78.7,5.64-1.12,8.11-2.09,2.88-5.05,4-8.54,3.91a6.61,6.61,0,0,1-6.15-3.78,6.83,6.83,0,0,1,.79-7.62c3.15-4.12,9.18-3.47,10.77.9.07.15.13.31.34.31Zm17.18.32a1.86,1.86,0,0,0,.62-1,5.72,5.72,0,0,1,6.91-3.07,7.32,7.32,0,0,1,5.21,6.22,7,7,0,0,1-4.24,7.21,9.37,9.37,0,0,1-6.14.07c-3.38-1.09-5.79-3.13-6.4-6.89a11.41,11.41,0,0,1,.18-4.69c1-4.08,3.42-7,7.62-8,5.56-1.34,10.08.5,13.61,4.92.23.28.31.76.94.62.37-1.06.8-2.17,1.15-3.3s1.14-2.17.94-3.56c-.53.15-1,.26-1.39.39a12.61,12.61,0,0,1-7.64.16,29.23,29.23,0,0,0-5.32-.87,10.64,10.64,0,0,0-6.51,1.39C41.56,34.5,40.19,39,41,44.13a11.61,11.61,0,0,0,15.72,8.78c4.13-1.58,6.16-4.46,5.8-8.82-.29-3.53-2.42-7.77-7.31-8.56-4.11-.67-8.7,2.38-8.45,6.66Zm4.62-1a4.08,4.08,0,1,0-.1,8.16,4.13,4.13,0,0,0,4.12-4,4,4,0,0,0-3.91-4.12Zm-30.56,3.9a4,4,0,0,0,4,4.26,4.15,4.15,0,0,0,4.15-4,4.09,4.09,0,0,0-4-4.14,3.9,3.9,0,0,0-4.16,3.9Zm9.6,42.63a4.62,4.62,0,0,0,2.12,4.17,9,9,0,0,0,5,1.73,9.17,9.17,0,0,0,6.2-1.76,4.49,4.49,0,0,0,2.09-3.69C40.71,91.8,34.07,91.05,30.39,87.68ZM15,11a3.26,3.26,0,0,0-3.55,2.54,5.61,5.61,0,0,0,.95,4.33c.16.27.49.44.71.21,1.06-1.15,2.61-1.25,3.88-1.91A2.24,2.24,0,0,0,18.12,13,3,3,0,0,0,15,11Zm46.43,0a3.27,3.27,0,0,0-3.36,2.71c-.19,1.39.63,2.44,2.42,2.92A5.07,5.07,0,0,1,63,17.84c.45.47.8.24,1.06-.23A6.85,6.85,0,0,0,65,15.08,3.45,3.45,0,0,0,61.45,11ZM20.13,63.5a51,51,0,0,0,3.33-6,36,36,0,0,0-5.77-1.37C18.5,58.62,19.26,60.87,20.13,63.5Zm35.94-.44,2.51-6.81A26.55,26.55,0,0,0,53,57.31ZM38.1,47.5A9.24,9.24,0,0,0,36.57,51a12.38,12.38,0,0,0,3.21-.1A14.09,14.09,0,0,0,38.1,47.5Z"/><path class="cls-1" d="M38.78,89.27a.6.6,0,0,1-.83.18.77.77,0,0,1-.18-.18h1Z"/><path class="cls-1" d="M38.81,89.27H37.75a2.4,2.4,0,0,0-.54-1.57A97.33,97.33,0,0,0,28.66,76a17,17,0,0,1-3.88-7.23A9.93,9.93,0,0,1,27.32,59c2-2.11,3.88-2.47,6.56-1a5.18,5.18,0,0,1,2.43,6.11,5.28,5.28,0,0,1-1.23,2.38,3.55,3.55,0,0,1-4,.93,3.61,3.61,0,0,1-1.94-3.93c0-.22.08-.43.14-.71-2.73,1.35-2.17,4.72-.36,6.08a5.14,5.14,0,0,0,6.69-.29,11.41,11.41,0,0,0,2.61-3.65,15.69,15.69,0,0,0,2.6,3.57,5.08,5.08,0,0,0,6.23.75c2.66-1.5,2.84-4.54.26-6.59a5.49,5.49,0,0,1,0,2.82,3.39,3.39,0,0,1-5.66,1.14,6,6,0,0,1-1.15-6.15,5.66,5.66,0,0,1,5.11-3.3,5.35,5.35,0,0,1,3.81,2,10.49,10.49,0,0,1,1.78,11.52,23.11,23.11,0,0,1-4.23,6.5,84.83,84.83,0,0,0-7.6,10.56A2.34,2.34,0,0,0,38.81,89.27Z"/><path class="cls-1" d="M141.85,23.1V44.59c0,2,0,2-2,2h-3c-.86,0-1.34-.38-1.34-1.28V13.19c0-.36,0-.72,0-1.07-.07-1,.31-1.47,1.34-1.4.71,0,1.43,0,2.14,0,3.52,0,3.5,0,5.33,3q6,9.86,12.06,19.71a1,1,0,0,0,.75.58,2.63,2.63,0,0,0,.18-1.55V12.76c0-2,0-2.08,2-2,1.4,0,3.13-.64,4.1.39s.27,2.6.27,3.94c0,9.57,0,19.15,0,28.72v1.5c.05.87-.27,1.34-1.22,1.34-1.5,0-3-.06-4.5,0-1.09,0-1.47-.72-1.92-1.44l-6.18-10L142.64,23.5A.64.64,0,0,0,141.85,23.1Z"/><path class="cls-1" d="M258.58,28c1.86,0,3.71,0,5.57,0,1.26,0,1.51.29,1.44,1.57C265,39.46,257.3,47,248.26,47.18c-8.86.22-16.38-6.7-17.68-15.45a18.39,18.39,0,0,1,5.63-16.92A17.11,17.11,0,0,1,260.88,16c1.16,1.37,1.14,1.5-.36,2.32l-.57.3c-1.07.57-2.1,1.48-3.22,1.62s-1.85-1.34-2.83-2a10.69,10.69,0,0,0-14.15,2A12.81,12.81,0,0,0,241,38.18c4.95,4.32,13,3,16.08-2.68.8-1.48.7-1.69-1-1.73q-1.61,0-3.21,0c-.89,0-1.24-.31-1.31-1.24C251.23,28,251.21,28,255.8,28h2.78Z"/><path class="cls-1" d="M196,46.61a71.35,71.35,0,0,1,2.48-7.18c3.25-9,6.55-17.94,9.79-26.93.78-2.18,1-1.76,2.58-1.78,1.29,0,2.58.06,3.85,0s1.63.38,2,1.42c1.34,3.9,2.83,7.77,4.25,11.65l7.37,20.3c.89,2.53.89,2.54-1.86,2.54-4.08,0-4.06,0-5.44-3.86-1.07-3-.45-2.48-3.53-2.51-3.64,0-7.28,0-10.92,0-1.19,0-1.84.33-2.17,1.51s-.89,2.41-1.29,3.62c-.29.84-.72,1.34-1.69,1.29C199.67,46.57,198,46.61,196,46.61Zm21.8-12.86c-1.73-4.73-3.4-9.29-5.06-13.85h-.44c-1.64,4.54-3.44,9-4.92,13.85Z"/><path class="cls-1" d="M270,28.5V12.64c0-1.89,0-1.91,1.89-1.91h18.86c1.79,0,1.86,0,1.81,1.75,0,1.48.67,3.32-.39,4.32s-2.73.26-4.15.28c-3.36,0-6.7,0-10.07,0-1.53,0-1.55,0-1.59,1.56,0,1.34,0,2.72,0,4.08,0,1,.45,1.37,1.42,1.34,2.94,0,5.86,0,8.79,0h1.5c.81,0,1.17.36,1.15,1.17,0,1.28-.05,2.57,0,3.85,0,1.07-.45,1.34-1.43,1.34-3.13,0-6.29,0-9.43,0-2,0-2,0-2,2s0,4.15,0,6.22c0,1.51,0,1.55,1.58,1.56,4,0,8,0,12,0h1.51c.83,0,1.13.4,1.13,1.18,0,1.22,0,2.43,0,3.65s-.45,1.57-1.53,1.53c-1.43,0-2.86,0-4.29,0h-15c-1.74,0-1.79,0-1.79-1.81Q270,36.64,270,28.5Z"/><path class="cls-1" d="M100.45,38.16c.36-.86.73-1.68,1-2.52q4.22-11.55,8.41-23.13c.65-1.78.65-1.78,2.59-1.78h3.43c.86,0,1.18.39.92,1.2s-.58,1.76-.89,2.63q-5.3,14.6-10.59,29.18c-1,2.86-1,2.87-4,2.87-1.15,0-2.29-.07-3.43,0a1.93,1.93,0,0,1-2.21-1.54C94,40.3,92.23,35.54,90.51,30.78q-3.14-8.66-6.3-17.3c-.14-.4-.29-.81-.41-1.22-.4-1.34-.3-1.51,1-1.56,1.07,0,2.14,0,3.22,0,2,0,2,0,2.7,2q4.33,12,8.7,23.94C99.63,37.13,99.63,37.78,100.45,38.16Z"/><path class="cls-1" d="M185.93,31.88V44.73c0,1.83,0,1.9-1.71,1.86-1.47,0-3.31.66-4.32-.38s-.29-2.73-.3-4.14c0-7.28,0-14.56,0-21.84V19.16c0-2.05,0-2.06-2.17-2.07h-7.28c-1.53,0-1.54-.05-1.58-1.57,0-1.22,0-2.43,0-3.64,0-.8.34-1.19,1.16-1.15.36,0,.71,0,1.07,0h23.77c.36,0,.72,0,1.07,0,.85,0,1.12.42,1.11,1.19,0,1.29-.05,2.58,0,3.86,0,1.07-.48,1.34-1.44,1.34-2.5,0-5,0-7.49,0-1.84,0-1.87,0-1.87,1.93C185.92,23.32,185.93,27.6,185.93,31.88Z"/><path class="cls-1" d="M128.89,28.83V44.22c0,2.57.1,2.39-2.48,2.39-.79,0-1.58,0-2.36,0-1,.07-1.64-.28-1.53-1.43a9.55,9.55,0,0,0,0-1.07V13.32c0-.45,0-.86,0-1.28-.08-1.06.45-1.34,1.42-1.34,1.14,0,2.29,0,3.43,0,1.47,0,1.5.06,1.51,1.63,0,3.92,0,7.84,0,11.76Z"/><path class="cls-1" d="M136.67,91.13c-2.45-3.41-3.21-7.21-5.5-10.63-2.44,3.12-3.33,6.83-5.34,9.77-1.08.12-1.19-.69-1.45-1.23q-4.86-10.22-9.6-20.45a7,7,0,0,1-.59-1.54.92.92,0,0,1,.36-.81,1.08,1.08,0,0,1,.93,0c1,.52,1.17,1.56,1.58,2.46q3.73,8,7.46,16a2.92,2.92,0,0,0,1.21,1.65c1.6-2.4,2.48-5.15,3.66-7.74.6-1.31,0-2.61-.57-3.83-1.11-2.29-2.23-4.58-3.31-6.89-.26-.54-.85-1.23.1-1.65a1.26,1.26,0,0,1,1.62.69s0,0,0,.06c.64,1.29,1.25,2.6,1.86,3.9s1.09,2.4,1.69,3.73c1.57-.88,1.77-2.41,2.4-3.61S134.37,68.33,135,67c.31-.61.84-1.18,1.58-.84s.41,1.13.14,1.69c-1.08,2.31-2.14,4.63-3.34,6.87a5,5,0,0,0-.18,5c1.06,2,2,4.17,3.06,6.38,1.46-.86,1.74-2.08,2.23-3.14,2.25-4.82,4.45-9.65,6.68-14.47.28-.61.58-1.2.91-1.78a.94.94,0,0,1,1.21-.56.56.56,0,0,1,.17.09c.46.27.35.78.17,1.19-.84,1.93-1.68,3.86-2.56,5.76C142.32,79.1,139.59,84.9,136.67,91.13Z"/><path class="cls-1" d="M174.62,69.61c.1-1,.17-1.83.29-2.7a.88.88,0,0,1,.91-.78A1,1,0,0,1,177,67a.22.22,0,0,1,0,.08,16.47,16.47,0,0,1,.08,2V87.63a16.57,16.57,0,0,1-.09,2,.93.93,0,0,1-.88.83,1,1,0,0,1-1.19-.77s0-.05,0-.08c-.21-.85.12-1.78-.38-2.61-1.11-.31-1.47.73-2.12,1.21-4.23,3.21-8.84,4-13.72,1.84A12.42,12.42,0,0,1,151,78.51c-.16-5.24,2.53-9.09,7.08-11.54,4.85-2.62,9.59-1.93,14,1.21.62.45,1.18,1,1.79,1.47C174,69.7,174.16,69.65,174.62,69.61Zm-21.44,8.68A10.88,10.88,0,0,0,164,89.38a11,11,0,0,0,11.16-11.16,11.19,11.19,0,0,0-10.74-11A11,11,0,0,0,153.18,78Z"/><path class="cls-1" d="M227.24,86.94c5.5,4,9.48,3.37,16-2.44.9,2-.24,3.14-1.59,4.16a13.25,13.25,0,0,1-19.3-4,12.47,12.47,0,0,1,2.92-16.2,13.16,13.16,0,0,1,17.33.43c1.12,1,.61,1.64-.17,2.43l-13,12.93A7.8,7.8,0,0,0,227.24,86.94Zm-2-1.92c.21-.06.48-.06.61-.19l13.69-13.54c1.24-1.21.56-1.82-.56-2.49-4.73-2.83-10-1.84-14,2.69C221.59,75.48,221.68,80.56,225.29,85Z"/><path class="cls-1" d="M212.38,67.31V80.62c0,4.86,1.31,6.79,5.79,8.55l.33.09c.69.14,1.39.38,1,1.27-.23.7-.89.6-1.42.5a9.1,9.1,0,0,1-7.44-6.32,13.12,13.12,0,0,1-.61-4.26c0-9.1,0-18.19.05-27.28,0-1.07-.7-3,1-3,2.08,0,1.14,2,1.17,3.15C212.45,58,212.38,62.66,212.38,67.31Z"/><path class="cls-1" d="M247.19,85.1c1.65,2.93,3.66,4.27,6.48,4.25,2.6,0,5.13-1.51,5.93-3.54.9-2.27.22-4.48-1.92-6.52a14.56,14.56,0,0,0-3.61-2.35,13.71,13.71,0,0,1-4.6-3.75,4.48,4.48,0,0,1,.48-6.33,5.46,5.46,0,0,1,.48-.36c2.34-1.69,6.16-1.39,7.56.57a1.45,1.45,0,0,1,0,1.86c-1.07-.07-1.65-1-2.59-1.39a3.47,3.47,0,0,0-4.4,1.28c-1.07,1.51-.13,2.73.85,3.8a20.64,20.64,0,0,0,4.64,3.18c1.61,1,3.11,1.74,4.16,3.2a7.1,7.1,0,0,1,.53,8.11A8.79,8.79,0,0,1,252,91a7.62,7.62,0,0,1-4.31-2.33C246.89,87.82,246.46,86.94,247.19,85.1Z"/><path class="cls-1" d="M196.66,76.28c0-3.75-.1-7.52,0-11.27a9.3,9.3,0,0,1,8.07-8.77c.55-.06,1.15-.13,1.39.55s-.2,1-.75,1.23-1.29.36-1.9.62c-2.77,1.16-4.5,3.16-4.54,6.29-.05,4-.06,8,0,11.94,0,2.42.16,2.49,2.78,2.57,1.21,0,2.42,0,3.64.07a.85.85,0,0,1,.87.82.81.81,0,0,1-.76.85h-.07c-1.53,0-3.09.09-4.63.08-1.24,0-1.83.55-1.81,1.8v5.31c0,.82.25,2-1,2.08-1.56,0-1.21-1.28-1.22-2.2,0-4,0-8,0-11.94Z"/><path class="cls-1" d="M183.24,76.48c0-3.88-.06-7.75,0-11.62a9.25,9.25,0,0,1,7.84-8.57c.6-.07,1.17,0,1.29.7s-.39,1-1,1.1c-5.29,1.23-6.47,5-6.31,9.82.11,3.1.09,6.2,0,9.3-.05,1.75.7,2.37,2.37,2.28,1.31-.07,2.65,0,4,0a1.05,1.05,0,0,1,1.18.92c0,.61-.57.83-1.15.84h-3c-3.35,0-3.35,0-3.37,3.52v4.32c0,.69-.16,1.38-1.08,1.27-.69-.09-.77-.7-.77-1.27V76.5Z"/></g></g></svg>