<svg id="Capa_1" data-name="Capa 1" xmlns="http://www.w3.org/2000/svg" viewBox="0 0 844.28 602.82"><defs><style>.cls-1{fill:#ff5678;}.cls-1,.cls-2{fill-rule:evenodd;}.cls-2{fill:#c7a78e;}</style></defs><title>loving1</title><path id="Accent" class="cls-1" d="M359,253.47c-9.11,6.6-7.66,19.58-4.92,29,4,13.89,12.07,26.74,21.24,37.82C391.58,340,419.18,362,444.63,344.78c22.66-15.37,36.95-46.39,41.89-72.51,1.52-8.07,3.55-20.1-3.61-26.17-10.59-9-29.28-7.34-42.06-6.18-8.43.76-16.55,3.34-24.87,2.13-19.34-2.82-40.86-.27-57,11.42"/><g id="Ink"><path id="ink-shape" class="cls-2" d="M751,356.34c-18.43,23.39-49.77,27.08-77.61,26.85-16.72-.13-33.46-1.39-49.85-4.8a218.94,218.94,0,0,1-26.15-7.19c-5.64-1.93-14-2.9-16.43-8.94-6.33-15.94-1.67-35.93.93-52.11,1.33-8.23,2.33-16.51,3.62-24.75.82-5.27,1.21-11.1,3.42-16,2.59-5.77,5.86-4.62,11.32-3,7.54,2.2,15.28,3.11,23,4.29,18.91,2.89,35.4,8.71,52.59,17,17,8.16,33.47,16.22,48.62,27.56A120.74,120.74,0,0,1,745,334.48c4.76,5.66,11.87,14.5,6.06,21.86M670.44,460.21c-.15,2.52-29-5.08-32.84-5.93-25-5.6-50.39-12-73.94-22.08-22-9.44-41.35-20.23-58.65-37a250.53,250.53,0,0,1-22.26-24.81c-3.48-4.39-8.23-3.88-12.11-7.6-3.49-3.34-6.16-6-5.07-11,8.72,2.29,24.81,16.73,33.85,9.44,5.15-4.15-2-8.5-5.29-10.9a95.33,95.33,0,0,1-16.43-16,72.84,72.84,0,0,1,23.7,9.22c3.28,2,14.49,9.06,17.1,2.29,1.61-4.17-6-9.41-8.37-11.72-5.82-5.67-12.1-12.28-15.2-19.9,7.65-1.77,14.85,4.14,20.06,8.95,5.77,5.34,12.86,10.95,17.7,17.1,2.5,3.18,3,6.92,5,10.35,2.2,3.85,5.72,7.15,9.07,10,6.47,5.5,14,9.54,21.81,12.88,17.75,7.65,36.78,13.06,55.7,16.85a168,168,0,0,0,27.76,3c7.32.24,10.56,2.43,13.36,9.18,7.56,18.25,6.19,38.34,5.06,57.57m-217.29-139c-4.24,4-9.74,6.45-14.16,10.26A109.31,109.31,0,0,1,426.27,341c-4.64,2.89-8.11.87-12.29-1.75-4.9-3.07-10.54-4.32-15.59-7.06-17.46-9.51-38.83-32.8-35.57-54.18,1.38-9.06,6.07-18,14.58-22.09,7.73-3.74,19-5.81,27.23-2.69,4.66,1.76,8,5.65,11,9.47,3.48,4.46,4.81,3.75,8.36-.54,6.35-7.69,16.82-14.43,27.17-14.27a37,37,0,0,1,14.89,3.3c.63.29,1,1.17,1.61,1.46s2-.39,2.58-.05c1.36.86,2.71,3.54,3.5,4.9,3.14,5.47,8.79,16.18,3.09,20.78,0,0,.26,6.22.18,6.93a29.77,29.77,0,0,1-3.34,10.17c-5,10.2-12.29,18.05-20.5,25.73m8.44,86.28c-4,1.25-8.33-11.32-4.48-13.33,3.66-1.91,8.11,12.2,4.48,13.33m-63-15c-1.39,4.75-2,10.14-5.37,14-3.11-3.69-3.42-10.5-.4-14.29,1.72-2.16,7.29-4.89,5.77.29M527,309.18c0,.12,4.82,2.44,2.46,5-3.24,3.46-2.79-3.28-2.46-5m20-38.69c0,4.8-10.22,3.64-10.14-1.18.08-5.95,10.2-3.91,10.14,1.18m-12.13-40.12c1-4.39,18.68-10.51,18.2-2.85-.24,3.84-20.33,12.2-18.2,2.85M353.65,379.42c-2,2.38-4.8,3.32-7.18,5.15s-4.27,4.4-6.44,6.65c-6,6.17-13.17,11.25-19.61,16.92-11.85,10.43-23.2,21.65-36.33,30.49-23.48,15.81-50.7,24.45-77.73,32-2.24.63-8.68,3.16-10.9,1.27-2.39-2-1.17-9.18-1.06-11.89.44-11.09,1.74-22.31,1.6-33.39-.06-4.54-1.39-11,1-15.17,2.65-4.65,10.05-6,14.63-7.76,13.91-5.32,27.31-14.29,39.59-22.59,15.11-10.21,30.36-20.59,45.91-30.13,15.23-9.34,32-15.59,49-20.92.78,1.65-7.32,7-8.25,7.72-4.44,3.58-9.28,7.29-12.58,12-2.33,3.34-4.73,10.91,1.72,11.1,3.13.1,7.75-2.93,10.58-3.91a80.75,80.75,0,0,1,14.4-3.45c-4.21,4.63-18.49,13-15.89,20.67,2.52,7.48,17.09-1.25,22.11-1.25-.82,2.61-2.89,4.45-4.58,6.49M181.48,400.3c-9.33,3.28-18.9,5.15-28.53,7.27-9.18,2-17.67,3.54-27.07,2.36-13-1.64-27.35-7-29-21.77-1.95-17.48,10.4-33.54,21-46.08A294.14,294.14,0,0,1,161,300.83a317.61,317.61,0,0,1,50.34-32.4c13.5-7,28.73-11.23,43-16.48,2.71-1,10.22-4.5,12.76-1.59,2,2.35-.74,6.26-1.68,8.44-1.82,4.25-2.08,8.53-2.55,13.1-2.1,20.39-4.63,40.77-5.8,61.24-.32,5.71-.89,11.68-.56,17.39.19,3.16,1.83,7.19.74,10.28-2.11,5.94-11.76,9.86-16.87,12.52-9.16,4.74-18.85,8.28-28.1,12.83-10.16,5-20.05,10.37-30.76,14.14M310.91,267.82c2.57-.35,6.4-1,8.69.61,3,2.17,2.19,5.18-.56,6.75-2.17,1.24-7.25,1.58-9.4.45a4.1,4.1,0,0,1,1.27-7.81M325.1,315c-2.07,3.45-9.64,5.71-9-.72.57-5.51,12.79-5.62,9,.72m-2.81-97.12c3.33,1.28,9.37,2.39,10.36,6.67.91,4-2.86,3.72-5.59,2.62-2.24-.9-12.22-9.36-4.77-9.29m521.4,152c-2-7.57-.47-15.94-1.54-23.69a96.73,96.73,0,0,0-5.6-21.49c-5.95-15.67-12.76-29.77-22.41-43.52-18.16-25.89-39.23-48.7-64.67-67.62a321.91,321.91,0,0,0-82.4-44.48c-31.25-11.28-62.7-15.2-95.64-17.37-9.84-.64-19.67-1.41-29.46-2.65-7.15-.91-16.11-2-23.18.16-4.45,1.38-6.93,5.25-2.09,7.8,3.43,1.8,7.92,2,11.71,2.49-4.57,14.54-12,29.13-23.82,39.15-11.52,9.77-26.94,13.12-41.48,15.6-7.89,1.34-16.72,2.38-24.73,1.8-5.06-.36-9-2.71-11.05,2.51-1.42,3.62-2.09,7.6-4,2.13-2.21-6.47-3.29-6.43-10.17-8.27-14.06-3.75-30.18-7.18-42.45-15.3-12.72-8.43-17.15-22.07-24.25-34.76-1.76-3.14-7.06-9.49-4.35-13.09,2.48-3.28,10.53-3,14.22-3.3,3.89-.36,7.8-.38,11.71-.53,2.26-.09,6.81.84,5.9-2.54-1.37-5.09-16.08-4.44-19.74-4.52a155,155,0,0,0-20.44.75A623.86,623.86,0,0,0,234,158.86c-62.93,17.73-123.87,50.41-169.8,97.48-44.08,45.19-58,120.38-30.95,178.07,14.09,30,44.65,42.3,74.28,52.25,15.63,5.25,32.18,9.35,48.79,8.36,8-.48,15.54-2.62,23.31-4.24,3.39-.71,7.25-1.83,10.73-1.55,2.64.22,5.17,2.64,7.65,1.35,1.75-.91,2.51-3.53,4.66-4.65,2.57-1.34,5.7-1.82,8.48-2.49,7.73-1.88,15.22-4.93,22.77-7.42a237.76,237.76,0,0,0,22.69-9.28c3.79-1.69,12.55-8.6,15-3.55,1.13,2.3.65,6.75.92,9.16.48,4.23,1.05,8.44,1.66,12.65,1.36,9.27,3,18.49,4.66,27.71,3,16.62,6.88,32.54,13.36,48.18,5.17,12.49,9.71,26.64,19.32,36.57a16.63,16.63,0,0,0,15.93,4.93c6.85-1.55,10.25-7.77,14.41-12.79C351,578.54,366.09,570.07,380,567c17.06-3.74,33.68,1.72,50,6.37,17.23,4.91,34.77,9.59,51.68,15.49,15.75,5.51,32.76,13.63,49.85,12.93,14.9-.62,28.82-12.75,39.57-22s24.29-22.88,39.81-21.79c7.7.55,14.73,4.26,22.23,5.77,8.24,1.66,17,1.9,25.39,2.52,10.4.77,33.68-2,37.53-14.46.57-1.86.57-5.68-1.88-6.42-2.26-.69-3.41,2-5.55,1.83-4.34-.25-7.74-7.82-10.13-10.76-9.63-11.84-22.85-20.68-33.67-31.38C632.65,493.05,622.23,478.41,613,464c4.15-1.08,8.64.72,12.67,1.57,4.89,1,9.66,2.29,14.48,3.61,5.31,1.47,10.7,2.47,16.09,3.59,4,.83,9.36,1.08,13,3.1,3.17,1.76,4.93,3.65,8.87,4.16s8.11.08,12.13.06c10.88-.08,21.73-.28,32.55-1.43,38.25-4.06,78.78-20.24,101.78-52.34a100.64,100.64,0,0,0,14.48-28.67c2.48-8,6.77-19.31,4.61-27.72"/><path id="ink-shape-2" class="cls-2" d="M485,0c10.05.14,19.47,3.12,28.83,6.51,8.24,3,17,5.73,23.68,11.68,12,10.7,15.1,28.41,17.06,43.56,2.44,18.91-5.7,34.77-12.54,51.88-6.41,16-18.16,29-32.13,38.83-7.32,5.18-15.41,8.3-23.88,11S469.09,170,459.89,170c-14,0-31.86-6.66-37.81-20.42-2.71-6.26-.07-7.39,5.35-4,7.87,4.94,15.45,10.27,24.64,12.46,17.82,4.25,39.17-2.33,54.8-11S533,125.29,540,109s9.82-32.56,7.1-50.24c-2.32-15-6.91-28.66-20.41-36.79-29.15-17.56-68.41-16.14-94.33,6.67-3.55,3.13-7.06,6.17-10.73,9.16-2.33,1.9-5.07,4.17-4.73,7.46.29,2.81,6.28,13.64-.93,10.31-5.85-2.69-9-8-16.12-8.62-7.54-.7-16.54,5.09-18.8,12.39-2.15,7,1.69,16.48,7.7,20.47,3.72,2.47,7.82,2.09,12.05,2,2.09,0,7.93-.73,9.32,1.48,2.46,3.93-6.21,8-9,8.92-6.81,2.11-14.85-.37-18.77-6.45a44.83,44.83,0,0,1-7.24-20.68,30.23,30.23,0,0,1,5.23-20c4.43-6.16,13.44-13.06,21.53-10.92,3.51.93,6.32,4.55,9.77,5.24,2.17.44,1.26.75,3.06-.86,1.14-1,2.22-2.91,3.28-4.12,6.06-7,12.06-14.4,19.49-20C450.77,4.5,468.47-.23,485,0ZM448.18,138.1c1.57-3.69,4.47,2.9,5.32,4,1.69,2.18,5.68,3.87,5.5,7.08-.28,5.31-7.51,4.32-9.92,1.56-2.75-3.14-2.47-9-.91-12.63ZM499.53,113c3.9,6.08-.85,12.64-3.94,18-2.94,5.14-5.68,11-9.12,15.79-5.69,8-18.09-.66-18.46-8.91-.28-6.31,4.2-3.56,7.07-1.2s4.35,3,7.45.38c6.24-5.34,9-14.27,13.35-21C496.73,114.7,498.28,113.9,499.53,113Zm11.12,2c1,2.94-1.11,10.73,4.76,10,3.24-.43,3.93-5.08,5.64-7.11,5.73-6.82,4,6.08,2.47,9.31-3.3,7.12-12.53,12-17.12,3-1.7-3.36-1.69-7.6-.83-11.21C506,116.92,508.79,109.53,510.65,115Zm-52.3-14c-.52,3.43-3.75,10.27.19,12.72,3.46,2.16,9.49-2.53,12.16-4.49s9.05-7.87,9.3-.61c.12,3.71-3.58,8.15-6.23,10.28-5.64,4.55-17.37,8.63-21.53.07-2.26-4.67-1-11.31.48-16C453.93,99.18,459.6,92.75,458.35,101Zm74-18.77c2.3,2.66,7.74,8.64,4.78,12.44-3.46,4.44-9.08-3.71-11.3-6-2-2-6.2-7.85-4.41-10.94,3-5,8.92,2.19,10.94,4.53ZM496.27,70.77c7.5,4.9-2.37,8.42-6.64,8.85-5.18.53-11.79.88-16.55-1.66-6.73-3.6-4.49-9,2-10.33C481.82,66.29,490.44,67,496.27,70.77ZM398.68,55.21c5.52,1.07,11.83,2.47,13.71,8.49,1.94,6.22-.85,8.28-6.49,6.88-5.22-1.29-13-2.6-16-7.69C386.42,56.8,393.56,54.21,398.68,55.21Z"/><path id="ink-shape-3" class="cls-2" d="M95,188.85c-1.86,6-11.23,10-15.91,13.59A545.8,545.8,0,0,0,32,242.93c-7.67,7.53-13.48,16.65-20.14,25-1.62,2.05-4.5,6.63-7.68,6.2C.61,273.69-.1,267.67,0,265c.38-9,8.57-17.61,14.4-23.78,6.57-6.94,13.59-13.7,20.76-20a237.78,237.78,0,0,1,25.19-18.79c8.57-5.75,16.79-12.39,25.7-17.6C90.26,182.4,97.23,181.47,95,188.85ZM666.62,132c6.83.21,13.49,2.45,19.93,4.53,14.16,4.57,27.65,10.92,41,17.55a397.42,397.42,0,0,1,66.32,41.67,118.65,118.65,0,0,0,13.39,8.78c3,1.75,7.25,3.89,8.41,7.45,2.93,9.07-11.85,0-14-1.33l-2.95-1.83c-43.77-27.12-87.48-53.48-137-69-2.64-.83-3.46-3.18-2.08-5.51C661.16,131.79,664.09,132,666.62,132ZM93,151c-.31,2.77-3.44,3.39-5.55,4.28-7.87,3.31-15.93,6.13-23.78,9.49-14.57,6.23-27.95,15.28-43.15,20-3.48,1.08-4-2.43-3.06-4.81,1-2.67,4.15-4.54,6.4-6.08,6.49-4.44,13.85-7.64,21.06-10.73s14.51-5.38,21.84-8c6.81-2.39,14.72-6.84,22-7.17h.32C91.39,147.93,93.32,147.77,93,151Zm586.1-41.94c-7-2-.39-6.36,3.75-6,4.61.34,9.07,2.52,13.45,3.83a233.15,233.15,0,0,1,38.28,14.65c1.86.93,10.07,5.34,4.64,7.3-3.76,1.35-12.56-4.46-15.79-5.85-14.25-6.17-29.51-9.74-44.38-13.92Z"/><path id="ink-shape-4" class="cls-2" d="M401.61,123.33c.87-2.55,11.63-30.45,7.42-31.29-4.46-.9-10.43,15.29-11.72,18.22-4.78,10.8-7.61,22.39-9.83,34-1.54,8.06-2.9,16.33-2.36,24.58.42,6.34,3,7.3,7.35,11.18a175.8,175.8,0,0,1,9.14-56.67"/></g></svg>