<?xml version="1.0" encoding="utf-8"?>
<!-- Generator: Adobe Illustrator 24.0.1, SVG Export Plug-In . SVG Version: 6.00 Build 0)  -->
<svg version="1.1" id="Capa_1" xmlns="http://www.w3.org/2000/svg" xmlns:xlink="http://www.w3.org/1999/xlink" x="0px" y="0px"
	 viewBox="0 0 3076.1 1831.3" style="enable-background:new 0 0 3076.1 1831.3;" xml:space="preserve">
<style type="text/css">
	.st0{fill-rule:evenodd;clip-rule:evenodd;fill:#FC7292;}
	.st1{fill-rule:evenodd;clip-rule:evenodd;}
</style>
<title>composition-5</title>
<desc>Created with Sketch.</desc>
<path id="Accent" class="st0" d="M284.5,1125.3c2.3-6,2.5-4.9,8.9-5.1c26.3-0.9,52.5-1.8,78.8-2.6c88.8-2.9,177.7-5.9,266.5-8.8
	c31.4-1,62.6-2.1,94-3.1c4.6-0.2,13.1-2.2,17.6-0.6c2.2,0.9,4.6,4.1,6.3,5.9c7.4,7.4,14.8,14.9,22.2,22.4
	c41.7,41.9,84.2,83,126.4,124.3c47,45.9,94,92,141,137.9c-50,9.9-100.1,20-150.2,29.9c10.6,4.1,21,8.1,31.6,12.2
	c74.4,28.7,148.7,57.3,223.1,86c-26.7,27.3-53.4,54.7-80.1,82c13.5,9.3,27,18.6,40.5,28c-9,8.1-18.1,16.1-27.2,24.2l0,0l-49.9,44.3
	c-5.8,5.2-11.8,10.5-17.6,15.7c-1.4,1.2-3.2,3.5-4.9,3.8c-2.5,0.3-7.9-3-10.2-4c-7.2-2.8-14.6-5.6-21.8-8.4
	c-22.3-8.7-44.6-17.5-66.9-26.5c-54.6-21.9-109-44.3-162.1-69.5c-24.6-11.6-47.7-24.2-68.7-41.7c-23-19.2-43.5-41.6-62.2-65
	c-15.8-19.8-30.5-40.3-44.1-61.6c-4.7-7.3-14.8-18.4-16.5-27.2c-0.9-4.7,1.7-12.3,2.4-17c1.5-11.1,3.2-22.1,4.7-33.2
	c0.8-5.7,3.2-13,2.7-18.8c-0.7-6.9-6-15.5-8.4-22c-1.2-3.1-3.1-12.3-6-13.7c-1.9-0.9-7.9,1.1-10,1.3c-16.3,2.1-32.6,4.4-48.9,6.5
	l0,0l-131.3,17.5c-12,1.6-25.2,5-37.4,5c-9.2-0.1-16.2-6-20.6-13.6c-13.2-23.1-26-46.6-36.2-71.1c-9.8-23.7-9.5-43.9-4.2-68.8
	C270.3,1168.2,276.5,1146.2,284.5,1125.3z M1477.2,1119.2c-1.6,34.2-4.9,77.3-25,106.1c-7.7,10.9-19.2,19.5-29.6,27.7
	c-15.4,12-31.3,23.2-47.4,34c-28.4,19.1-58.3,40-90.1,53.1c-8.8,3.6-13.9,3-22.8-0.9c-13.9-6.1-26.9-14-39.8-21.9l-2.8-1.8
	c-22.2-13.5-43.9-27.7-65.4-42.3c66.5-14.3,134.5-32,196.6-60.1C1398.1,1191.6,1443.2,1158.6,1477.2,1119.2z"/>
<path id="Ink" class="st1" d="M652.3,579.7c17.6,3.7,30.2,21.7,41.7,34.2c13.7,15,26.7,31,36,49.2c9.5,18.6,14.9,40.2,16.9,61
	c0.8,9.1,0.2,17.7-0.5,26.9c-0.8,9.7,4.6,14,12.4,19.1c16.3,10.5,35.5,17.2,48.9,31.5c11.5,12.2,21.8,12.6,37.9,9.8
	c39.9-7,78.5-16.4,119.4-17.2c10.4-0.2,20.8,0.1,31.2,0.6c3.4,0.2,7.1,1,10.4,0.5c4.9-0.6,5.3-2.7,8.5-5.3
	c14-11.5,35.6-7.9,52.3-6.8c42.1,2.8,82.8,10.1,123.1,22.6c43.5,13.6,88.6,21.8,131.9,36c41.8,13.8,81.1,34.1,121.2,52
	c40.8,18.3,80.2,39.1,118.9,61.2c37.5,21.4,76,42,110.9,67.5c31.8,23.3,59.4,52.9,80.7,86.2c7.2,11.1,5.9,19.3-9.2,18.3
	c1.3,12.5-6.7,19.5-18.8,19.3c5.7,9.5,16.8,21.6,14.5,33.6c-3,16-22.9,9.1-32.8,5.1c3.5,11.5,12.5,29.6,4.8,41.2
	c-11.9,18-41.3,4.6-54.5-4.2c-33.2-22.3-57.9-53.2-88.5-78.4c-37.9-31.1-79.2-59.3-120.2-86.1c-3.2-2.1-40.2-28.1-43.7-22.7
	c17.7,18.9,33.4,40.6,55.6,54.8c6.1-14.1,13.7-9.5,18,2.5c5.1,14.4,10.7,29.4,11.1,44.9c0.8,30.3-11.7,62-26.4,87.9
	c-15.4,27.2-36.8,49.8-60.8,69.7c-13.6,11.2-27.4,21.9-42.7,30.5c-6.8,3.9-13.7,8.1-20.9,11.4c-6.9,3.1-14.8,4.7-20.8,9.6
	c66.4,16,135.6,13.9,202,29c16,3.7,49,15,38.4,37.9c-8.2,17.7-34.1,23.8-50.5,30.5c15,9.2,15.5,20.5,0.4,30.5
	c-6.1,4-12.7,6.7-19.8,8.4c-4.8,1.1-13.4,1.2-16.6,5.8c16.4,3.7,36.7-1,51.6,8.4c15.1,9.7,2.3,22.7-8,29.8
	c-13.4,9.4-32.3,20.3-48.9,15.9c-13.1-3.5-23.8,0.1-37.2,1.5c-13.8,1.3-27.9,1.2-41.7,0.1c-52.8-4.2-104.4-22-154-39.5
	c-49.5-17.6-96.9-39.5-142.1-66.4c-11.1-6.6-21.1-15.2-32.4-21.5c-11.9-6.7-22.6-5.2-35.4-2.3c-29.1,6.5-59.3,7.5-87.8,17.1
	c48.6,22.7,98.8,41.1,148.8,60c19,7.2,39.8,17.8,60.4,18.3c9,0.2,27.9-2.4,33.1,7.7c3.7,7.3-2.7,10.1-5.7,15.1
	c-4.5,7.3,4.1,7.6,10.6,8.9c8.2,1.6,15.3,1.1,23.2-1.5c12.3-3.9,22.1-5.6,35-2.7c20.1,4.5,40.8,4.8,61,9.2
	c8.4,1.8,12.5,11.6,17.6,17.6c8.1,9.6,16.9,18.5,25.7,27.6c16.5,16.9,31.4,34.8,52.3,46.8c18.3,10.4,38,18.9,57.1,27.4
	c30,13.2,68.1,29.5,67.5,68.1c-0.6,38.3-39.1,42.4-69.4,41.9c-12.7-0.2-30.9-4.3-42.3,1.8c-9.9,5.4-17,7.4-28.5,7.2
	c-13.3-0.1-26.5,0.6-39.8,1.4c-27.9,1.5-56.4,0.4-84.2-3.1c-13.2-1.7-24.8-5.3-36.4-12c-3.5-2-6.3-5.3-10.1-4.4
	c-3.2,0.7-7.1,7.6-9.2,10.1c-6.7,8.1-14.3,15.2-25,9.6c-6.8-3.6-14.2-13-6.8-19.7c5.6-5.2,18.3-3.3,21.5-11.5
	c3.2-8.6-9.9-17.2-14.6-22.7c-8.8,9.1-20.8,26.3-35.2,17.3c-11.5-7.3-2.1-15.2,6.1-20c10.1-6,22.7-8.2,14-21.5
	c-4.9-7.6-11.4-13.8-14.2-22.6c-2-6.7-1.5-13.7-2.9-20.4c-2.5-12.1-17.7-19.8-29.6-20.2c-7.3-0.3-8.1,6.1-11.4,11.5
	c-4.8,8-11.7,14.7-18.8,20.7c-11.5,9.9-24.1,18.5-36.5,27.1c-8.3,5.7-23.2,14.1-14.3,24.3c13.1,14.9-10.8,11.5-19.7,9.4
	c-20.5-5-41.2-9.4-61.5-14.9c-41.9-11.2-81.6-27.8-120.5-46.8c-38.1-18.7-75.9-39.1-111.7-61.8c-17.4-11-34.3-22.9-49.9-36.3
	c-16.8-14.3-31.9-30.6-48.9-44.8c-17.6-14.7-35.1-28.8-48.4-47.8c-12.4-17.5-26.4-37-31.1-58.2c-5.2-23.3-9.5-44.4-6.6-68.5
	c1.2-10.1,3.1-20.6,6.9-30c1.2-2.7,7.9-12.5,5.5-15.4c0.1,0.2-18.6,7.2-20.6,7.9c-12.6,4-26,4.5-39.1,6.1
	c-38.7,4.5-76.7,13.9-115.6,16.8c-14.7,1.1-29.7,6.4-44.4,5.8c-6.9-0.3-9.4-3.7-14.8-5.7c-2.5-0.9-4.8,0-7.3-1.5
	c-2.9-1.7-4.1-5-5.8-7.8c-9.1-14.7-21.7-26.9-30.6-41.6c-10.2-16.5-13.8-35.2-17.3-54.1c-9.2,2.8-19.1,4.9-28.7,2.9
	c-2.4,23.8-33,29.9-52.2,32.3c-23.9,2.8-52,6.5-68.8-14.5c-19.9-24.7-26.1-58.5-34.2-88.3c-9.5-35.1-17.7-71-23.5-106.8
	c-5-30.5-4.7-63.3,9.7-91.4c12.7-24.8,39.9-43.6,67.6-28.8c21,11.6,34.3,36.7,40.2,58.7c3,11.2,4.7,21.5,17.9,15.4
	c5.1-2.3,9.6-5.3,14.7-0.7c4.5,4,4.4,11.4,0.7,16c-3.3,4.2-11.2,5.2-12.9,10.7c-1.7,5.4,4.2,12.3,9.6,12.2c6.1-0.2,9-8.6,15.6-6.4
	c6.1,2.1,4.5,8.7,1.6,12.9c-3.4,5-7.4,6.8-2.9,12.7c3.4,4.5,8.8,6.9,12.1,11.7c8,12.1,13.8,30.6,10.8,45.1c10.3-1.1,37.1,5.7,43-5.6
	c2.1-4.1,1.4-9.3,3.8-13.5c2.7-5,7.4-7.8,12.8-9.7c11.2-3.9,23.8-2.9,35.4-3c19.4-0.2,38.8-0.9,58.2-1.5c39-1.3,77.8-4.7,116.8-5.5
	c38.9-0.8,77.8,0.4,116.7,1.6c20.4,0.6,40.8,1.9,61.2,1.7c19.1-0.1,38.7-1.3,57.4,3.1c-7.7-20-21.2-37.1-31.3-55.9
	c-10.4-19.4-16.5-39.6-17.6-61.6c-1-20.1-0.4-40.1,5.9-59.4c2.5-7.8,5.5-15.7,10.1-22.5c3.3-4.9,8.3-9.4,10.6-14.8
	c2.2-5.4,1.3-6.3-4.9-7.2c-3.5-0.5-6.5-0.3-9.9-1.3c-3.2-1-6.1-3.3-9.5-3.1c-7.9,0.4-17.4,10.1-23.8,14.2
	c-8.7,5.6-17.9,10.9-27.8,14.2c-32.5,10.7-76.1-0.3-103.9-18.8c-9.3-6.2-30.6-20.4-26-33.8c2.4-7.1,9.4-7,14.4-11
	c7.8-6.4,0.7-12.5-4.8-17.6c-15-13.6-26.5-30.3-38.6-46.4C468,759.4,453.1,745.7,440,730c-9.4-11.2-20.3-23.6-26.4-36.9
	c-7.5-16.3,3.7-21.2,17.3-26.7c43.3-17.3,85.1-37.1,127.6-56.3c16.9-7.7,33.8-15.4,51-22.5C622.6,581.9,637.8,576.6,652.3,579.7z
	 M1273.3,1564.8c-22.9,6.1-45.1,16.2-40.1,43.3c13.7,50.6,55.1,81.8,97.5,108.3c10.7,6.7,21.3,13.9,32.6,19.6
	c6.6,3.3,13.2,4.1,20.2,6.3c1.7,0.6,4.9,2.9,6.4,3.1c3.6,0.4,3.6-0.9,6.7-1.9c6.9-2.3,9.2,2.4,15.4,5.3c11.8,5.5,29.9,0.5,42.3,0.3
	c11.5-0.1,58.8,6.4,52-16.1c-6.7-22-32.9-27.8-51.8-34.2c-26.4-8.9-53.8-18.9-77.6-33.7c-22.6-14.1-40.1-36.2-57.5-56
	c-10.8-12.3-15.6-23.8-21.2-39c-2.4-6.4-2.9-8.6-9.6-8.3C1283.5,1562.2,1278.4,1563.4,1273.3,1564.8z M1192,1578.2
	c-12.5,7.2-20.3,20.1-24.3,33.6c-2.1,6.9-2.7,13.6-2.3,20.7c0.4,9.1-0.8,19.3,3.5,27.6c7.9,15.2,23.4,30.2,35.5,42.1
	c13.7,13.3,30.9,27.9,49.2,34c17.7,5.8,37.3,4.2,54.3,12.4c-2.6-6-9.4-9.3-14.9-12.2c-7.9-4.3-14.9-8.6-22-14.1
	c-15.7-12.2-29.6-26.1-40.1-43.1c-10.2-16.4-18.2-35.7-21.5-54.8c-1.5-9.1-2-19,0.2-28.1c1.5-6,5.1-11.7,5.8-17.9
	C1217.1,1564,1198.2,1574.6,1192,1578.2z M805.4,1200.3c-18.2,6.1-36,13.6-54.4,19.3c-37.2,11.6-76.3,22-106.9,47.5
	c-44.5,37.1-89.7,107.9-59.3,166c36,68.5,94,125.1,159.8,165c42.1,25.5,86.8,47,131.4,67.6c43.2,19.9,90.2,29,134.1,46.7
	c-5.5-38.9,11.1-79.1,34.4-109.5c12.5-16.4,26-32.3,40.8-46.5c7.3-7,15.1-13.2,23.1-19.4c6-4.8,12.4-11.2,20.1-13.3
	c-1.3-5.7-15.9-4.7-20.1-5.2c-14.5-1.7-28.9-6-42.8-10.1c-30.3-9-59.3-21.7-88.4-34.4c-14.2-6.2-28.5-12-42.6-18.5
	c-12.7-5.8-24.7-14.2-37.9-18.5c-13.6-4.5-28.2-2.9-42.4-2.6c-16.9,0.3-33.7,0-50.6,0.7c-28.3,1.2-57.4-9.4-84.9-15
	c-9.2-1.9-22.8-2.3-30.7-7.9c-7.2-5-7.7-15.1-1.2-21c11.3-10.2,34.8-5,48.1-2.9c24.4,4.1,48.5,7.3,73.4,6.7
	c34.1-0.7,67.7,4.3,101.8,3.4c36.8-1,73.7-1.3,110.3-6.5c-12.5-15.5-30.2-27-45-40.3c-16.9-15.3-33.8-30.6-50.6-46.1
	c-29.6-27.2-61.9-54-86.8-85.8C829.8,1208.8,820.8,1195.2,805.4,1200.3z M1074.2,1631.6c-5,1.9-7.8,8-10.6,12.2
	c-8.7,13-17.1,25.7-23.4,40c12.6-8.7,21.7-21.3,33.4-30.7c4.3-3.5,20.1-12.3,15.2-18.4C1086.1,1631.4,1077.9,1630.2,1074.2,1631.6z
	 M1128.2,1575.4c-11.5,12.1-23.8,23.3-36.4,34.3c10.8,1.7,21.9,4.8,31.4,9.9c4.4,2.3,14.1,9.9,18.9,6.4c4.5-3.2,4.6-16.2,6.1-21.2
	c3.8-12.8,10.2-25.5,17.7-36.6C1150,1561.8,1140.4,1562.7,1128.2,1575.4z M908,1099.2c-10.1,5.3-20.2,10.8-30.3,16.2
	c-20.2,10.6-41.2,20.3-63.7,25.1c-1.8,6.3,8.8,13.6,12.5,17.3c9.4,9.8,18.1,20.6,26.9,30.9c18.9,21.9,38.7,42.5,59.6,62.3
	c21.1,20,40.9,41.5,62.4,61.2c20.8,19,43,37.1,64.9,54.8c85.3,69.1,191.7,106.7,295.2,138.8c29,9,58.7,16,89.2,17.9
	c12.5,0.7,25.3,1,37.8,0.9c8.5-0.1,22.7,0.7,29.1-6.1c-25.5-4.3-56.9-1.3-79.6-15.3c-14.1-8.7-2.9-19.6,8.5-24.3
	c22.2-8.9,48.3-3.9,69.7-15.3c-8.4-9.9-25.7-5.6-37-6.1c-14.2-0.8-16.1-7.4-4.4-14.7c14.5-9,33.3-9.8,49.4-14.3
	c7.9-2.2,41.1-10.7,27.7-23.9c-10.5-10.3-30.7-9.6-44.2-11.5c-19.1-2.5-38.5-8.6-57.6-9.5c-18.7-0.9-37.4,0-56.2-1.2
	c-19.6-1.3-39.1-3.2-58.3-7.3c-37.1-7.8-72.9-21.7-106.6-39.1c-34.7-18-66.4-40.3-96.6-65c-15.8-13-31.2-26.6-46.7-40
	c-15-12.9-31.4-24.7-44.5-39.7c-14.5-16.6-31.6-30.8-46.3-47.3c-8-8.9-16.4-17.5-24.1-26.7c-5.5-6.5-10.4-16.8-17-22.1
	C921.7,1089.8,914,1096.1,908,1099.2z M460.4,1443.2c4.3,2.6,4,4.1,4.2,8.4c0.4,8.9,0.6,17.7,1.8,26.5c4.1,30.3,14.9,60.3,25.7,88.8
	c10.8,28.4,27.9,53.2,50.2,73.9c21.6,20,45.8,34.5,74.7,40.4c5,1,24.6,4.5,24.8,11.4c0.2,5.3-9.8,4.3-13.3,4.4
	c-49.8,0-99.3-34.5-131.9-69.5c-13.5-14.5-23.4-30-32.9-47.1c-1.3-2.5-21-38-17.1-39.3c-8.9-25.6-16.8-57.3-9.5-84.3
	C439.9,1446.7,449.1,1436.6,460.4,1443.2z M378.4,1466.5c-0.1,20.7,5.6,40.6,10.8,60.5c1,3.6,5.4,14.4-0.7,15.5
	c-4.3,0.7-10-9.4-11.7-12c-10-15.7-16.3-34.3-17-52.8c-0.2-5.9-0.1-13.1,5.6-16.3C370.8,1458.4,377.6,1460.2,378.4,1466.5z
	 M1472.1,1138.5c-2.4,1.8-3,4.5-3.3,7.5c-17.1,22.3-38.1,44.8-60,62.6c-19.5,15.9-43.9,26-66.6,36.2c-52.2,23.3-105.6,39.5-163.3,36
	c26.7,15.8,52.6,38.8,83.5,45.9c15.4,3.5,29.9-3.7,43.1-10.8c16.1-8.7,32.5-17.5,47.8-27.8c28.9-19.3,59.6-40.5,81.6-67.8
	c9.7-12.1,16.7-26.1,22.6-40.4c3.3-8.3,5.7-16.8,9.1-24.9C1468.4,1150.2,1473.5,1143.8,1472.1,1138.5z M1161.7,822.9
	c1.4,10.3-2.8,20.1-6.3,29.6c-2.4,6.4-7.9,14.8-3.2,20.5c5.5,6.8,19.2,9,26.7,12.8c11.2,5.7,22.1,12.2,32.7,18.9
	c19.2,12,38.8,23.4,57.7,35.9c18,11.8,35.6,23.9,56.4,30.2c45.7,13.7,88.5,37.2,130.6,59.3c42.9,22.6,85.8,46.7,124.9,75.4
	c21,15.4,39.4,33.1,56.3,52.8c8.7,10.1,17.7,19.9,26.3,30.1c3.8,4.5,8,8.7,11.7,13.5c2.7,3.5,5.2,9.5,9.3,11.6
	c3.6-16.5-11.3-34.2-20.3-46.5c-6.2-8.4-12.3-16.8-18.5-25.3c-4.3-5.9-12.1-12.5-13.9-19.7c-4.5-17.5,20.9-9.7,28.4-5.3
	c18.5,10.8,31.9,30,46.6,45.2c-0.4-14.4-32.7-30.1-23.7-44.6c7.1-11.5,28.6,7.4,34.9,12.4c-0.1-18-12.7-32.9-24.9-44.6
	c-13.6-13.2-28.9-25.1-44.1-36.3c-35.7-26.1-74.8-47.9-113.4-69.3c-38.5-21.4-77.6-41.3-116.6-61.5c-37.9-19.6-76.3-39.1-116.9-52.6
	c-22.8-7.5-46.1-13-69.1-19.7C1209.4,838.7,1185.9,829.4,1161.7,822.9z M871.3,843.6c-0.9,0.4-6.2,2.2-6.6,2.8
	c-1.3,2.4,2.5,8.8,4.9,9.5c-6.1,6.9-13.2,13.6-22.2,16.4c7,4.4,20.2,12.1,20.3,21.5c0.3,13.1-16.7,7.4-23.7,5
	c-11.2-4.1-22.5-8.4-31.7-16.1c-5.8-4.9-8.7-10.7-13.5-16.4c-2.6-3-1.6-3.8-5.8-3.3c-4.8,0.7-11.8,6.9-15.8,9.6
	c-6.2,4.2-12.1,8.7-17.6,13.7c-10.2,9-19.5,19.4-27.1,30.8c-15.7,23.7-23.7,52.1-19.5,80.4c13.7-4.7,26.2-13.7,36.4-23.8
	c7.3-7.2,14.6-15.4,19.3-0.4c1.9,5.8,3.1,20,0.6,25.3c-2.4,5-4.6,1.8-7.5,5.2c-3.4,3.8-0.3,7.6,0.6,11.8c-2.3-1.1-4.5-2.4-6.8-3.6
	c-2.6,5.2,0.9,2,2.8,4.5c1.1,1.4-3.2,7.2-4,8.2c-1.8,2.1-3.3,1-5.3,4c-1.2,1.9-2.2,5.8-3.5,8.1c-6.8,12,8.4,25.3,15.3,35
	c5.1,7.2,10.6,14.1,15.9,21.3c3.9,5.2,6.7,11.7,11.3,16.3c9.2,9,23.9-0.1,34-3.5c13.7-4.8,27.1-9.4,40.9-13.8
	c8.1-2.5,16.4-9.3,4.4-13.3c-11.9-3.9-48.5,2.6-52.1-13.2c-3.9-16.8,19-24.6,31.1-25.6c17.7-1.5,29.7,0.4,44.2,10.9
	c-7.9-24.5-29.8-41.2-39-65.2c-2.5-6.5-14.6-47.4,5.4-32.8c10.7,7.7,20.7,20.9,29.5,30.6c13.3,14.8,25.5,30.5,38.1,45.9
	c12,14.6,27.8,27.8,37.5,44.1c5.4,9.2,14.5,28.9,26.3,31.6c7.5,1.8,18.1-4.9,24.9-7.4c4.2-1.5,8.3-3.1,11.5-6.4
	c1.7-1.7,2.8-5.5,5.2-6.4c6.8-2.6,10.9,7.8,11.5,12.8c0.8,7.8-2.2,10.5-9.1,12.9c13.3,3.3-1.3,25.6-3,33.7c-0.3-0.3-3.4-5-5-4.7
	c-3.1,0.7,14.8,22.8,16.1,24.4c9.2,10.6,19.8,19.6,30.2,29c5.9,5.4,15.8,19,24.9,15.6c5-1.9,13.6-15,19.3-8.4
	c5.1,5.9-4.8,15.3-5.4,21c-1,9.4,11.8,16.4,19.2,19.7c19.5,8.7,42.1,6.9,62.9,6.4c-4.9-4.4-13.8-5.3-15.6-12.7
	c-1.2-5,1.8-8.5-1.7-13.4c-2.9-4.1-8.5-5.7-10.9-10.1c-2.8-4.9-1.4-11.6,0.5-16.6c8.5-21.2,37.8-19.4,55.8-14.4
	c-1.1,0.7-1.9,1.7-2.5,2.9l-0.1,0.3l0,0c1.8-1.7,11.7,0.4,13,0.9c4.1,1.8,10.1,6.7,13.5,9.9c10.5,10.2,14.6,24.5,13.4,38.9
	c49.5-10.5,93.3-33.6,133.2-64.1c9.1-6.9,18.4-12.1,26.7-20.2c8.6-8.3,16.4-17.2,24.7-25.7c7.8-8,6.2-11.4-1.7-18.7
	c-9.7-8.9-18.5-18.8-28.9-26.9c-0.7,3,0,8.6-2.4,10.8c-2.6,2.5-6.1-0.7-7.8,1.3c0.2-0.1-4.1,11.1-5.7,8.8c4,5.8-7.4,3.9-9.7,3.2
	c1.7,5.9-2.2,12-6.7,4.7c-6.1,8.5-25.4,6-18-6.7c3.7-6.3,8.3-10.1,9.8-17.7c1.7-8.4,1-17.4-0.3-25.8c-3.2-19.8-15.7-26.7-31.7-36.6
	c-9-5.6-18.1-10.6-27.2-15.9c-8-4.6-15.4-10.8-23.6-14.9c-5.9-2.9-10.2-3.3-14.3,1.3c-1.7,1.9-2,3.8-4.3,5.7
	c-3,2.5-7.7,4.6-11.3,5.9c-18.2,6.3-41.2,4.5-59.7,1.2c-5.1-0.9-8-3.5-12.5-5c-2.9-0.9-4.9,0.4-7.9-0.8c-8.1-3.1-9.3-10.6-5.3-17.5
	c9.3-16.1,29.2-7.6,39.4-21.1c12.6-16.9-17.2-30.2-29.4-36.3c-9.7-4.9-17.2-4.8-27.7-4.4c-2.2,0.1-17.2-1-11.1,3.8
	c-11,2-16.4,3.3-23.8,12c-2,2.3-4.6,4.7-4.7,7.8c0.1,1.7,3.4,1.3,3.4,1.3c-0.3,1.2-3.2,3.8-3.6,4.3c5.8-0.5,6.7,10.8,5.3,11.3
	l-0.1,0l0.2,0.1c2.9,1.8-1.9,6.6-3.6,7.6c-5,2.9-10.9,0.2-15.3-2.8c-9.8-6.6-18.7-19.5-20.5-31.2c-2.8-16.4,5.9-28,12.1-42
	c4.6-10.5-6.2-13.3-14.2-17.5c-9.8-5.2-23-11.4-28.1-21.9c-4.7-9.6,1.5-14.5,11.1-13.4c12.8,1.6,24.8,10.1,36.8,14.5
	c10.6,3.9,25.1,13.4,36.8,11.6c-3.8-7.1-14.1-4.1-19.2-8.8c-6.9-6.2,0.7-11.3,7.1-11.7c5-0.4,21.1,7,18.2-4.8
	c-1.5-6.3-12.7-6.2-17.7-7.1c-25.6-4.4-51-5.6-76.8-4.6c-8.4,0.4-10.3,1.8-12.6,9.8c-0.8,2.7-3.1,15.2-7.4,8.2
	c-2.1,6.9-1.7,13.7-8.6,17.8c-8.8,5.1-21.9,3-31.4,1.3c-8.1-1.5-16.2-4.4-22.4-10.1c-3.1-2.8-5.6-6.2-7.6-9.8
	c-1.7-3.1-2.4-8.7-4.8-11.4c-4-4.5-10.6-1.9-16-1.3c-12.1,1.3-24,2.9-36.1,5.3C890.1,837.8,880.5,839.2,871.3,843.6z M1224.2,1233.6
	c-3.5,2.2,4.2,5.2,6.3,4.3C1229.3,1236.6,1226.7,1232,1224.2,1233.6z M1217.1,1183.2l-0.1,0.1c-0.1,0.1-0.1,0.3-0.2,0.6
	c0.1-0.1,0.1-0.3,0.2-0.5L1217.1,1183.2z M1267.7,1047.7c4,2.2,4.1,9.1,7.3,12.8c8.6,9.6,22.3,18,34.4,22.4
	c13.1,4.7,20.5,12.8,26.1,25.2c1.1,2.5,3.7,5.9,3.4,8.9c-0.2,2.7-3,4.2-3.4,6.7c-0.2,1.2,3.2,8.9,3.1,9.1c-1,0.3-4.8-3.2-4.8-3.2
	c-0.6,3.1,0.5,6.2-2.2,8.4l-0.3,0.3l0,0c0.9,0.4,5.1,2.6,4.3,3.5c-1,1.1-3.9,1.1-5.3,1.9c-2.2,1.3-3.4,3.7-5.4,5.1
	c-5.4,3.8-12.4,4.5-18.9,4.9c-13.6,0.9-29.6-0.7-41.2-8.4c-14.2-9.4-13.9-22.3-17.8-35.4c-4.4-14.7,1.6-39.6,7.8-53.1
	C1257,1052.2,1261.5,1044.3,1267.7,1047.7z M290.4,1133.9c-0.4,1.9,1,4.5,0.9,6.6c0,4.1-1.6,8-3.1,11.8c-2.8,7-5.7,13.6-7.1,21.1
	c-3.2,18.6-5.7,38.4-5.2,57.2c1.2,40.4,31.6,67.6,41,105.3c8.4-13.8,24.9-17.8,39.5-21c19.6-4.2,39.1-7.5,59-10
	c38-4.6,76.4-11.4,114.7-5.4c4.2,0.6,7.3,0.7,11.4,0.6c4.5,0,1.8-1.5,5.5,0.4c1,0.5,1.8,2.9,2.9,3.6c5.6,3.5,7.6-0.1,10.4-5.7
	c7.9-15.5,15.9-29.7,27.4-42.8c24.5-28,55-45,90.4-55.9c20.2-6.2,40.1-11.6,60.8-15.8c19.8-4,40.7-8,61-5c-7.5-12.3-18-22.6-27-33.7
	c-4.4-5.4-8.6-11.2-13.8-15.9c-4.6-4.1-10.6-7.1-14.2-12.1c-0.1,1.3-0.4,2.4-0.6,3.6c-40.4-2.8-80.7-0.3-121.1,1.7
	c-40.5,2.1-81,1.6-121.5,3.2c-20.4,0.9-40.5,3-60.7,4.9c-19.4,1.9-38.7,1.6-58.3,2c-19.7,0.4-39.2-0.1-58.9-1.1
	c-8.3-0.4-16.3-1.7-24.5-2.7C292.9,1128.3,291.4,1128.2,290.4,1133.9z M1145.7,1024.3c2.2,4.4-0.2,11.2-0.4,15.8
	c-0.2,5.3-2.7,7.9-3.2,12.7c-0.4,4.3,6.4,24.7-5.1,20.6c0.6,1.4,2.7,3.2,3.2,4.4c0.5,1.6-0.5,4.5,0.2,5.9c0.7,1.2,6,4,7.5,6
	c6.1,7.6,11.1,16.9,15.3,25.7c4.2,9.2,9.8,22,3.1,30.5c-1.6,2-3.2,2.8-4.7,5.2c0.2,1.8-0.4,3.5-1.5,4.9c-0.7,0.4-1.4,0.3-2-0.2
	c-2.2,1.9-2.6-3.9-4.3,2.1c-0.4,1.4,1.8,5.6,1,5.3c-1.3-0.5-5.4-3.4-6.6-3.2c-1.7,3.8-2.5,0.4-4.9,1.5c0.2,1.4-0.4,2.3-1.8,2.7
	c-1.1-0.1-2.3,0-3.5-0.1c-6.7,1.4-17,0.8-23.7,0.3c-12.8-0.7-23.3-7.3-28.7-19.4c-11.1-25.2,4.1-62.9,15.9-85.6
	C1105.7,1052.1,1134.7,1001.4,1145.7,1024.3z M1269.9,1086.8c0.3,2.3,1.7,5.5-0.7,6.2C1268.7,1090.4,1266.9,1087.4,1269.9,1086.8z
	 M1095.9,1119.8c2.5,6.1,2,2.4,0.3,7.4C1094.9,1124.8,1094.7,1122.3,1095.9,1119.8z M1278.4,1072.4c1.2,1.1,5.7,3.5,2.6,5.1
	C1278.4,1078.8,1278.6,1073.9,1278.4,1072.4z M1131.9,1057.2c0.2,7.1,3.7,4.6,8.9,2.3C1137.9,1058.7,1134.8,1058,1131.9,1057.2z
	 M77.7,991.3c-21,27.6-13.6,66.3-6.2,97.1c10,41.9,21.6,83.7,34.6,124.8c5.9,18.6,13.3,27.1,33.5,29.5c21.8,2.5,43.3-3.4,64.2-9.1
	c-10.7-30.4-27.3-69.9-0.4-97.5c2.4-2.5,4.8-4.5,8.3-5.4c2.3-0.6,6.1,0.8,8-0.8c3.9-3.1,0.1-8.7-2-11.8
	c-6.6-9.6-16.8-16.3-25.6-23.8c-11-9.4-18.3-7.6-30.8-3.5c-5,1.7-24.6,8.2-22.9-3.5c1.2-8.5,17.4-9.9,23.4-13.1
	c4.6-2.4,5.4-3.3,4.2-8.2c-1.9-7.7-6.9-8.9-13.7-7.2c-8.8,2.2-23.2,10.1-32,4.8c-12.7-7.7,1.5-18,9.1-21.1c8-3.1,19.3-4.2,19.1-14.9
	c-0.2-10.2-7.9-20.9-13.8-28.7c-5.7-7.5-13.3-17-22.5-20.3C99,974.1,85.5,981,77.7,991.3z M216.7,1154.3c-10,4.6-13,19.4-12.3,29.2
	c0.8,9.4,4.3,22.4,12.6,28c10.9,7.4,26.1,3.5,37.5,10.1c-0.2-21.8,3.3-43.6,9.6-64.5c-8.6-0.5-17-1.7-25.6-2.6
	C232.3,1154,222.7,1151.6,216.7,1154.3z M896.9,1056.9c2.8,1.5,3.7,2,4.9,5C896.4,1063.4,897.6,1061.3,896.9,1056.9z M920.4,896.2
	c8.7-1.7,13.4,0.3,21.3,3c5.6,1.9,10.9-2.5,12.5,5c11.8-14.2,44.4,9,55.9,14.4c12.2,5.7,24.5,12.9,28.7,26.8
	c1.3,4.1,1.3,8.6,2.8,12.7c1.2,3,3.8,5.7,4.2,9.1c0.4,3.9-2.4,6.7-2.3,10.5c0,1.4,1.6,4.1,1.2,5.4c-3.9,13-10,24.3-23.7,28.4
	c-11.9,3.6-26.3,2.1-36.9-4.5c-9.4-5.9-16.5-16.1-20.8-26.2c-0.8-1.8-1-6-1.9-7.5c-1.4-2.1-2.6-1.8-4.1-3.4
	c-3.9-4.2-10-12.4-7.3-18.5c-8.8,4-19.9-14.2-24.5-19.2c-3.5-3.8-10.4-5.8-13-9.6c-3.6-5.3,4.4-9.5,0.6-12.9
	c-2-1.8-10.1,1.4-10.5-4.1C902.1,900.6,917.1,896.9,920.4,896.2z M1119.6,958c0.1,0.1,0.2,0.2,0.3,0.1l0,0l0,0L1119.6,958z
	 M1086.2,920.2c0.6-0.9,4-6.1,5.2-2.9C1092.5,919.8,1087.5,920,1086.2,920.2z M616.2,668.4c-9.2,2.6-15.3,14.3-21.1,21
	c-8.6,10-19.6,18.4-30.8,25.3c-13.1,8.1-26.6,15.7-40.4,22.6c-13.9,7.1-29,11.1-42.9,18.2c10.1,11.8,20.2,23.5,30.3,35.3
	c2.3-5.1,0.1-9.7,4.7-14.1c3.2-2.9,8.4-4.3,12.3-6.1c11-4.7,23.2-9.3,35.2-9.5c7.8-0.1,17.4,3.9,12,13.5c-3.4,6-13.3,6.8-12.4,15
	c0.9,7.9,10.2,12.9,10.1,21.4c-0.1,12-12.3,11-18.9,4.6c-5.9-5.6-6.7-17.7-14.7-21c-4.8-1.9-16.2-0.6-20.2,2.8
	c11.8,13.6,31.8,29,26.2,49.3c-1.7,6.2-7.6,9.7-2.2,14.3c6.2,5.3,21.4,7.5,28.5,4c6.6-3.4,13-13,21.8-10.7c8.2,2.1,4.3,9.5,6.2,15.1
	c5.7,17.1,39.5-0.5,48.7-4.9c9.3-4.4,18.3-12.2,28.4-14.6c9.4-2.2,19.3,0.5,28,4.3c6.5,2.8,18.4,12.5,25.6,11.4
	c7.3-1.1,15.2-14,20.9-18.6c10.1-8.2,22.3-12.5,33.5-19c1.8-1,9.8-4.5,9.4-7.3c-0.5-2.7-11.6-6.4-13.5-7.4
	c-17.9-8.5-32.5-22.2-50.8-29.8c-8.2-3.4-16.5-5.2-25.3-5.7c-4.8-0.2-17.8,0.8-19.5-5.8c21.3-8.4,16-36.1,3.4-49.8
	c-8.1-8.7-18.3-11.4-29.5-6.8c-16.2,6.7-16.7,19.7-17.4,35.2c-15.4-4.6-34.3-19.7-38.6-35.8C598.2,697.2,615.8,685.4,616.2,668.4z
	 M1053.4,701.8c24.2-0.6,48.1,0.3,72.1,3.2c14.8,1.8,35.7,1.5,49.5,7.9c4.1,1.8,9.6,6.6,7.4,11.8c-1.9,4.5-8.8,4.8-12.9,5.1
	c-18.6,1.1-37.8-2.7-56.5-3c-49.6-0.7-99.2,4.5-148.3,11.4c-13.5,1.8-27.1,3.9-40.6,5.8c-11.2,1.6-23.4,4.6-34.8,4.3
	c-9-0.1-12.4-6-7.6-14.4c4.8-8.3,15.5-9.4,23.6-12.5C953.5,707.7,1003.6,703.1,1053.4,701.8z M960.5,662.5c17,2.1-0.9,8.6-8,9.5
	c-2.4,0.3-33.9,3.8-33.8,4.7c-6.2,1.3-21.5,9.5-27.2,4.2c-6.2-5.6,13.7-12.4,17.8-13.6C924.9,663,944.2,660.5,960.5,662.5z"/>
<path id="Accent_1_" class="st0" d="M2218.2,1222.4c6.8,14.1,12.6,28.8,20.1,42.6c3.2,5.8,8,10.5,10.7,16.4c3,6.3-1.3,9.5-5.4,14.1
	c1.9-4.3,4.7-7.3,3.5-12.1c-7.7,3.6-13.7,13.5-18.8,20.1c-6.7,8.5-13.2,17-19.8,25.7c-12.1,15.9-24,31.8-36,47.7
	c-11.2,15-23.6,28.9-35.9,43c-10.8,12.4-20.7,25.2-28.8,39.6c-1.6,2.9-6.2,15.4-10.7,14.4c-2.2-0.4-3.5-3.6-4.6-5.4
	c-2-3-3.9-6-5.8-9c-4.2-7-8.4-14-12.7-20.9c-3.6-5.8-8.3-9.8-3.6-16.3c8.9-12.3,16.8-25.3,26-37.5c10.5-14,21.6-27.6,32.4-41.4
	c10.3-13.3,19.8-27.3,30.3-40.4c10.3-12.9,20.6-25.7,30.4-39.2C2199.2,1250.2,2207.9,1235.8,2218.2,1222.4z M3004,943.5
	c-1.8,4.3-3.4,6.6-6.3,10.1c-3.2,4-5.5,8.6-8.1,13c-5,8.2-10.8,16-16.5,23.7c-12.2,16.3-26.5,30.7-38.8,46.8
	c-5.9,7.7-9.2,17-15,24.6c-5.3,7.1-13.5,11.4-19.7,17.7c-3.1,3.2-5.3,7.5-8.8,10.1c-3.5,2.7-8,4.4-11.7,6.7c-4.8,3-9.3,4.9-14.5,6.9
	c-4.5,1.7-8.1,3.8-12.9,4c2-1.8,3.8-4.2,6.1-5.6c2.1-1.3,4.1-1.3,6.4-1.8c4.7-1.1,8.1-4.5,12.8-5.7c-5.1-2.6-11,1.3-15.3,3.7
	c-5.6,3-11.2,5.8-16.8,8.8c-26,14-52.4,26.8-79.2,39.2c-26.5,12.3-52.8,25.3-79.7,36.6c-26,10.9-52.8,20.2-78.9,31.1
	c-27.6,11.5-55.2,23.3-82.4,35.7c-12.9,5.9-25.8,11.2-38.4,17.8c-12.1,6.2-24.3,12.4-36.4,18.6c-3.3,1.7-6.8,3.2-9.8,5.2
	c-2.9,1.8-5.2,4.2-8.5,5.5c-5.7,2.1-10.8,4.9-16.3,7.4c-12.7,5.8-24.5,13.1-36.9,19.4c-13.4,6.8-26.5,13.8-39.6,21.2
	c-12.2,6.8-25,12.5-36.9,19.7c-2.8,1.7-5.4,3.8-8.6,5c-2.6,1-5.2,1.3-7.7,2.7c-2.6,1.5-4.4,3.6-7.2,4.7c-3,1.2-4,1.7-6.6,3.7
	c-5.1,4.3-12,6-18,8.8c-5.9,2.8-11.4,6-17,9.1c-12.1,6.9-24.6,13.3-36.9,19.9c-6.4,3.4-12.6,7.5-18.9,11.2
	c-1.5,0.9-10.2,6.8-9.2,2.6c0.4-1.7,4.2-4.8,5.3-6c2.1-2.5,4.4-4.9,6.5-7.4c4.4-4.9,8.7-9.9,12.9-15c9.3-11.3,17.2-23.5,26.2-35
	c8.2-10.7,17.2-20.8,24.5-32.3c7.4-11.7,13.4-24.5,19.9-36.7c2.7-5.2,3.4-10.3,5.5-15.7c2.1-5.6,6.7-5.9,11.9-7
	c14-3.1,27.4-11,39.9-17.8c11.8-6.4,23.8-13,36.1-18.6c6.2-2.9,12.5-5,18.6-8.2c6-3.2,12.2-5.9,18.5-8.5
	c13.2-5.7,25.6-12.7,38.2-19.7c12.3-6.8,25-12.6,37.6-18.9c6.8-3.5,13.6-7.1,20.5-10.6c5.7-2.9,11.7-6.6,17.8-8.4
	c13.2-3.8,25.5-8.3,37.7-14.9c6.3-3.4,13-6,19.4-9.1c6-2.9,11.1-7.7,17.2-10.3c12.7-5.6,25.1-11.1,37.6-17.2
	c25.1-12.5,50.2-23.9,76.4-33.6c6.6-2.4,12.8-6,19.4-8.7c6.3-2.7,12.7-4.6,19.1-7c13.7-5.2,26.9-11.8,40.5-17.4
	c13.2-5.6,26.7-10.3,40-16c6.8-2.9,13.6-5.6,20.2-8.8c5.9-3,10.8-7,17.1-9c6.7-2.1,12.7-5.6,18.7-9c5.8-3.2,11.4-5.4,17.4-7.9
	c3.4-1.4,5.6-4.3,8.8-6c2.6-1.4,5.7-1.5,8.5-2.5c6.4-2.2,12.2-6,18.5-8.6c12.8-5.5,25.7-10.7,38.4-16.6
	C2979.4,956.7,2991.5,949.9,3004,943.5z M2741,1074.9c-5.3,1.2-10.6,2.7-15.8,4.3c-11.3,3.5-22.4,7.5-33.4,11.7
	c-22.6,8.7-44.4,19.9-66.2,30.4c-39.1,18.9-77.7,38.2-115.1,60.3c-18.7,11.1-37.3,22.3-56.1,33.4c-15.3,9.1-32.4,18.2-44.6,31.6
	c-3,3.3-9.1,10.3-3.8,14.3c3.2,2.4,7.7,1.3,11.4,1.2c4.9-0.2,8.5-0.8,13.2-2.2c10.1-3.1,20.6-4.1,30.6-7.6
	c9.5-3.4,19.1-6.9,28.2-11.3c4.5-2.2,8.8-4.7,13.4-6.7c4.9-2.2,10.1-3.2,14.9-5.3c4.3-1.9,8.5-4.1,12.8-6.1c3.3-1.5,6.1-3,8.8-5.2
	c3-2.5,7.2-2.6,10.9-4.1c4.3-1.8,8.6-3.8,12.9-5.6c5.4-2.4,10.7-4.7,16.1-7.1c3.6-1.6,7.2-3.1,9.7-6.5c-6-3-10.1,0.4-15.7,3.1
	c-6.4,3-12.8,6-19.2,9c-12.1,5.6-24,11.5-36.5,16.5c-12.1,4.9-24.2,10.5-36.6,14.6c-12.6,4.2-25.4,7.4-37.9,12
	c-5.9,2.2-10.3,3.8-16.6,3.9c-3.8,0.1-8.7,1.3-5.3-3.8c2.2-3.3,6.5-4.7,7.5-8.6c0.6-2.2,0-3.3,2.2-4.5c1.2-0.7,3.6-1.3,5-1.7
	c1.9-0.5,3.5-0.1,5.3-0.9c1.7-0.8,3.4-2.5,5-3.6c3.9-2.8,8.7-3.9,12.5-6.5c1.6-1.1,3.1-4.1,4.8-4.8c1.1-0.4,2.6,0.3,3.9-0.1
	c3.7-1.1,7-4.8,9.8-7.1c2.3-1.8,2.9-2.1,5.5-2.3c2.5-0.2,2.5-0.1,4.5-1.9c4-3.5,7.5-4.7,12.4-6.4c5.1-1.8,10-4.7,14.5-7.9
	c1.9-1.3,3.4-3.1,5.3-4.4c1.3-1,3-1.3,4.3-2.1c2.2-1.6,0-1.5,0.8-2.7c0.9-1.3,2.1-0.4,3.3-0.6c2-0.1,1.6-0.6,3-1.4
	c1.6-1,2-0.8,4.2-1.2c5.2-0.9,9.5-5.2,13.8-8.1c1.6-1.1,3.9-1.9,5.2-3.3c1.1-1.1,1.5-3.1,3.2-3.2c1.9-0.1,2.8,2.1,5.1,1.3
	c1.6-0.5,2.7-2.3,3.9-3.5c3.3-3.1,8.3-3.2,12.2-5.7c2-1.2,3.7-2.5,5.8-3.5c1.4-0.6,2.2-1.5,3.6-2.2c3.9-2.2,7.6-1.5,11.2-5.1
	c1.5-1.5,2.4-3,4.4-3.6c1.6-0.5,3.3-0.2,5.1-0.8c4.3-1.4,8.7-4.9,12.5-7.4c4.6-2.9,9-5.8,14.4-7.4c5-1.6,9.9-2.6,14.5-5.3
	c4.6-2.7,9.2-5.4,13.8-8.3c4.2-2.6,9.2-3.5,13.7-5.3c4.6-1.8,10.8-3.4,14.8-6.3c3-2.2,6.6-3,9.5-5.3c2.2-1.6,3.4-3.4,6.1-4
	c2.2-0.5,4-0.4,6.1-1.3c2-0.8,3.5-1.8,5.7-2c2.8-0.3,2.8-0.4,4.9-2c4-2.9,9.5-3.7,14-5.3c5-1.9,9.5-4.7,14.3-7
	c0.8-0.6,1.5-1.2,2-2.1C2750.4,1072.4,2745.4,1073.8,2741,1074.9z M2997.3,871.6c4.5,6.3,7.7,14.5,11.5,21.4
	c3.7,6.7,7.3,13.4,10.9,20.1c2.5,4.8-0.9,6.1-4.8,7.5l-0.6,0.2c-6.5,2.2-12.6,5.3-18.6,8.7c-13.2,7.4-27.1,13.2-41.1,19.2
	c-14.4,6-28.3,12.9-43,18.2c-13.6,5-26.4,12.4-39.9,17.8c-6.9,2.8-14,5.8-20.2,9.9c-2.8,1.8-5.3,3.7-8.5,4.7c-3.4,1-6.5,1.5-9.8,3
	c-13.2,6.2-27.4,11.1-41.2,16c-14.5,5.1-28.7,11.4-43,17.2c-7.1,2.8-14.2,5.6-21.1,8.5c-6.1,2.5-12.2,6.8-18.5,8.3
	c-4.3,1.1-8.2,1.3-12.3,2.9c-1.9,0.7-3.9,1.5-5.7,2.3l-3.7,1.6c-6.9,3-13.6,6.5-20.4,9.5c-27.8,12.4-55.8,24.4-83.2,37.8
	c-6.9,3.3-13.5,7-20.5,9.9c-6.5,2.7-12,6.4-18.2,9.4c-13.1,6.4-27.1,10.4-39.9,17.1c-12.9,6.8-27.1,9.7-40.1,16.2
	c-14.1,7-27.8,14.4-41.4,22c-26.9,15-55.1,26.8-82.7,40.6c-13.6,6.8-26.6,14.2-39.9,21.5c-6.9,3.7-13.9,7.2-21.1,10.5
	c-4.9,2.2-11.1,6-16.4,6.6c-4.8,0.5-9.6-7.3-12.5-10.6c-4.1-5-5.8-10.1-7.7-16.2c-0.9-2.9-1.9-5.7-3.7-8.2c-1.2-1.6-4.8-3.3-5.4-4.8
	c-1.3-3,9.4-5.3,11.7-6.3c6.5-2.8,12.1-7.5,18.5-10.6c6.5-3.1,12.3-6.8,18.3-10.7c12.3-8.1,24.9-15.4,37.9-22.5
	c6.8-3.7,13.1-8.1,19.7-12c5.5-3.1,11.4-4.4,16.9-7.6c12.9-7.5,26.8-13.3,40.2-20.1c7.3-3.7,15-6.2,22.5-9.5
	c6.6-2.9,13.2-6.2,20-8.7c6.3-2.4,11.9-5.3,17.7-8.5c6.3-3.3,13.1-5.1,19.6-7.8c7.1-3,14.2-6.2,21.4-8.9c6.2-2.4,12.5-4.5,18.2-8.3
	c5.5-3.7,11.5-5.1,17.5-7.8c6.4-2.9,12.9-5.2,19.4-7.8c7.7-3,15-6.7,22.8-9.7c6-2.4,12.7-3.9,18.4-7.2c3.2-1.8,5.4-4,8.9-5.1
	c3-0.9,5.8-1.7,8.7-3c6.8-2.9,14-4.9,20.9-7.7c13.9-5.6,28.4-10.4,42.1-16.6c7.5-3.3,14.7-7.1,22.4-10.1c6.6-2.5,13.5-4.8,19.8-8.1
	c7-3.7,13.6-7.3,21.1-10c6.3-2.3,12.4-4.7,18.5-7.3c14.6-6.4,30.1-10.6,45-16.2c13.4-5.1,27.2-10.7,39.4-18.5
	c6.3-4.1,13.5-6.8,20.2-10.2c6.4-3.4,13-6.8,19.4-10.4c27-14.4,54.7-27.7,82.7-40c6.8-3,13.5-6,20.4-9c2.8-1.3,5.8-3.2,8.6-4.2
	C2995.4,869,2995.6,869.3,2997.3,871.6z M2620.5,1155.9c-9.4,3.1-18.6,6.3-27.8,9.6c-8.7,3.1-18.1,5.9-25.3,12
	c14.4-4.1,28.9-7.6,42.9-12.7c12.7-4.6,25.4-11.6,39.4-10.9c-5,6-12.2,9.1-18.8,13c-8.2,4.8-16.3,9.8-24.5,14.6
	c3.5,2.9,7.3-0.4,10.2-2.3c3.7-2.3,7.7-4.1,11.4-6.3c8.8-5,17-11.1,25.3-16.9c2.3-1.6,5.7-5.4,2.1-7.7c-2.1-1.4-5.5-0.3-7.7,0.1
	C2638.5,1150.2,2629.6,1152.9,2620.5,1155.9z M1912.8,338.3c5.8,4.8,2.1,10.2,3.8,16.2c1.6,5.8,7.2,1.3,10.8-0.1
	c0,5.9,0.1,11.8,0.1,17.8c-1.6-1.2-0.5-2.9-2.9-2.2c-0.3,0.1-1.9,1.8-2.2,2.1c-1.2,0.9-2.7,1.4-3.9,2.2c1.3,0.5,3.8,2.6,5,2.7
	c2.4,0.3,2.4-2,4-3.5c4.3,31.6,5.8,67.9,24.6,95.1c2.2,3.3,5.2,6.5,7.2,9.9c1.7,2.7,1.1,2.5-0.5,4.7c-0.6,0.9-1.7,2.4-1.2,3.5
	c1.1,2.2,2.5,0.7,4.1,1.4c2.4,1.1,2.7,3.8,3.6,6.2c0.9,2.4,2.4,4,3.4,6.2c0.6,1.2-0.7,1.3,0.9,2c1.3,0.7,2.5-0.7,3.7-0.9
	c2.2-0.2,0.7-0.6,2,0.8c0.5,0.6,2,3.3,2.1,4.2c0.1,2.8-2.5,3-4.7,4.3c1.9,1.1,3.9,1.9,5.6,3.3c0.5,0.4,0.8,1.9,1.5,1.9
	c1.5,0.1,3.8-2.2,4.8-3.1c1.4-1.3,2.5-3.9,4.4-4.5c2.8-0.9,4.3,1.8,6.5,2.4c2.9,0.8,5.7-1.1,8.6-1.5c3.4-0.4,6.8,0.1,10,0.4
	c7.8,0.8,15.4-0.1,23-2.3c12.3-3.6,24-11.5,34.2-19.3c9.8-7.6,14.9-19.1,19.6-30.2c5.3-12.3,10.6-24,13.5-37.1
	c3.1-13.8,3.8-27.9,3-42c-0.4-7.4-1.2-14.5-2.6-21.7c-1-5.2,1.6-11.1,7.3-12.5c3.3-0.8,6.2,1,9.4,0.7c2.2-0.3,4.1-3,5.9-3.1
	s4.7,3.7,5.8,4.9c2.4,2.1,4.8,4.3,7.2,6.5c5.1,4.6,10,9.4,14.7,14.4c2.2,2.3,2.7,5,4.6,7.5c1.7,2.2,3.8,2.5,5.1,5.2
	c1.3,2.8,1.3,4.2,4.2,5.7c2.5,1.2,3.5,0.9,4.9,3.7c1.1,2.4,1.9,5.3,2.6,7.8c0.8,2.7-0.1,7.4,1.9,9.5c0.6-2.3,0.7-6.4,3.6-6.9
	c1.6-0.3,2.8,1.5,4.3,1.2c1.6-0.1,2.4-2.1,4-1.8c3.9,0.9,2.1,5,0.9,6.9c-2.4,3.6-2.6,6.9,0.3,10.4c2.6-4.9,6.7-2.7,10.1,0
	c-2.6,1.5-5.8,2.4-2.5,5.1c0.7,0.6,5,3,5.8,2.8c1.2-0.5,0.3-2,1.8-2.6c0.9-0.4,2.8,0.5,3.4,1.2c1.8,2.1-0.6,7.7-1.1,10.2
	c2.2-1.8,3.1-5.8,6-6.6c3-0.8,6.7,2.1,7.2,4.8c0.4,2.3-1.6,4.4,1.2,5.5c3.6,1.4,7.5-3,10.9-2.9c3.5,0.2,4.8,4.7,7.8,6.5
	c2.9,1.7,4.2,4.4,7.4,5.5c8.2,2.5,10.2,12.1,16.8,17.2c2.1-3,2.2-3.9,5.6-4.7c1.4-0.4,3.8-1.5,5.3-1c2.4,0.8,2.1,3.2,3.7,4.7
	c1.8,1.7,3.8,1.2,6.1,1.2l0.2,0l0.3,9.9c1.6-1.7,1.9-6.1,4.6-2.8c1.8-3-0.2-6.9,5.2-6.3c3.5,0.4,6.5,3.1,9.5,4.6
	c8.9,4.5,19.5,5.5,29.2,5.3c2.2-0.1,6-1.3,8.1-0.9c1.7,0.4,1.4,0.6,2.4,1.8c0.8,0.9,0.4,2.5,1.9,1.9c1.2-0.3,0.7-2.9,1.1-3.7
	c1.4-4,5.1-3.5,8.7-3.4c4.5,0.2,5.8,3.6,8.4,7.1c1.7-2.7,2.8-5.6,5.6-7.5c3-2.1,7-3,10.3-4.8c3.5-1.8,6.6-4.2,9.8-6.3
	c2.8-1.8,6.1-3.1,8.7-5.2c2.7-2.2,4.4-5.2,7.3-7.3c3.2-2.2,6.4-4.4,9.6-6.8c6.4-4.8,12.5-10.1,17.5-16.4c5.2-6.6,9.3-14,13.3-21.3
	c1.8-3.5,6-14.2-1-15.6c-3-0.6-4.7,2.8-5.9,4.9c-2.2,3.6-4.4,7.3-7.1,10.6c-4.7,6.1-10.6,11.4-17.1,15.5c2.4-7.3,7.7-13.5,11.3-20.2
	c3.7-6.9,7.8-14.3,13.4-20c4.1-4.1,9.8-6.7,12.7-12c2.1-3.9,5.6-14.7,10.8-14.3c4,0.3,7.6,1.9,11.7,0.8c2.6-0.7,4.5-2.3,7.4-1.9
	c2.7,0.3,5.7,1.9,8.3,2.7c3.6,1.1,6.9,1.9,10,3.9c11.7,7.6,23.2,19,30.8,30.7c4.2,6.4,1,12.8-1.1,19.4c-2.1,6.6-4.2,13.2-7,19.4
	c-6.4,14.1-12.7,28.2-18.7,42.5c-5.6,13.7-11.4,27.2-18.6,40c-3.7,6.7-7.7,13.5-12.1,19.7c-3.7,5.2-8.4,9.5-12.7,14.2
	c-11.2,12.2-22.4,24.3-33.7,36.4c-9.9,10.6-21.8,18.7-34.2,26c-0.9-2.4-2.1-0.6-3.9-0.4c-2.3,0.2-5-1.6-7.2-2.5
	c-1.7-0.8-3.6-2.2-5.4-2.6c-1.8-0.5-2.4,0.5-4,0.4c-4-0.1-9.2-7.7-11.8-10.3c-4.6-4.5-9.2-9-13.8-13.5c-18-17.7-38.2-36.5-61.9-46.3
	c-21.1-8.8-45.1-5.1-65,4.7c-7.7,3.8-20.1,14.6-28.4,8.4c-1.9-1.4-5.8-3.9-7.1-5.9c-1-1.5,0.2-4.4,0.2-6.7c0.2-4.8-1-9.7-2.7-14.1
	c-3.5-9.9-9.2-19-14-28.2c-5.8-11.1-11.6-22.3-16.4-33.9c-4.6-11.1-10.3-23.5-12.1-35.5c-0.5-3.5,1.6-10.7-3.5-11.4
	c-4.9-0.7-6.5,4.6-6.4,8.3c0.2,10.3,4.2,21.7,7.5,31.3c3.8,11.2,8.7,22,13.7,32.7c5.1,10.7,10.5,21.3,15.8,31.9
	c2.3,4.7,4.2,9.3,3.3,14.6c-0.8,5-3.2,9.7-4.3,14.5c-1.2,5.5-1.9,11.3-4.4,16.4c-1.5,3-4.4,5.5-4.1,9.1c0.3,4,4.6,4.9,1.7,8.5
	c-2.9,3.5-6.4,6.6-9.7,9.6c-8.4,7.7-17.7,14.8-25.6,22.9c-1.9,1.9-10,13-13.3,10c1.3,3.1-10.8,11.7-12.7,13.5
	c-7.5,7.1-14.9,14.3-22.3,21.5c-14.9,14.6-30.1,29-44.1,44.4c-6.8,7.5-14.2,13.4-22,19.8c-4.1,3.4-7.9,7.2-11.9,10.7
	c-3.9,3.5-5.8,4.7-10.7,5.6c-3.6,0.7-5.3,3-7.5,5.8c-3,4-6.3,7.8-9.6,11.6c-6.9,7.8-14.2,15.3-21.5,22.8c-5.4,5.4-10.8,11-15.7,16.9
	c-4.2,5-8.1,10.3-13.7,14c-1.4-2.4-2.7-4.6-4.1-7c-0.5,2-1,4.2-0.8,6.4c0.2,1.2,1.4,3,1.5,3.9c0.2,2.2-3.5,6.1-5,7.8
	c-5.3,6.3-10.6,12.7-15.8,19.1c-5.3,6.4-9,13.9-14.2,20.4c-2.3,3-4.9,6.7-8,9c-2.8,2.1-3.9,1.1-6.4-1.1c-1.1,4.4-0.6,5.8-4.9,7.6
	c-3.4,1.4-5.1,3-6.9-1c-3.7-8.6-6.8-18.1-9.1-27.1c-2.5-9.3-4.3-19.1-5.7-28.6c-0.7-4.6-1.3-9.2-1.2-13.8c0.1-3.9-0.3-4.5-2.3-7.7
	c-2.4-3.8,0.8-3.9,0.9-7.3c0.1-2.9-4.1-4.1-3.6-7.5c0.2-1.4,1.6-2.3,1.6-3.7c0.1-1.6-1.2-2.5-1.8-3.8c-0.6-1.5-1.1-1.9-0.5-3.5
	c0.5-1.2,1.9-0.6,1.6-2.1c-0.5-2.4-4.4-2.9-4.2-6.6c0.1-1.4,1.3-2.5,1.4-3.6c0.1-0.9-0.9-2-0.7-3.3c0.4-2,1.3-2.8,1.2-5
	c-0.1-1.7-0.3-3-0.1-4.7c0.5-3.8,0.9-6.6,0.2-10.5c-0.8-4.2-2.6-8.3-2.1-12.7c0.3-2.8,1.7-5.9,1.1-8.8c-0.7-3.5-4.8-4.9-6.6-8
	c-2-3.7-2.6-8-1.9-12.1c1.1,2,2.2,3.9,3.3,5.9c0.1-2,0.7-4.3-0.1-6.2c-0.6-1.4-1.7-1.5-2.6-2.6c-1.8-2.4-0.1-1.6,0.4-4.2
	c0.3-1.4-0.7-2.9-0.9-4.2c-0.2-1.6,0.1-3.1,0.1-4.6c0.1-3.2-1-5.1,0.8-7.9c3.6-6,9-11.5,13.1-17.2c2.3-3.1,4.8-6.3,7.1-9.5
	c2.2-3,1.8-4.4,0.9-8c-7.7,4.9-12.3,13.4-17.7,20.4c-5.9,7.6-12.9,14.4-19.1,21.6c-12.2,14.2-25.7,27.7-39.6,40.3
	c-6.9,6.2-13.9,12.2-20.8,18.2c-6.4,5.6-12.6,11.3-20.4,15.1c-6.6,3.2-14.9,7-21.7,2.2c-3.3-2.4-3-5.9-5.4-8.8
	c-1.2-1.5-2.2-0.8-3.4-1.6c-1.8-1.2-1.2-0.2-1-2.4c0.1-2,1-1.9,0-4.1c-0.7-1.5-2.1-2.9-3-4.3c-1.9-3.1-3.4-6.1-6.5-8
	c-2.2-1.4-1.5-0.6-2.4-2.5c-0.5-1-0.3-1.6-1.2-2.5c-1.8-2-5.4-2.5-7.7-3.6c0.6,0.2,1.2,0.4,1.8,0.5c-0.8-2.9-3-5.1-3.8-7.9
	s-0.3-4-2.5-6.2c-1.8-1.9-4.2-2.9-5.9-4.9c-1.9-2.2-3.1-4.9-4.8-7.3c-2.9-4.1-7.6-6.4-9.3-11.1c-0.5-1.4-0.5-2.7-1.7-3.7
	c-0.5-0.4-1.5-0.2-1.9-0.6c-1.5-1.4-1.4-3.7-3.1-5c-1.5-1.2-4.1-0.6-5.5-1.9c-1.8-1.6-0.9-3.3-0.5-5.4c1.2-5.9-3.2-5.8-6.4-9.6
	s-5.1-8.8-7.7-13.1c-1.4-2.5-2.6-3.1-4.7-4.8c-1.8-1.4-1.6-0.6-1.3-3.4c-4.9,1.4-6.9-9.3-8.6-12.4c-0.6-1.1-1.9-3.7-3.1-4.2
	c-0.7-0.3-2.8,0.5-2.9,0.6l0,0l-0.7-0.4c-1.4-0.8-3-3.7-3.2-4.9c-0.1-1,0.8-1.3,0.4-2.5c-0.3-1.1-2.1-2-2.9-2.6
	c-4.4-3-12.3-9.3-11.3-15.7c12.8,8.6,25,18.4,38.3,26.2c11.2,6.5,22.9,8.3,35.8,7.1c7.6-0.7,15.3-1.8,22.7-3.9
	c6.2-1.7,12.2-4,18.6-5.1c2.7-0.5,4.2-0.6,5.7,1.5c1.4,1.9,0.3,3.4,3.3,2.8c4-0.8,5.8-5.6,9.1-0.7c0.2-6.1,5.3-9.8,10-12.7
	c6.5-4,12.5-8.4,18.5-13.1c11.1-9.1,20.9-20,28.1-32.6c12.9-22.4,19.2-47.7,25.5-72.5c6.8-26.3,15.3-52.6,25.9-77.7
	c5-11.7,11.4-22.3,19.7-31.9c8.1-9.4,17.3-20.4,29.1-25.4c6-2.5,12.1-4.8,18.1-7.1C1901.7,336.6,1907.6,334,1912.8,338.3z
	 M1581.2,598.5l113.2,154.9l-1.6-0.1c-4-0.1-8.1-0.2-12.1-1.2c-2.4-0.6-7.5-3.3-9.8-1.9c-0.6,0.4-0.2,1.6-0.7,1.9
	c-1.2,0.7-1.7,0.8-3.3,0.8c-3.9,0.1-7.7-1.3-11.5-1.8c1.4-4-1-6.5-3.8-8.8c-1.3-1-3.6-3.3-5.4-2.4c-2.2,1.1-0.9,4.4-4.3,3.5
	c-0.9-0.2-1-1.6-2.1-1.8c-1.2-0.2-1.5,1.1-2.6,1.2c-2.5,0-3.9-3.7-6.5-3.2c-1.8,0.4-1.9,2.7-3.7,3.4c-3,0.9-3.5-1.4-4.1-3.5
	c-1-3.2-1.4-5-4.9-6.2c-0.2,3.1,1.3,7.1-2.7,7.1c-3,0-6.8-2.2-7,2.6c-18.8-4.8-36.4-12.8-53.1-22.3c-15.7-8.9-28.2-21.1-40.9-33.7
	c-5.8-5.7-12.5-11.3-17.7-17.7c-2.8-3.4-2.2-6.2-1.9-10.3c0.1-1.8,0.2-3.3-0.2-5c-0.3-0.8-1.4-2.2-1.2-2.9c0.6-2.8,5.9-2.4,8.1-2.8
	c3.9-0.7,7.8-2,11.6-3.1c8.1-2.5,16.1-5.6,23.3-10c15.1-9.2,26.1-21.5,38.1-34.2c1.5,2.3,3,4.7,4.6,7
	C1579.7,604.5,1580.4,601.5,1581.2,598.5z M1616.9,731.6c-0.9,0.8-0.5,1.1,1,1.1C1617.5,732.3,1617.2,732,1616.9,731.6z
	 M2106.2,614.9c1.3,4,4.3,2.4,6.9,2.3C2111.4,614.7,2108.9,614.3,2106.2,614.9z M2103.6,617.3c0,0.1-0.1,0.2,0.1,0.3
	C2103.6,617.5,2103.6,617.4,2103.6,617.3z M2488.4,460.1c-0.2,2.9-1.3,6-3,8.3c-1.9,2.6-4.5,3.2-6.9,5.1c-4.1,3.4-3.3,9.3-4.3,14
	c0.2,0.9,0.5,1.6,1,2.3c2.5-1.7,2.8-4.8,5.4-6.2c1.2-0.7,2.2-0.5,3.2-1.4c0.9-0.9,1.3-2.6,2-3.7c1.8-2.8,4.5-4.7,5.9-7.9
	c1.4-3.2,1.7-6.7,2.6-10c-1.6-0.3-1.6,1.9-3.1,2C2489.3,463,2489.2,461.3,2488.4,460.1z M2103.4,535c-0.6,0.2-2.5,0.4-2.5,1.2
	c-0.3,3.1-0.2,6.4-0.1,9.4C2104.5,542.9,2103.8,539,2103.4,535z M1517.7,649.5c-0.1,2-0.3,3.8,2,4.5c0.7,0,1.4-0.1,2.2-0.5
	C1520.5,652.2,1519.1,650.8,1517.7,649.5z M2219.6,470.8c-0.1,1.9-0.2,3.6-0.3,6C2224.4,473.4,2224.4,473.3,2219.6,470.8z
	 M2215,456.8c-1.2,0.3-2.2,0.7-3.3,1.1c1.5,1,3.5,2.1,4.5,3.8c0.5,0.7,0.1,2.8,0.8,3.4c2.1,1.7,5-1.2,6.7-2.2
	c-2.1-0.7-4.3-1.3-5.8-3C2217.3,459.5,2215.8,456.6,2215,456.8z M2218.4,445c-0.1,2.8-1.9,6-0.3,8.7c1.1,2,2.6,2.5,4.1,1.2
	c2.3-1.9,2.2-4.7,0.2-6.2c-0.5-0.3-1.2,0.1-1.7-0.4C2219.8,447.4,2219.4,446,2218.4,445z M2470.8,385.4c0.7,0.8,1.9,1.3,2.3,2.3
	c0.3,0.8-0.6,1.7-0.3,2.4c0.6,1.7,1.1,2.1,3.1,1.9c4.2-0.4,6-6.2,1.2-7.1C2474.8,384.6,2472.8,385.3,2470.8,385.4z M2206.3,439.5
	c-0.5,1.3-4,9.2-0.4,7.2c1-0.5,2.7-3.7,3-4.9c0.1-0.4,0.8-1.2,0.7-1.7C2209.3,439.2,2206.9,438.2,2206.3,439.5z M2190,441.5
	L2190,441.5c-0.2,0.6-0.2,1-0.2,1.5c-2.7,2.8,5.7,5,7.1,5.7c0.5-3.6-0.3-3.3-3-4.8C2193.4,443.7,2190.7,441.5,2190,441.5L2190,441.5
	z M2504.5,364.9l-0.9,1.4c1.6,0,1,2,2.2,2.4c2,0.5,2.6-0.4,3.3-2.2C2507.6,366,2506.1,365.5,2504.5,364.9z M2146.7,374.6
	c-0.1,0.2,0,0.4-0.1,0.6C2146.8,375,2147.3,375.2,2146.7,374.6z M2146.2,365.6c-0.7,0.2-1.2,0.5-1.9,0.8c0.7,1.7,1.5,3.5,2.2,5.2
	C2148.8,370.2,2146.7,367.3,2146.2,365.6z"/>
<g id="Ink_1_" transform="translate(249.163097, 43.140592)">
	<path id="Fill-11" class="st1" d="M1276.4,304.5c0.3,0.3,0.7,0.7,0.9,0.9C1276.3,303.4,1276.1,303.1,1276.4,304.5"/>
	<path id="Fill-13" class="st1" d="M2168.5,374.3L2168.5,374.3L2168.5,374.3z"/>
	<path id="Fill-15" class="st1" d="M2768.2,876.5c-14.2,3.9-26.3,13-39.4,19.3c-14,6.6-28.6,11.9-42.8,18.1
		c-6.8,3-13.7,6.1-20.7,8.5c-6.9,2.5-13.3,5.7-20,8.8c-13.3,6-27.8,11.4-40.5,18.8c-12.5,7.3-26.6,11.2-39.9,16.4
		c-14.4,5.7-29.1,10.7-43.5,16.6c-14.2,5.8-28.3,11.7-42.5,17.5c-6.8,2.8-13.2,6.9-20.2,8.7c-7.9,2.1-15.4,4.6-22.9,7.8
		c-29.1,12.4-57.7,26.1-86.3,39.5c-7,3.3-13.9,6.6-20.9,10c-7,3.4-14.6,6.2-21.5,9.9c-12.6,6.9-25.5,13.9-39.4,17.8
		c-6.9,2-12.7,6.4-19.3,9.3c-6.9,3.1-14.2,5-21.3,7.4c-14.3,4.9-27.9,13.4-41.2,20.5c-13.2,7.1-26.2,15.1-39.7,21.6
		c-14.2,6.9-28.8,12.9-42.8,19.7c-27.4,13.4-53.3,30-81.6,41.6c-2.2,0.9-5.6,2.8-8.1,2.4c-2.5-0.4-4.4-3.2-6-5
		c-5-5.1-9.4-10.1-11.7-16.9c-2-6.2-3.2-12.4-8.7-16.7c-1.6-1.3-3.2-1.2-1.4-3.4c1.2-1.4,6-2.1,7.7-2.9c6.2-2.4,11-6.6,16.9-9.5
		c6.7-3.2,13.1-6.5,19.4-10.4c12.6-7.9,25.5-15.3,38.4-22.7c6.4-3.6,12.6-7.4,18.7-11.4c2.9-1.9,5.8-4.2,9.1-5.4
		c3.6-1.4,6.9-2,10.3-3.9c13.4-7.8,27.5-14.2,41.5-20.8c13.3-6.3,26.9-12.9,40.7-17.7c6.9-2.4,13-5.5,19.5-8.9
		c6.8-3.6,14.3-5.8,21.3-8.8c12.4-5.4,26.9-9.1,38.2-16.7c5.3-3.6,10.7-4.8,16.7-7.2c7.2-3,14.5-6,21.7-8.9c7-2.8,13.8-6,20.7-8.9
		c6.9-2.9,15-4.7,21.4-8.8c11.4-7.1,25.2-9.9,37.6-15.2c14.5-6.3,29.5-11.3,43.9-17.6c14-6,28.6-11.3,42.2-18.2
		c6.4-3.2,12.2-6.5,19-8.8c7.4-2.5,14.5-5.7,21.7-8.8c13.4-5.6,27.5-9.3,41.1-14.7c27.5-11,53.4-25.5,79.6-39.3
		c13.4-7,26.8-14.1,40.7-20c6.6-2.8,12.5-6.6,18.9-9.8c7.1-3.6,14.4-6.6,21.8-9.6c6.6-2.7,13.2-5.6,19.7-8.6
		c3.2-1.5,8.1-5.7,11.5-5.6c3.1,0.1,4,5.1,5.2,7.6c2.9,6.3,6.4,12.4,9.9,18.6c2.9,5.2,5.8,10.4,8.8,15.6
		C2771.3,870.7,2773.1,875.1,2768.2,876.5L2768.2,876.5z M2752.3,906.2c-6.6,6.1-10.1,14.6-15,22c-5.4,8.2-11.4,16.1-17.4,23.9
		c-6.2,8.1-12.7,16-19.3,23.6c-6.2,7.2-13,13.9-18.4,21.8c-5,7.4-8.1,16-13.9,22.9c-5.7,6.7-13.5,11-19.4,17.5
		c-2.7,3-5.1,6.5-8.5,8.9c-3.9,2.7-8.4,4.9-12.4,7.5c-4,2.5-8.1,3.9-12.5,5.5c-4.7,1.8-8,3.9-13.1,4.2c2.1-1.9,3.9-4.2,6.3-5.6
		c2-1.2,4-1.3,6.3-1.8c4.7-1.1,8.1-4.5,12.8-5.7c-4.8-2.6-10.7,1.1-14.9,3.5c-6.6,3.6-13.3,7-19.9,10.6c-13.2,7.2-26.5,14-40,20.6
		c-28.3,13.6-56.8,26.8-85.2,40c-14,6.4-28.5,11.7-42.4,18.2c-13.2,6.1-27.5,10.3-41.1,16.1c-28.5,12-57.2,23.8-85.7,36.1
		c-28,12.1-56.5,24.3-83.4,38.8c-12.6,6.8-25,14.4-37.8,20.2c-13.3,6-25.7,13.5-38.7,20.3c-13.4,7-27.3,13.2-40.4,20.7
		c-13.3,7.6-26.6,15.1-40.3,22.1c-2.9,1.4-5.4,3.1-8.1,4.8c-3.3,2.1-6.5,2.8-10.1,4.1c-2.9,1-4.7,2.7-7.3,4.3
		c-2.9,1.8-6.1,1.9-8.7,4.2c-5.1,4.7-10.8,6.7-17.2,9.4c-7.5,3.2-14.5,7.2-21.5,11.2c-12.9,7.5-26.3,14-39.3,21.2
		c-1.9,1.1-22.3,14.9-23.3,12.2c-0.6-1.7,4.6-6.2,5.8-7.5c5.2-5.8,10.4-11.7,15.5-17.7c9.1-10.8,17.1-22.5,25.5-33.8
		c8.7-11.8,18.8-22.5,27-34.8c7.7-11.7,13.3-24.7,20.2-36.9c3-5.2,5.1-10.2,6.5-15.9c1.5-6.3,4.7-8.3,10.9-9.6
		c13.8-2.7,27.6-10.3,39.9-17.1c12.4-6.9,25.3-14.8,38.6-19.8c13.6-5,26.1-12.2,39.3-18.1c14-6.2,27.1-13.8,40.5-21.2
		c13.4-7.3,27.3-13.7,40.8-20.6c6.3-3.2,12.5-6.5,18.7-9.9c6.9-3.7,13.8-5,21-7.4c13.5-4.6,25.6-11.7,38.6-17.4
		c6.5-2.8,12.1-5.8,17.8-9.8c5.9-4.1,12.7-6.2,19.2-9c14.1-6.3,27.7-13.9,41.7-20.6c13.4-6.4,27-12.3,40.6-18.1
		c6.5-2.8,13.2-4.7,19.8-7.2c7.4-2.7,14.2-6.6,21.5-9.6c28.2-11.3,56.1-23.2,84.3-34.3c14.5-5.7,28.8-11.6,42.4-19.5
		c5.8-3.4,12.4-4.9,18.3-8c6.3-3.3,12.2-7.4,18.8-10c3.5-1.4,7.2-2,10.4-3.9c2.2-1.3,3.9-3.3,6.1-4.5c6.5-3.5,14.3-5.3,21-8.5
		c13.7-6.6,28-11.9,41.8-18.3c13.4-6.2,26.3-13.4,39.4-20.1C2754,902.3,2753.9,904.8,2752.3,906.2L2752.3,906.2z M1902,1360
		c-9.1,10.6-18.7,20.9-27.4,31.9c-7.9,10-14.1,21-20.3,32c-2.1,3.7-4.4,9.1-8.7,4.6c-4.3-4.4-7.2-10.7-10.4-16
		c-3.5-5.8-6.9-11.7-10.5-17.4c-2.8-4.3-7-8.4-4.6-13.8c2.2-5,6.5-9.9,9.5-14.4c3.9-5.9,7.8-11.9,12-17.7
		c8.1-11,16.8-21.6,25.2-32.3c9-11.5,17.7-23.3,26.5-35c7.6-10.2,14.8-20.8,23.3-30.3c20-22.2,34.3-48.9,52.4-72.6
		c6.8,14.1,12.6,28.8,20.1,42.6c3,5.6,7.6,10.1,10.5,15.8c3.4,6.6-0.7,9.9-5,14.8c1.9-4.3,4.7-7.2,3.5-12.1
		c-5.3,2.5-8.7,7.7-12.3,12c-3.8,4.7-7.6,9.4-11.3,14.1c-8.3,10.6-16.3,21.3-24.5,32C1934.1,1319.1,1919,1340.3,1902,1360L1902,1360
		z M1836.6,1272c-9.3,2.7-17.9,7.5-27.3,10.1c-4.5,1.3-8.8,3.2-13.3,4.3c-5.1,1.3-10.4,1.5-15.5,2.9c-10,2.7-20.3,4-30.5,5.6
		s-20.3,3.5-30.6,4.1c-4.2,0.3-8.4,0.5-12.6,0.8c-3.4,0.3-8.6,1.3-10.8-2c-2-3.1-2.1-9-2.8-12.5c-0.7-3.2-1.2-6.5-1.9-9.7
		c-1-4.5-2.8-11.6-8.7-11c-3.4,0.3-6.3,3.4-9,5.5c-4.3,3.5-8.4,6.9-12.3,10.7c-3.9,3.7-7.7,7.6-11.2,11.6c-2.8,3.3-5.5,7.3-10.1,7.7
		c-4,0.3-7.9-1.7-11.8-2.4c-5.4-1-11.4-0.7-16.8,0.2c-1-8.3-2.1-16.5-3.1-24.8c-0.3-3-0.8-6.1-1.1-9.1c-0.4-3.2-1.7-7.2-1.6-10.4
		c0.2-5.2,10.2-4.1,14.3-4.7c8-1.1,16.1-2.2,24.1-3.1c3.8-0.4,12.1,0.2,14.8-3.1c3.3-4.1-0.3-16-1-20.6c-0.6-3.6-3.8-13-1.1-16
		c1.8-1.9,6.5-1.7,8.9-2.1c3.9-0.6,7.6-1.3,11.4-2.2c29.7-6.9,58-19.9,85.7-32.5c6.1-2.8,11.1-6.1,15.9,0.3
		c4.7,6.5,9.2,13.2,13.9,19.6c3.6,5.1,9.2,9.5,7.5,16.2c-1.8,7.4-4.5,14.9-6.9,22.1c-1.6,4.7-7.2,16.9,2.8,15.7
		c7-0.9,14.7-5.2,21.2-7.8c2.8-1.1,5.5-2.4,8.2-0.6c3,2,5.2,6.7,7.4,9.6c5.4,7.3,11.2,14.6,16.3,22.2
		C1844.9,1268.4,1841,1270.8,1836.6,1272L1836.6,1272z M1689.2,1300.8c-8.6,0.4-17.3,0.8-25.9,1.2c-2.2,0.1-14.6,2.5-13.5-1.5
		c0.4-1.5,4.4-4.1,5.5-5.2c3.1-3,6.3-6.1,9.4-9c6-5.5,12.3-10.5,19.4-14.6C1685.9,1281.4,1687.6,1291.1,1689.2,1300.8L1689.2,1300.8
		z M1602.7,1237.3c-0.9-5.4-2.7-12.1-2.4-17.7c0.2-5.2,4.3-6.9,9-7.4c5.8-0.6,11.6,0,17.5-0.5c7.2-0.7,14.3-2.1,21.3-3.9
		c1.7,8,4.8,16.8,4.5,25.1c-0.2,6.8-7.2,5.8-12.3,6.5c-8.5,1.2-17,2.8-25.6,3.6C1609.5,1243.4,1603.8,1243.7,1602.7,1237.3
		L1602.7,1237.3z M1770.5,1136.2c-0.2-0.3-0.4-0.5-0.6-0.9C1770.1,1135.7,1770.3,1136,1770.5,1136.2L1770.5,1136.2z M1749.7,1102.6
		c-1.3-2.3-3.2-4.1-4.4-6.4c-1-2-1.5-4.2-2.8-6c-3.1-4.1-7.4-7.3-10.3-11.7c-3.3-5-5.3-11.4-9.7-15.6c-1.9-1.8-3.3-2.7-4.7-5
		c-1.4-2.5-3-4.3-4.8-6.6c-2.7-3.6-4.5-7.1-7.6-10.7c-3.8-4.3-7.5-8.8-10.9-13.5c-1.6-2.1-3.3-8.4-6.2-9.2c-2.3-0.6-1.8,1.4-3.9-0.6
		c-1.7-1.6-1.9-2.8,0.3-4.2c-1.3-1.2-3-0.1-4.3-1c-1.3-0.9-1.5-2.8-2.2-4.2c1.6,0.2,3.2,0.3,4.9,0.5c-6.4-8.6-12.5-17.4-19.3-25.8
		c-5.8-7.2-10.4-15.4-17.7-21.1c-3.7-2.9-2.2-6.9-5-10.2c-1.1-1.2-2.6-2-3.6-3.3c-1-1.4-1.2-3.6-2.5-4.9c-1.7-1.7-2.6-0.2-4.5-0.9
		c-1.3-0.5-2.2-1.9-3.2-2.9c-0.5-0.5-2.3-2.3-2.4-3c0-2.4,1.9-0.5,2.8-1.9c-3.7-5.5-7.7-11-11.6-16.5c-1.8-2.5-6-12-9.8-8
		c-3.7-5.3-4.1-10.3-7.9-15.5c-5.4-7.4-10.5-15.1-15.6-22.5c-2.5-3.7-5-7.4-7.6-11.1c-2.2-3-5.2-4.1-7.7-6.5
		c-2.3-2.3-3.4-6.8-5.2-10c-7.3-12.8-17.4-23-26.3-34.6c-5.5-7.2-10.8-14.7-16.2-22c-2.6-3.5-5.5-6.9-8.2-10.4
		c-1.1-1.4-2-2.6-2.7-4.3c-0.4-0.9-0.4-3-1-3.8c-0.8-1-3.2-3.5-4.5-5.1c-1.8-2.4-4.9-3.4-6.1-5.9c-0.8-1.7-0.2-2.6-1.7-4
		c-1.7-1.8-2.5-1.8-3.5-4.4c-1.4-3.9-3.2-6.1-6.4-8.8c-3-2.6-4.9-5.3-7.1-8.5c-1.7-2.4-5.8-5.6-5.3-8.9c0.4-2.8,3.3-3.7,5.4-4.7
		c3.8-1.8,7.4-3.7,11-5.9c7.5-4.6,13.8-10.2,19.9-16.5c5.6-5.8,11.2-12.8,17.6-17.6c5.7-4.3,10.9-12,16-17.8
		c6-6.8,11.9-15.5,19.7-20.4c-4.5,21.2-3.3,42.4-0.6,63.8c2.7,22.3,7.2,43.8,12.3,65.6c5,21.2,8.8,42.6,16.9,63
		c3.8,9.8,8.5,19.2,12,29c1.6,4.7,6.3,17.4,12.8,16.9c4.1-0.4,5.8-4.8,10-1.4c3.1,2.4,4.2,6.3,6.1,9.4c2.1,3.4,6.4,4.6,6.6,8.8
		c0.1,2.1-0.8,2.9,1.1,4.5c1.1,0.9,3.6,1.9,5,2.8c-0.1-0.7-0.9-2.3-0.6-2.9c0.4-0.8,1.6-0.5,2.2-1.2c-0.5,0.8-1.6,0.6-1.8,1.4
		c-0.7,1.8,1.4,4.4,2.2,5.8c2.1,3.2,4.6,5.9,7.5,8.4c2.8,2.4,5.4,5.7,8.5,7.7s6.4,2.2,9.3,4.8c2.5,2.1,4.4,4.8,7.6,6
		c3.6,1.4,5.6,2.8,8.5,5.4c6.4,5.5,16.4,7.5,24.2,10.1c8.4,2.9,17.7,4.8,26.4,2.3c1.3-0.4,2.7-1,4.1-1.1c2.4-0.1,2.2,1,3.9,1.7
		c2.5,1.2,4.9,0.5,7.7,0.1c9.2-1.2,18.7-3,27.9-3.8c4.5-0.3,18.5,1.1,19-5.6c7.1,3.1,12.3-0.6,18.8-3.5c6.3-2.9,14.9-2.7,20-7.9
		c2.7-2.7,2.9-3.5,6.8-4.5c3.3-0.9,6.6-1.5,9.4-3.5c2.7-2,3.9-3.4,7.1-4.7c3.8-1.4,6.5-3.8,9.8-6.2c12.1,21.9,28.5,40.3,36.3,64.4
		c3.9,12.2,5.5,24.1,6.1,36.8c0.2,5.5,0.5,10.6-1.4,15.8c-2,5.4-5.3,10.5-8.7,15.2c-6.5,9.2-14.6,17-23,24.4
		c-8.9,7.8-17.8,15.7-27.6,22.3c-9.9,6.8-19.7,13.8-29.3,20.9c-10.3,7.7-20.8,12.6-32.7,17.3c-3,1.2-5.9,2.5-8.8,3.9
		c-2.3,1.2-5.6,3.8-8.4,2.8c-3.3-1.2-6-7.7-8-10.6c-3.4-4.9-6.4-10.7-10.8-14.9c-1.5-1.4-2.3-2.3-3.4-4
		C1753,1104.6,1752.4,1102.7,1749.7,1102.6c0,2-0.5,5.8,2.4,6.2C1749.9,1108.5,1749.7,1107.1,1749.7,1102.6L1749.7,1102.6z
		 M1725,1075.4c0.2,0.3,0.3,0.4,0.4,0.6C1725.3,1075.9,1725.1,1075.6,1725,1075.4L1725,1075.4z M1665.3,989.7
		c-0.4-0.4-0.8-0.8-1.2-1.2c1-0.6,1.3-0.4,2,0.4C1665.9,989.1,1665.7,989.4,1665.3,989.7L1665.3,989.7z M1558.1,841.4
		c-1.3-1-1.2-0.8-0.7-1.9C1558.7,839.8,1559,840.5,1558.1,841.4L1558.1,841.4z M1559.4,843.8c-0.6-0.2-0.6-0.5-0.2-0.9
		C1559.7,843.1,1559.8,843.4,1559.4,843.8L1559.4,843.8z M1559.7,850.4c0.4,0.8,0.9,1.4,1.7,1.7
		C1560.7,851.8,1560,851.2,1559.7,850.4L1559.7,850.4z M1548.5,833.1c0.1,0.8,0.1,1.7,0.1,2.5c0-1.6-0.2-3.2-0.7-4.9
		c0.7,1.8,0.2,2,1.9,3.3C1549.4,833.8,1548.9,833.4,1548.5,833.1L1548.5,833.1z M1617.4,843.9c0-0.3,0.1-0.7,0.2-1.1
		C1617.5,843.2,1617.5,843.5,1617.4,843.9L1617.4,843.9z M1735,941.3l-0.1-1.2L1735,941.3z M1782.1,940.8c0.2,0.8,0.4,1.5,0.6,2.3
		C1782.5,942.3,1782.3,941.6,1782.1,940.8L1782.1,940.8z M1768.1,946.7c0.1-0.1,0.2-0.1,0.2-0.2
		C1768.3,946.5,1768.2,946.6,1768.1,946.7L1768.1,946.7z M1805,939.2c-1.2,0.8-1.9,2-2.8,3C1802.3,941.5,1804.5,939.6,1805,939.2
		L1805,939.2z M2226.9,963.3c-2.4-0.5-5.5-2.1-4.2-5c-2.6,0.1-3.2-2.4-4.3-4.2c-1.9-3-4.5-5.4-6.9-7.9c5.9-4.2,12.8-6.4,19.3-9.1
		L2226.9,963.3z M2223.1,972.5c1.3-3,2.5-6.1,3.8-9.2C2226.8,965.9,2224.2,970.2,2223.1,972.5L2223.1,972.5z M2120.8,837.5l0.6-0.7
		C2120.8,837,2120.6,837.3,2120.8,837.5L2120.8,837.5z M2099.2,807.8c-0.4,0-0.8-0.2-1.1-0.8
		C2098.4,807.5,2098.8,807.8,2099.2,807.8L2099.2,807.8z M2090.6,796.4c-2.8-1.1-5.1-3-7.2-5.4
		C2085.5,793.3,2087.8,795.3,2090.6,796.4L2090.6,796.4z M2082.7,790.1c-0.4-0.6-0.9-1.2-1.3-2
		C2081.8,788.8,2082.3,789.5,2082.7,790.1L2082.7,790.1z M2084.2,784.5c-0.9,0.1-2.4,0.2-3.2,0.9
		C2081.5,784.9,2082.6,784.6,2084.2,784.5L2084.2,784.5z M2105.6,807.3c-0.7-0.1-0.9-1-1.5-1.2c-0.7-0.4-1.6-0.1-2-0.4
		c-1.6-0.9-1.1-0.3-1.8-2.5c-0.8-2.8-2.9-4.1-4-6.2c-1.4-2.8-0.6-4.5-3.5-6.3c-3.4-2.2-7.6-3.9-9.5-7.9c-0.9-1.9-0.6-3.6-1-5.5
		c-0.3-1.4-2.2-3.8-1.9-5.2c0.6-2.4,7-4,9.1-5c10-4.7,20.1-9.4,30.1-14.1C2116.8,771.5,2113.2,790.1,2105.6,807.3L2105.6,807.3z
		 M2114.8,831.3c0.1,0.2,0.4,0.3,0.5,0.4c-0.5-0.4-1-0.9-1.5-1.3C2114.2,830.9,2114.6,831.1,2114.8,831.3L2114.8,831.3z
		 M2136.6,1031.6c-0.8-5.5,0.2-11,0.2-16.5c0-6.1-0.8-12.3-2-18.3c-2.4-11.4-6.1-22.7-9.2-33.9c-6.4-23.3-15.2-45.9-23.7-68.6
		c-8.1-21.6-17.2-42.6-31.7-60.7c-6.6-8.2-14.5-16.1-19.1-25.7c-1.1-2.1-1.5-4.7-2.7-6.7c-1.3-2.2-3.2-3-5.1-4.6
		c-4.4-3.7-7.7-9.3-11.2-13.8c-3.2-4.2-6.1-8.7-9.7-12.7c-1.5-1.5-3-2.8-4.7-3.9c-1.3-0.7-3.8-1.2-4.8-2.4c-2-2.4,1.2-5.4,2.7-7.7
		c3.4-5.8,6.2-11.9,9.3-17.9c6.6,15.6,13.1,30.7,22.6,44.7c9.2,13.5,18.9,26.7,29.1,39.5c19.8,25,39.4,50.2,58.5,75.6
		c4.4,6,9.4,11.2,14.3,16.8c5.4,6.3,10.3,13,15.7,19.5c10.1,12.2,19.3,25.2,29.6,37.2c10.2,11.9,21.9,22.3,32.8,33.6
		c2.9,2.9,12.5,10,12.1,14.5c-0.2,2-2,2.4-3.6,3c-4.1,1.7-8.6,2.9-12.7,4.6c-8.2,3.4-15.9,7.7-24.1,10.8c-7.2,2.8-14.6,4.8-21.2,8.8
		c-3.9,2.4-7.7,3.3-11.9,4.9c-4,1.6-7.6,3.8-11.4,5.6c-8.3,4.1-17.2,7.3-25.7,11C2132.9,1056.5,2138.3,1044.4,2136.6,1031.6
		L2136.6,1031.6z M2088.2,895.7c4.4,11.1,8.7,22.3,13.2,33.5c-10.8-1.7-22.1-2.3-32.2-6.6C2074,912.7,2081.6,904.3,2088.2,895.7
		L2088.2,895.7z M2035.2,809.7c4.2,0.5,3.6,2.5,2.6,6.3c-1,3.9-1.9,7.7-2.6,11.7c-1.6,10.6-2.7,21.1-3.9,31.7
		c-1.2,10-2.3,20-3.2,29.9c-0.1,1.3,0.1,6.2-1.7,6.5c-2,0.3-5.7-7.9-6.6-9.3c-5.6-8.8-11.6-17.5-18.2-25.6c-2-2.4-6.2-5.7-6.6-9.2
		c-0.4-3.3,2.7-5.6,4.8-7.6c7.5-7.2,14.9-14.4,22.3-21.6c2.5-2.5,5-5,7.2-7.8C2030.4,813.4,2033,809.4,2035.2,809.7L2035.2,809.7z
		 M1931.6,1003c-0.1-0.5-0.3-0.9-0.4-1.3C1931.3,1002.1,1931.4,1002.5,1931.6,1003L1931.6,1003z M1931.2,1001.6
		c-0.1-0.5-0.2-0.9-0.2-1.3C1931.1,1000.7,1931.1,1001.1,1931.2,1001.6L1931.2,1001.6z M1794.5,1171.2c-0.2,0-0.3,0-0.5,0
		C1794.2,1171.1,1794.4,1171.1,1794.5,1171.2L1794.5,1171.2z M1805.2,1207.3c2.8,3.7,5.5,7.5,8.4,11.2c1.7,2,5.4,5.2,4.4,8.2
		c-0.9,2.8-5,3.1-7.3,3.9c-4.4,1.3-8.8,3-13,4.5C1800.2,1225.8,1802.7,1216.6,1805.2,1207.3L1805.2,1207.3z M1795.3,1171.4
		c0.6,0.6,0.5,1.9,1,2.6C1795.9,1173.3,1796,1172,1795.3,1171.4L1795.3,1171.4z M1830.9,1219.4c-1.3-0.8-0.7-3.7-1-5
		c-0.8-2.9-1.3-1.8-3.5-2.8c-4.3-1.9,1-5.2-2-8.6c-0.5-0.6-1.7-0.4-2.2-1.1c-0.4-0.5-0.4-1.3-0.7-1.8c-0.9-1.5-1.9-3.3-2.9-4.8
		c-1.6-2.5-4.3-8.3-8.1-6.6c2.1-8.5,4.2-16.9,6.1-25.4c12.8,19.6,26.6,38.9,44.2,54.4c-9.6,2-19.2,4.6-29,5.4
		C1833.5,1221.6,1831.2,1220.9,1830.9,1219.4L1830.9,1219.4z M1863.1,1261c-0.7,0.5-1.4,0.4-2.3,0
		C1861.7,1261.4,1862.4,1261.4,1863.1,1261L1863.1,1261z M1954.6,1173.2c-9.3,10.4-18.4,21.1-27.1,32.1c-7.2-11.9-10.5-25.5-14-38.7
		C1926.9,1170.5,1941.1,1170.1,1954.6,1173.2L1954.6,1173.2z M2036.8,1112.4c-3.2,1.1-6.4-0.2-9.6-0.7c-3.7-0.6-7.4-0.4-11.2-0.2
		c-8,0.4-15.9,0.6-23.9,1c8.2-16.8,16.4-33.5,24.7-50.3C2020.5,1080,2029.7,1095.8,2036.8,1112.4L2036.8,1112.4z M2071.7,1051.7
		c3,3.7,6.1,7.4,9.1,11.1c1.9,2.3,4.3,6.9,6.9,8.5c3.2,2,5.6-0.9,4.3-4c-1.4-3.4-5.4-6.8-7.8-9.5c-2.4-2.9-5.6-4-2.5-6.9
		c2.5-2.4,6.2-4.3,9.2-5.8c8.9-4.6,18.8-6.7,28.6-8.3c-1.8,8.8-4.7,17.4-7.9,25.7c-1.4,3.6-3.1,6.9-5.2,10c-1.7,2.5-1.8,5.3-3.5,7.7
		c-1.9,2.7-5.1,4.2-8,5.6c-3.4,1.6-6.3,3.6-9.5,5.6c-3.4,2.2-7.8,2.6-10.9,4.9c-2.9,2.2-5.3,3.9-8.6,5.5
		c-6.7,3.1-12.1,8.5-18.8,11.4c-3.3,1.3-3.3,0.7-5.1-2.5c-1.5-2.6-2.5-5.5-3.6-8.3c-6.9-17.2-13.4-34.7-20.3-51.9
		c-6.1,11-11.2,22.5-17.3,33.5c-3,5.4-6.5,10.8-9.7,16.2c-2,3.3-6.3,8.7-5.4,12.9c1.3,6,11.3,5.4,15.8,5.2c11.7-0.6,23.5-2.6,35,0.4
		c-2.5,4.2-7.3,6.1-11.3,8.5c-5.3,3.3-10.5,6.9-15.8,10.4c-2.7,1.8-5.2,3.8-8.1,5.3c-2.9,1.6-6.3,2.1-9.3,3.5
		c-2.3,1.2-3.9,3.2-6.1,4.6c-2.4,1.5-5.1,2.1-7.8,3.1c-5.8,2.1-10.7,5.4-15.8,8.9c-5,3.4-9.7,3.8-15.6,3c-12.6-1.6-25.5-2.2-38-4.8
		c0.9,12.1,3.2,25.5,8.8,36.3c2.1,4,6.8,8.6,4.9,13.3c-1.5,3.8-6.6,7.4-9.3,10.6c-8.2,9.4-16.1,19.3-25.9,27.2
		c-4.8,3.9-9.9,6.7-15.7,8.9c-1.9,0.7-5.9,2.8-7.7,2.3c-0.4-0.1-0.5-1.2-0.9-1.4c-1.5-0.5-1.9-0.5-3.7-0.3c2.3-4.7-2.6-3.6-5-5.9
		c5.7-6.9-7.1-10.3-9.7-14.6c4.2-0.5,2.3-3.1,0.3-5.3c-2.9-3.1-6.1-2.3-10.2-2.3c3.1,0.1,6.1,0.5,9.2-0.1c3-0.5,5.7-1.8,8.5-2.8
		c3.3-1.1,13-2.2,14.3-5.9c1.2-3.8-5.1-8.5-7.3-10.9c-4.7-5-9.9-9.6-14.4-14.9c-8.5-10.1-16.2-21-23.5-32c-3.5-5.3-7-7.3-9.5,0
		c-1.9,5.3-1.6,11.4-4.4,16.4c-3.1-2.3-3.9-4.5-5.8-7.8c-2.2-3.6-5.3-6.3-7.8-9.6c-5.3-7.3,4.9-7.4,9.7-9c8-2.6,14.6-7.8,21.7-12.2
		c7.6-4.7,15.1-9.4,22.2-14.7c14.3-10.5,29.2-20.4,41.9-32.7c11.7-11.4,24.6-22.2,33.2-36.4c4.6-7.6,7.7-15.9,8.7-24.9
		c0.6-4.8,0.7-9.7,1-14.4c0.2-4.1,1.2-8.7,0-12.9c0,0.2,0.1,0.5,0.1,0.7c4.2-4.6,1.4-10.3,0.2-15.4c-0.2-0.9-0.8-2.1-0.5-3.1
		c0.4-1.2,1.9-0.4,2-2s-2.5-3.8-3.2-5.1c0.8,0.2,1.5,0.4,2.4,0.6c-0.2-4.8,0-9.4-1.2-14.1c-1.1-4.6-3.2-9-5.2-13.3
		c-1.8-4-3.6-8-5.7-11.9c-0.4-0.8-0.4-2.1-1.3-2.5c-1.6-0.7-3,1.1-3,2.5c0-1.4,0.6-2,0.3-3.4s-1.3-3.1-1.9-4.5
		c-1.5-3.9-3.2-7.7-4.8-11.6c-1.4-3.4-2.9-6.8-4.5-10.1c-0.5-1.1-1.5-2.2-1.8-3.4c-0.5-1.7,0.1-1.6,0.4-3c0-0.3,0.7-1,0.8-1.4
		c0.2-0.9-0.7-2-0.5-2.9c0.3-1.2,1-1.6,2-2.2c3.1-1.9,4.4-1.2,6.5-4.5c1.7-2.7,4.3-4.1,6.6-6.3c2.8-2.6,5.2-4.4,7.5-7.6
		c2.5-3.4,5.4-6.6,7.4-10.3c1.4-2.4,1.2-6.4,3.2-8.4c1.3-1.2,3.1-1.6,4.5-2.9c1.4-1.3,2.4-3.1,3.7-4.5c3.1-3.5,6.5-6.7,9.8-10.2
		c12.9-13.7,25.2-28.3,35.3-44.2c5.2-7.9,9.7-16.3,14.5-24.5c0.5-0.8,3.2-7.1,4.7-7.2c1.6,0,4.5,6.6,5.5,7.9
		c5.2,6.7,10.1,13.2,14.4,20.3c1.7,2.8,3.5,4.3,1.6,7c-2.3,3.2-6.6,6-9.6,8.8c-7.1,6.5-14.3,13-21.4,19.6
		c-3.7,3.6-13.4,9.7-13.8,15.3c-0.5,7.3,9.5,15.2,13.5,20.2c5.7,7.1,10.4,14.7,15.1,22.5c2,3.3,9.1,17.5,14.5,14.9
		c2.7-1.3,3.1-5.1,3.5-7.7c0.7-4.3,1.3-8.8,1.9-13.1c2.9-21.4,5-42.9,8.7-64.2c8.9,10.2,16.7,21.4,24.7,32.3c3.5,4.8,6.3,9.6,8.7,15
		c2.2,5.2,5.7,11.6,6.6,17.2c1.8,11.3-40.1,37.6-16.6,46.6c10.3,3.9,22.3,2.4,32.7,6c5.5,1.9,6.4,6.8,7.2,12
		c1.2,6.4,3,12.7,4.6,18.9c3.7,13.5,9.2,27.8,9.1,41.9c0,4.7,1,10.5,0.2,15.1c-0.9,6.1-10,5.9-14.9,6.8
		C2102,1032.4,2064.3,1042.8,2071.7,1051.7L2071.7,1051.7z M2242.5,996c1.5-1.5,1.7-1.1,0.7,0.9C2243,996.5,2242.7,996.3,2242.5,996
		L2242.5,996z M2259,1011.5c-0.7,1.5-2.5,2-3.5,1.9C2256.5,1013.5,2258.3,1013,2259,1011.5L2259,1011.5z M1661.1,814.5
		c10.3-14.1,24.1-25.8,35.2-39.3c12.1-14.6,25-28.6,37.9-42.6c25.7-27.7,50.5-56.1,76.7-83.4c26-27,53.5-52.2,81.7-76.7
		c12.9-11.3,24.5-24.3,38.2-34.7c7.2-5.4,14.3-11,21.6-16.3c3.5-2.6,5.7-3.7,9.3-0.8c2.6,2.1,4.7,4.8,7.1,7.1
		c7.2,6.8,14.4,13.3,22.6,18.6c3.6,2.3,15.8,10.3,19.5,5.1c1.5-2.2,1-5.7,1.2-8.2c0.4-5.1,1.2-10.3,1.8-15.4
		c1.3-10.5,3.2-20.8,4.9-31.2c8.7,2.2,17.6,3.8,25.6,8c7.7,4.1,15,8.6,22.2,13.5c2.9,1.9,3.5,1.9,2.8,5.1c-0.3,1.5-1.1,2.3,0.1,3.7
		c0.9,1.1,2.9,0.9,3.2,2.7c0.4,1.8-2.2,5.3-3.3,6.4c-3.1,3.2-7.5,5.8-11.1,8.6c-3.9,3.1-15,8.8-15.2,14.6c-0.1,4.2,4.2,5.9,7.4,7.3
		c4.3,2,8.6,4,12.8,6.2c8.4,4.4,16.4,9.7,23.4,16c6.5,5.8,11.7,12.8,18.1,18.7c2.1,1.9,6.9,6.3,9.4,2.8c2.1-2.8,0.8-9.8,0.8-13.1
		c0-10.8,0.3-22,1.8-32.7c12.8,13.3,22.9,28.2,33.6,43.1c11.1,15.5,22.7,30.8,33.6,46.4c2.7,3.9,10.7,10.8,8.1,15.9
		c-1.2,2.4-4,4.2-5.9,6.2c-3.1,3.2-6,6.7-9,10.1c-5.8,6.5-13.7,13.5-17.6,21.3c-3.7,7.2,4.5,11.4,10,13.6c8.6,3.3,17.9,3.3,26.8,4.3
		c9.9,1.2,19.7,3.7,29.7,2.9c-1.2-4-2-7.9-6.5-9.3c-5.1-1.6-11-1.3-16.3-1.8c-12.1-1.2-24.3-3.1-36.2-5.1
		c9.4-13.4,19.8-26.1,30.6-38.5c18,24.7,28.6,53.7,46.5,78.4c17.8,24.7,35.6,50,47.7,78.2c-1.5-0.7-3-1.4-4.5-2.1
		c-7.9,17.7-6.5,38.3-15.8,55.5c-3.9-8.9-11-15.5-17.3-22.6c-3-3.4-9.5-10.4-7.2-15.2c1.4-3.2,7-4.6,9.9-6c4.8-2.4,9.2-5.4,13.5-8.4
		c3-2.1,7-3.8,9.6-6.3c2.1-2,3.8-6-0.6-5.1c-3.7,0.8-7.7,4.3-10.9,6.2c-4.7,2.7-9.6,5.3-14.6,7.8c-3.1,1.6-6.8,2.5-9.9,4.3
		c-4,2.3-3.8,5.7-2.5,9.8c2.8,9,8.7,16,15.1,22.8c3.3,3.5,6.5,7,8.9,11.2c1.5,2.7,2.8,6.7,6.2,7.8c7.7,2.8,10.2-16,11.3-20.4
		c3.2-12.7,6.1-25.5,9.2-38.3c3.2,1.8,4.7,5.4,6.4,8.5c1.9,3.4,4,6.6,5.9,10c2.3,3.9,4.4,7.9,7,11.7c1.6,2.4,4.3,4.9,4.6,8
		c0.3,3.7-2.7,7.5-4.3,10.7c-1.7,3.4-3.1,7-4.6,10.5c-3.5,8-7.1,15.9-10.3,24c-3.2,8.1-5.6,16.6-8.6,24.8
		c-2.9,7.8-6.4,15.5-9.7,23.1c-3.1,7.3-5.1,14.8-8,22.2c-3.3,8.7-7.6,17-11.5,25.3c-0.1-0.7-2.6-1.5-3.1-2c-1.2-1.1-0.6-2-2.6-2
		c-1.8,0.1-1.6,2.3-3.8,0.9c-1.4-0.8-1.6-2.9-1.5-4.1c0.3-1.5,1.6-1.4,1-3.2c-0.2-0.7-1.4-0.9-1.7-1.5c-0.6-0.9-0.6-2.1-1-3.1
		c-1.7-3.6-6-5.3-7.5-0.9c-0.5-0.8-0.9-1.7-1.3-2.5c0.8-0.1,1.5-0.2,2.3-0.3c-1.3-3.1-1.3-6.5-3.1-9.2c-1.6-2.3-3-3.7-2.8-6.6
		c0.3-3.1,1.5-7.6,2-11.1c0.8-4.6,1.4-9.2,2-13.8c0.8-6.4,3.3-16.4-2.1-21.6c-2.7-2.5-5.1-1.9-8.2-0.4c-4.3,2-8.6,4.3-12.7,6.6
		c-2.7,1.5-6.1,3.7-9.3,2.8c-3.5-1-5.9-5.6-7.7-8.3c-2.8-4.2-5.7-8.3-9-12.1c-2.8-3.2-5.1-7.1-8.5-9.6c-2.7-2.1-5.4-4.3-6.7-7.6
		c-0.4-1.1-0.3-2.7-1.1-3.7c-0.9-1-2.5-1-3.6-2.3c-2.5-3-1.9-7.1-6.5-8.5c-1.8-0.5-8.2-1-3.3-3.6c-3.5-5.6-7.6-10.9-11.6-16
		c-2-2.6-4-5.3-5.9-8c-0.9-1.2-1.8-3.1-2.8-4.2c-0.8-0.9-1.9-1-2.6-1.7c-1.8-1.7-1.6-2.9-2.7-5c-1.1-2.3-3.5-3.9-5.4-5.6
		c-5-4.7-7.7-10.7-11-16.7c-1.5-2.6-3.6-5.4-4.5-8.1c-0.9-2.6-0.2-3.2,0.9-6c2.4-6.8,4.7-13.6,6.5-20.4c1.5-5.8,2.5-11.8,4-17.6
		c1.2-5,3.1-10,3.4-15.1c0.3-4.5-0.9-9.1-4.9-11.5c-5.4-3.3-11.3,1-16.1,3.4c-6.1,3.1-12.2,6.3-18.3,9.3c-2.9,1.5-10.5,7.7-14,5.3
		c-1.4-0.9-1.6-3-2-4.6c-0.7-2.2-1.7-3.8-3.1-5.7c-1.6-2-3.5-3.8-4.7-6.1c-1-2-1.2-4.1-3.1-5.6c-1.8-1.4-1.9-0.4-2.5-2.8
		c-0.6-2.3-0.4-3.8-2.1-5.9c-1.5-1.9-3.6-3.3-4.9-5.3c-1.1-1.6-1.1-2.9-1.8-4.7c-1.7-4.6-8-8.4-8.2-13.4c-0.1-4.6,4.6-7.9,4.1-12.9
		c-1.1-12.5-13.8-1.3-17.5,3c-1.1,1.4-2.4,3.8-4.4,3.7c-1.6-0.1-2.5-2.2-4-2.4c-4.2-0.4-0.7,6.9-1.3,9.5c-1.2,5.8-6,11.2-8.9,16.3
		c-3.6,6.3-6.5,12.8-9.9,19.3c-1.1,2.1-4,10-6.6,10.9c-4.3,1.6,0.1-6.8,0.6-8c2.2-5.7,3-12.1,4-18c1.2-6.8,2.9-13.5,4.6-20.1
		c1.7-6.4,3.3-12.8,4.6-19.3c0.8-4,3.3-11,1.7-15.1c-1.8-4.5-6.7-3.2-10.3-1.9c-6.1,2.1-12,4.4-18,6.7c-15,5.8-30.5,10.3-45.3,16.8
		c-2.6,1.2-16.3,6-13.8,9.5c1.9,2.7,12.5-3.3,14.5-4c7.3-2.7,14.6-5.2,22.1-7.6c7.9-2.5,15.7-5,23.3-8c7.5-3,14.7-7.4,22.5-9.6
		c-1.3,14.8-6.7,29.3-9.6,43.9c-1.4,7.2-3.1,14.3-4.6,21.4c-0.7,3.3-1,9.8-4.5,11.5c-3.9,1.9-9.1-3.1-11.9-5.3
		c-5.4-4.5-10.3-9.5-15-14.7c-2.7-2.9-25.7-30.3-28.7-27.5c-1.1,1.1,31.4,36.4,34.8,39.5c5.1,4.7,12.9,13.2,20.3,13.9
		c1.5,0.1,5.2-1.2,5.7,0.4c0.5,1.6-3.8,4.3-4.6,5.1c-6,5.7-10.2,13.3-14.9,20c-5.3,7.7-11.5,14.5-17.7,21.5c-2.3,2.6-4.7,5.2-6.8,8
		c-1.7,2.3-3.5,5.7-6.1,7c-2.4,1.2-3.2,0.2-5-1.7c-3.3-3.4-6.6-6.8-9.9-10.3c-12.9-13.4-26.3-25.4-42.2-35.1c-2-1.2-4.9-2.8-5.7,0.1
		c-1.1,3.9,3,4.3,5.3,5.3c7.8,3.1,15.2,10.3,21.5,15.8c7.3,6.3,14.2,13.2,20.9,20.2c3.3,3.3,11.3,7.9,5.6,12.4
		c-6.1,4.7-14.7,6.6-21.5,10.4c-8,4.5-15.3,10.1-23.4,14.7c-6.9,3.8-14.1,6.9-21.1,10.5c-1.8,0.9-5.6,2.5-5.8,4.9
		c-0.2,2.7,2.3,2.6,4.1,2.2c6.6-1.2,14-4.8,19.8-7.7c4.7-2.3,9.4-5,13.9-7.7c3-1.8,5-4.4,7.6-1.3c-4.9,3.5-9.3,7.3-14.3,10.5
		c-1.8,1.1-2.6,2.9-4.1,4.3c-2.1,2-5,3.2-7.6,4.9c-5.3,3.5-9.9,7.6-15.4,10.7c-5.7,3.4-11.9,5.9-17.8,9.2c-4.6,2.5-7.7,6.2-12.8,7.5
		c-2.7,0.7-5.6,1-8.3,2c-2.4,0.9-4.2,2.8-6.6,3.7c-1.7,0.7-4.3,0.9-6,1.1c-0.8,0.1-1.3,0.4-2.2,0.5c-0.6,0-1.6-0.7-2.3-0.6
		c-2.5,0.1-5.4,2.2-7.9,2.7c-2.7,0.6-5.5,0.9-8.2,1.1c-5.2,0.6-10.8,1.5-15.8-0.3c-4.6-1.7-8.6,0.4-13.6-0.5
		c-5.3-1-9.7,1.6-14.8,1.1c-2.1-0.3-2.8,0.6-4.9,0.9c-2.5,0.3-6-2.1-8.4-2.7c-12-2.9-23.1-6.5-33.4-13.3c-4.4-2.8-8-6.7-13.1-7.9
		c-4.8-1.1-7-5.4-11-8.2c-3.7-2.7-18.4-10.4-15.5-15.9c0.9-1.8,4.1-3.1,5.9-4.2c2.7-1.8,5.3-3.7,8-5.6c6-4.3,12.3-8.1,18.8-11.8
		c-0.9,7.6-1.4,15.3-2.8,22.9c-0.4,2.2-1.6,5.3-0.9,7.6c0.8,2.8,3.6,3,5.6,5c1-6.3,1.8-12.8,2.9-19.1c0.9-5.2,2.6-11.3,1.2-16.6
		c-3.7-13-16-1.4-22,2.8c-4.7,3.4-9.4,6.6-14.1,10c-2.7,1.9-6.5,5.5-10.1,4.6c-4.6-1.1-5.7-7.1-5.5-11c0.5-6.3-0.7-8-6.5-10.7
		C1647.5,832.4,1654.4,823.6,1661.1,814.5L1661.1,814.5z M1937.8,493.5c1.7,2.7,8.2,9.7,6.7,12.8c-0.9,1.7-5.5,3.9-7,5.1
		c-2.9,2.2-5.9,4.3-8.8,6.5C1931.6,509.6,1934.7,501.6,1937.8,493.5L1937.8,493.5z M2012.2,497.1c-1.7,10.4-2.8,20.7-3.8,31.1
		c-0.3,3.7,0.7,18.1-4.7,18.4c-2.8,0.2-6.4-2.9-8.7-4.3c-3.9-2.2-7.4-4.8-10.9-7.5c-7.5-5.8-15.3-11.6-21.3-18.9
		C1977.4,505.8,1995.1,501.4,2012.2,497.1L2012.2,497.1z M2080.2,527.4c-0.5-0.3-0.9-0.6-1.4-0.9
		C2079.2,526.7,2079.7,527,2080.2,527.4L2080.2,527.4z M2087.2,535.7c4.8,4.9,9.5,9.8,14.3,14.8c-3.1-3.1-6.2-6.4-9.3-9.5
		c-3-3-2.9-3.6-6.6-1.4c2.9,4.3,4.7,8.9,9.9,10.7c6.1,2,11.4,2.1,14.4,8.9c2.8,6.3,0.9,13.6,0.4,20.1c-0.6,8.4-0.3,16.8-0.6,25.2
		c-4.9-0.9-7.8-6-10.6-9.7c-3.9-5.1-8.6-9.8-13.5-14c-10.6-8.9-23.3-14.9-35.6-21.2c7.1-5.8,14.2-11.6,21.3-17.4
		C2075.7,538.7,2081.8,530.3,2087.2,535.7L2087.2,535.7z M2354,966.1c6.2-18,11.8-36.3,18.7-54c3.3-8.6,7.2-16.9,11.2-25.3
		c3.1-6.9,5.7-14.7,9.8-21c4.6-6.8,8.3-14.1,12.5-21.3c2-3.3,3.2-6.9,5.4-10c2.4-3.6,5.3-6.8,7.8-10.3c5.1-7,9.2-14.6,14.5-21.5
		c5.3-6.8,11.2-13.4,17.1-19.8c4.6-4.9,10.3-12.6,17.1-14.1c7.2-1.5,8.2,7.3,9.4,12.6c2,8.7,2.5,17.8,3.3,26.6
		c0.7,9.2,1.3,18.2,0.7,27.4c-1.2,17.5-2.4,35.7-5.5,53c-1.5,8.7-4,17.1-5.9,25.7c-1.2,5.7-1.5,12.8-6,17c-3.1,2.9-7.8,4.1-11.7,5.7
		c-5,2-10,4-14.9,5.9c-9.2,3.8-18.7,6.6-27.8,10.4c-9.7,4-19.2,7.4-29.1,10.7c-5.2,1.7-10,4.1-15,6.2c-4.6,1.9-9.7,2.8-14,5.2
		C2352.3,972.4,2352.9,969.2,2354,966.1L2354,966.1z M2284.2,1000.4c1.6-1.6,1.2-3.7,1.5-5.7c0.3-2.2,1.4-4,2.1-6.2
		c1.4-4.2,0.8-7.8,2.9-11.7c4.9-8.8,4.9-19.9,8-29.4c7.6-22.9,15.1-45.8,22.2-68.9c5.3,6.7,10.5,13.5,15.9,20.1
		c4.4,5.4,11.4,11,14.2,17.4c2.3,5.4-3,13.9-4.5,19.1c-2.3,7.8-4.8,15.5-6.2,23.5c-1.3,6.6-1,13.9-3.8,20.1c-2.8,6.2-9.3,6.7-15,8.7
		c-7.5,2.6-14.7,6-22,9.1c-3.4,1.4-6.5,2.8-9.5,4.7C2288.3,1002.3,2282.3,1005.4,2284.2,1000.4L2284.2,1000.4z M2149.7,576.2
		c18.6-2.7,31-13.7,44.8-25.5c7-6,13.1-12.7,19.6-19.2c6.5-6.4,13.3-12.6,19.2-19.5c2.6-3,4.4-6.6,6.8-9.7c2.3-3,5.3-5.2,7.4-8.4
		c4-6.2,8.4-13.2,10.9-20.2c6-16.8,14.4-32.7,22.2-48.8c4.4-8.9,7.5-18.5,11.1-27.7c3.7-9.7,7.5-19.3,10.5-29.2
		c48.6,64,97.8,127.6,146.6,191.4c25,32.6,50,65.1,75,97.8c11.9,15.7,24.4,30.9,36.7,46.2c12.1,14.9,23,31,34.4,46.5
		c6.3,8.5,13.7,15.9,19.9,24.6c6,8.5,12.5,16.7,19.4,24.5c6.8,7.8,12.7,16.1,19.5,23.8c6.6,7.5,11.3,16.6,18.5,23.7
		c-15.2,6.6-30.5,12.9-45.3,20c-7.4,3.5-15.1,6.5-22.5,10c-7.2,3.5-13.9,8.3-21.5,11.1c-15.6,6-31.3,12.2-47,17.9
		c-7.9,2.8-16,4.8-24.1,7.4c-8.3,2.7-16.1,6.5-24.2,9.7c-0.7-5.8,1.3-11.5,2.4-17.1c1.3-6.5,2.3-13.1,3-19.6
		c1.3-13.1,1.7-26.4,2.4-39.7c1.2-25.4,1.7-54.2-9.3-77.9c-3.6-7.9-10-15.8-18.8-17.9c-11.6-2.6-20,7.3-27.5,14.6
		c-9.5,9.3-17.6,19.9-25.5,30.6c-3.8,5.2-7.4,10.3-10.4,15.9c-2.9,5.4-6.9,9.7-10.1,14.8c-15.1,25-27.1,51.7-36.8,79.2
		c-4.1-6.2-7.6-12.5-12.8-17.7c-3.9-4.1-8.2-7.9-12.5-11.6c-2.9-2.6-7-5.7-6.1-9.9c1-4.4,6.6-7.6,4.4-12.7c-2.2,1.9-4.2,3.9-6.3,5.7
		c-12-21.2-25.3-41.5-37.1-62.6c-5.9-10.5-11.6-21-17.8-31.4c-5.7-9.6-12.8-18.1-19.4-27c-13.6-18.5-21.4-40.1-33.7-59.4
		c-2.5-3.9-5.7-7.3-8.2-11.1c-1.1-1.7-2-3.1-1.5-5c0.4-1.2,2.2-2.2,2.2-3.5c-0.1-3.2-5.1-0.8-7.1-2c-1.6-1-2.8-3.6-3.8-5.1
		c-2-2.8-4-5.7-5.9-8.6c-15.7-22.7-31.9-44.9-48.8-66.8C2144.8,576.5,2147.3,576.5,2149.7,576.2L2149.7,576.2z M2276.9,301.6
		c-1.4-1.4-1.9-3.9-3.6-5c-1.8-1.1-3.3-0.3-5-1.7c-0.6-0.5-3.1-3.3-3.5-4.1c-0.2-0.4-0.2-1.7-0.5-2.4c-0.7-1.4-2.2-1.7-3.2-2.8
		c-4.2-4.5,0.7-7.2,0.9-12.3c0.1-3-0.6-4.7,1.2-7.3c1.4-2,3.8-4.4,5.6-6.1c1.3-1.2,1.4-0.9,2.8-1.7c0.6-0.3,1.1,0,1.8-0.5
		c1.4-1,2.5-3.5,3.4-4.9c2.6-4.2,4-7.3,1.7-12c-1.1-2.3-3-6.3-6-5.1c-1.7,0.7-3.2,4.3-4.2,5.7c-1.9,2.7-3.6,6-5.9,8.3
		c-1.6,1.7-4,2.1-5.6,3.5c-2,1.8-1.3,4.2-1.9,6.5c-1.3,5.1-6.7,10-9.9,14c-3.2,4.1-6.6,8-10.6,11.2c-3.6,2.9-10,7.3-14.9,6.8
		c-8.5-0.9,0.7-21.8,2.8-25.9c4.2-8.2,16.3-16.7,12.2-27c-1.9-4.6-5.4-7.3-10-4.1c-5.6,4-10,10-15.4,14.4
		c-5.7,4.5-11.7,8.6-17.5,12.8c-3.2,2.3-6.5,4.6-9.7,6.9c-2.5,1.8-5,4.1-8.3,3.8c6.8-15.3,13.6-30.7,21.9-45.3
		c3.9-6.8,8.7-12.9,13.7-19c3.7-4.6,8-9.4,6.4-15.8c-1.2-4.8-5.3-10.7-10.9-8.4c-3.6,1.5-6,5.4-9.2,7.5c-2.8,1.8-4.8,3.5-7.2,5.6
		c-2.7,2.4-6.6,3.6-9.7,5.1c-3.5,1.8-6.9,3.7-10.5,5.3c-7.6,3.5-15.9,4.7-24,6.4c4.3-13.1,13.2-23.9,21.7-34.6
		c4.8-6,8.9-12.4,13.8-18.5c4.8-5.9,10.1-11.2,14.7-17.2l2.3,4.7c2.4-1.8,2.4-5.5,4.6-7.5c2.8-2.5,7-2.6,10.5-2.5
		c7.8,0.2,15.1,2.4,22,6.2c14,7.8,25.5,19.2,35.3,31.8c5.2,6.7,10,13.6,14.5,20.8c2.2,3.5,4.3,7.2,5.3,11.3
		c1.1,4.5-0.2,8.7-0.4,13.2c-0.4,8.6,0.9,17.2,1.6,25.7c0.7,9.1,1.9,17.9,3,26.9c0.6,4.8,1,9.5,1.2,14.3c0.1,1.4,0.5,3.5,0.1,4.9
		c-0.3,1.3-1.8,2.1-2.2,3.3c-0.3,1.5,0.2,1.3,0.9,3c1,2.1,1,3.9,0.9,6.1c-0.4,5.1-0.8,10.2-1,15.3c-4-0.8-9.5-3.6-11.6-7.1
		c-1.2-1.9-0.7-3.3-0.9-5.5C2280.1,305.8,2279,303.6,2276.9,301.6L2276.9,301.6z M2133.7,119.9c0.1,0.1,0.1,0.2,0.3,0.3
		C2133.8,120,2133.8,119.9,2133.7,119.9L2133.7,119.9z M2079.4,45.6c-0.1-0.1-0.1-0.1-0.2-0.2C2079.2,45.5,2079.3,45.6,2079.4,45.6
		L2079.4,45.6z M2079.9,48.9c-0.5-0.8,0.3-2.4-0.4-3.2C2079.8,46,2079.8,48.9,2079.9,48.9L2079.9,48.9z M2400.5,480.2
		c0.7,0.7,1.4,1.3,2.1,2C2401.9,481.5,2401.1,480.9,2400.5,480.2L2400.5,480.2z M2408.1,479c-0.3-0.3-0.7-0.7-1-1.1
		C2407.5,478.2,2407.8,478.5,2408.1,479L2408.1,479z M2414.3,485.5c0.1-0.2,0.1-0.3,0.2-0.6c0,0.8-0.4,0.8-1.1,0
		C2413.7,485.1,2413.9,485.4,2414.3,485.5L2414.3,485.5z M2418.7,490c-0.2-0.3-0.2-0.7-0.4-0.9
		C2418.5,489.3,2418.6,489.6,2418.7,490L2418.7,490z M1430.5,708.7c-2-0.5-5.3-2.7-7.4-2.2c-1,0.2-2.9,1.2-1.5,2.2
		c0.7,0.5-3.8,0.8-3.8,0.8c-2.7-0.1-5.4-0.6-8.1-0.8c-4.7-0.6-9.5-1.3-14.2-1.9c-9.6-1.2-18.8-3.7-28.2-5.6
		c-18.2-3.5-34.4-10.4-51-18.5c-33.9-16.8-59.6-46.5-83.5-75.1c17.7-2.1,35.9-5.3,51.6-14.2c16.3-9.4,28.2-22.3,40.8-35.9
		c1.5,2.3,3,4.7,4.6,7c0.8-3,1.7-6.1,2.5-9.1c37.7,51.6,75.4,103.3,113.2,154.9C1440.4,710,1435.3,709.9,1430.5,708.7L1430.5,708.7z
		 M1243.2,657.2c5,1.1,6.6,2.9,7.8,8.5C1249.7,660.1,1248.2,658.2,1243.2,657.2L1243.2,657.2z M1198.3,430c0,0.2,0,0.5,0.2,0.8
		C1198.3,430.5,1198.3,430.2,1198.3,430L1198.3,430z M1188.6,473.2c0.1-2.3,0.3-4.6,0.4-6.8c1.2,4.1,4,5.2-0.8,8.1
		C1188.4,474,1188.5,473.6,1188.6,473.2L1188.6,473.2z M1193.5,477c-0.3,0.8-0.5,0.7-0.6-0.4C1193.2,476.8,1193.3,476.9,1193.5,477
		L1193.5,477z M1204.5,414.3c7.6-15.6,15-31.4,23.9-46.4c7.1-11.8,15.2-25.1,28.6-30.4c1.5,13-5,25.2-9.8,36.7
		c-2.7,6.5-5.4,12.8-8.8,18.8c-3.1,5.6-4.4,11.3-0.3,16.7c2.4,3.3,7,7.7,11.4,6.1c2.7-1,4.5-4.1,6.3-6c2.6-2.8,5.3-5.4,8-8.1
		c5.1-5.1,10.1-10.1,15.3-15c4.7-4.4,9.3-10.6,15.7-12.4c-1.1,6.9-3.1,13.5-5,20.2c-1.9,6.8-3.5,13.8-6.5,20.3
		c-2.9,6.4-7.4,11-11.6,16.4c-3.6,4.7-2.1,9.8,1.3,14.1c4,5.1,8.8,7.4,12.9,1.6c4.4-6.3,8.6-11.8,13.9-17.4
		c4.4-4.7,8.9-7.9,14.2-11.6c2.1-1.5,6.1-5.7,9-4.9c4,1.1,2.9,11,2.8,14.2c-0.2,7.4-1.4,14.8-3.5,21.8c-3.7,12-7.6,24.6-16.4,34
		c-7.1,7.6-25.2,18-16.1,29.8c4,5.2,8.4,10.1,12.5,15.1c2.6,3.1,10.6,9.6,9.2,14.3c-1,3.2-5.8,6.2-8.1,8.5c-3.2,2.9-6.4,5.9-9.7,8.7
		c-6.1,5.2-12.4,10.2-19,14.6c-13.5,8.9-29.7,13.2-43,22.4c0.8-0.6,1.6-1.1,2.4-1.5c-2.6,0.1-4.6-3.6-5.9-5.5
		c-0.6-0.9-1.9-2.1-2.3-3c-0.4-1.1,0.2-2.2-0.1-2.8c-0.5-1.5-1.2-1.1-1.9-1.9c-1.4-1.6-0.9-1.3-1.5-3.2c-0.5-1.3-1.4-2.2-1.9-3.4
		c-1.1-2.2-0.8-4.5-0.9-7c-6.2,1.8,0.7-7.3-0.5-9.3c-1.1-1.9-3.6-1.8-4.5-4.3c-1-2.6-1.2-5.6-2.2-8.2c-1-2.8-2.2-5.6-2.2-8.4
		c0-2.5,1.1-4.6-1.2-6.6c-1.4-1.2-3.6-1.2-4.9-2.5c-2.1-2.1-1.3-4.9,1.1-6.6c-2.4-0.8-4.3-2.4-4.6-4.9c-0.3-2.4,0.7-2.8,1.7-4.8
		c3.2-6.2-5.8-4.4-5.7-10.1c0-2.8,1.9-5.3,2.4-8.1c0.4-2.9,0.1-6.5-0.4-9.3c-0.4-2.3-1.8-3.4-2.5-5.3c-0.7-2.1,0.7-3.2,0.7-5.2
		c-0.1-2.2-2.4-4-2.4-6.2c0-2.3,2-3.7,2.1-6.1c0.1-2.8-1.5-4.3-1.9-6.7c-0.7-3.5,1.4-1.8,2.9-3.7c1-1.2,0.2-2.2,0.2-3.5
		c0-1.7,0.3-2.4,1.1-4.1c1-2.1,2.3-4,2.8-6.3c0.7-2.7,0.4-5.4,1.2-8c1.1-3.7,0.5-4.7-1.8-7.7c-0.5,2.5-2.3,4.5-2.5,7
		C1198.6,424.3,1202.5,418.5,1204.5,414.3L1204.5,414.3z M1183.4,536.7c-0.9-0.5,0.3-1.1,0.7-0.6
		C1183.9,536.3,1183.7,536.5,1183.4,536.7L1183.4,536.7z M1395.4,325.5c0.1-0.1,0.2-0.1,0.2-0.2
		C1395.6,325.3,1395.5,325.4,1395.4,325.5L1395.4,325.5z M1332.8,116.3c-0.1,0.1-0.1,0.3-0.1,0.4
		C1332.6,116.6,1332.7,116.4,1332.8,116.3L1332.8,116.3z M1333.2,115.9c-0.1,0.1-0.3,0.2-0.3,0.3
		C1333,116.1,1333.1,115.9,1333.2,115.9L1333.2,115.9z M1335,115c-0.6,0.2-1,0.4-1.6,0.6C1334,115.4,1334.6,115.3,1335,115L1335,115
		z M1339.6,331.9c1,0,2.2,0.1,3.3,0.6C1341.8,331.9,1340.7,331.9,1339.6,331.9L1339.6,331.9z M1737.9,284.9c-2-12.9-5-26-2.9-39.1
		c0.7-4,1.1-10.2,5-12.5c5.4-3.3,14.9-2.6,21-3.5c12.7-1.9,24.9-5.9,36.7-11.1c6.3-2.8,11.8-7,17.7-10.4c6-3.5,11.8-7.2,17.1-11.6
		c4,6.9,10.1,12.6,16.8,16.9c5.9,3.9,13.7,6.5,10.7,14.9c-2.7,7.5-3,15.1-4.9,22.7c-1.9,8.7-6.4,16.7-10.1,24.6
		c-1.2-2.1-1.7-4.2-2.2-6.6c-3.5,1.6-8.1,7.3-11,2.5c-1.1-1.7-0.6-5.8-3.3-5.6c-4.1,0.4-2.8,7.9-2,10c2.1,5,5.9,6.8,10.9,8
		c-12.3,10.5-21.9,23.4-34.6,33.3c-6.4,5-14.2,8-21.7,11c-4.7,1.9-9.9,2.8-15,1.7C1747.4,326.4,1740.4,301.1,1737.9,284.9
		L1737.9,284.9z M2792.7,868.8c-5.5-5.3-7.9-12.7-10.6-19.7c-3.1-7.8-6.7-15.5-11.4-22.5c-4.3-6.3-9.2-12.6-14.3-18.4
		c-1.5-1.6-3.3-3.9-5.8-3.6c-2.8,0.4-3.5,3.4-4.9,5.2c-2.1,2.6-5.4,3.9-8.2,5.5c-3.5,2.1-6.8,4.5-10.4,6.5c-6.7,3.9-14.6,5.8-21.7,9
		c-3.4,1.5-6.7,3-10,4.5c-2.2,1-5.9,3.7-8.3,3.8c-5.3,0.2-11.4-10.9-14-14.6c-4.3-6.1-9.8-11.5-13.9-17.8c-4.2-6.6-8-13.1-12.7-19.4
		c-5-6.5-10-12.9-14.7-19.6c-1.8-2.5-3.3-5.4-5.5-7.6c-2.4-2.3-4.8-2.5-6.3-5.6c-0.4-1-0.8-2.9-1.8-3.6c-1.7-1.2-1.9,0.3-3.4,0.1
		s-1.1,0.2-1.9-0.9c-0.1-0.2,0.5-1,0.3-1.4c-0.2-0.7-0.8-1.2-1.1-1.7c-1.2-2.7-0.8-4.8-2.6-7.5c-2.3-3.3-4.4-6.8-6.6-10.3
		c-8.6-13.7-19.5-25.6-29.2-38.5c-1.2-1.6-2.8-2.6-3.8-4.2c-0.8-1.5-0.8-3.5-2-4.9c-1.2-1.5-2.6-1.1-4-2.1c-1.2-0.9-1.5-1.8-2.1-3.1
		c-2.9-6.4-8-11.1-11.2-17.5c-1.8-3.6-4.5-5.9-7.1-8.8c-3.1-3.4-5.5-7.5-8.2-11.2c-2.6-3.4-5.2-7-7.9-10.3c-2.5-3-3.8-3.3-5.7,0.4
		c-2.7-2.6-5.5-4.7-7.7-7.7c-1.8-2.6-3.8-2.4-6.9-3.5c2,0.8,3.5,2.1,5-0.2c1.5,3.2,4.9-0.8,3.7-3.3c-1.4-2.8-5.4-2.4-8.1-2.8
		c0.5-3.4,3.1-1,2.2-4.5c-0.6-2.9-4.3-5.7-6.1-7.9c-5.1-6-9.3-12.6-13.8-18.9c-4.5-6.4-8.8-13-13.7-19.1c-2-2.5-4.1-5.3-6.4-7.4
		c-1-1-2.1-2.1-3.4-2.6c-0.8-0.3-2.9-0.1-3.4-0.8c-1.1-1.4,0.1-4.5-0.6-6.4c-1-2.9-3.3-5.9-5.1-8.3c-4.7-6.1-9.2-12.4-14-18.4
		c-4.6-5.9-9.5-11.3-13.5-17.6c-2.1-3.2-4.5-5.9-6.9-8.9c-1.9-2.3-3.2-5-6-6.5c0.5,1.3,0.8,2.8,1.2,4.2c-0.4-1.5-0.5-3.8-1.8-4.9
		c-1.5-1.4-3.8-0.5-5.5-1.7c1.3,0.9,3.1,1.2,4.8,0.9c-5.1-7.9-9.5-16.9-16.9-23c-1-0.8-2.3-2.1-3.5-2.4c-0.7-0.1-3,0.4-3.3,0.2
		c-2.3-1.7-0.1-6.1-1.2-8.5c-1.2-2.5-4.3-4.4-5.9-6.9c-2.4-4-4.1-6.7-7.6-9.7c-2.2-1.9-3.4-4.5-4.9-6.9c-2.8-4.3-5.5-8.6-8.5-12.8
		c-5.6-7.9-12.2-14.8-18.1-22.4c-2.7-3.6-4.6-7.9-7.7-11.2c-2.4-2.6-5.5-4.1-7.5-7c-2.5-3.6-4.2-7.5-6.7-10.9
		c-1.9-2.5-3.7-4.8-5.4-7.3c-2.3-3.4-6.9-11.3-11.8-7c0.5-7.2,1.5-14.3,1.7-21.4c0.1-1.9-0.4-4.2,0.6-5.9c1.1-1.8,1.9-1.7,2.5-3.8
		c1.5-5.6-1.7-13.8-2.5-19.5c-1-7-1.2-14.1-2.5-20.9c-1.3-6.9-2.8-13.6-3.8-20.6c-1-6.4-1.8-12.8-3.8-19c-1.9-5.8,1.8-10.4,1.7-16.3
		c0-6.4-2.2-12.8-4.4-18.8c-8-21.9-23.4-43.6-41.3-58.6c-13.7-11.4-37.4-24.8-54.3-12.5c-2.3,1.7-3.3,3.2-6.3,1.8
		c-2.4-1-3-3.4-5.9-2.8c-2.9,0.5-5.3,3.7-7.2,5.5c-2.7,2.6-5.7,5-8.5,7.4c-5.3,4.5-9.8,9.3-15.5,2.9c-1.6-1.7-3.5-6.2-5.9-6.7
		c-2-0.4-2.5,1.6-4.1,0.1c-0.2,0.2-0.2,0.5-0.4,0.7c0.7-1.4-0.6-2.3-0.7-3.5c-0.2-0.4-0.4-0.8-0.6-1.2c0.4-0.5,0.7-1.1,1-1.7
		c-0.2-1.9-2.4-4.1-3.5-5.5c-3.7-4.5-6.7-9.7-10.5-14.2c-4.5-5.4-8.2-11-12.2-16.7c-4.2-6-9.6-10.9-14-16.8
		c-9.1-12-17.7-24.4-26.8-36.3c-1.9-2.5-13.2-20.7-17.5-17.4c0.1-5-3.8-7.3-7.3-10.3c-2.1-1.8-3.6-3.8-5.3-5.9
		c-1.5-1.7-3.6-2.8-5-4.5c-1.3-1.5-1.5-3.3-2.5-5c-1-1.9-2.7-3-4.3-4.4c-4-3.3-7.3-7.4-12.1-9.7c-0.4,10.8,7.7,19.7,13.4,28
		c7,10.1,13.6,20.5,20.5,30.8c13.4,20.3,28,39.8,42.8,59c7.8,10.1,15.9,19.9,23.2,30.2c2.9,4.2,5.9,8.1,9.3,12
		c3.8,4.2,6.2,9.2,9.6,13.7c2.4,3.3,6.4,6.2,6.1,10.7c-0.3,4.3-4.8,10.4-7.2,13.9c-5.5,8-14.3,11.8-14.8,22.4
		c-0.4,9.9,3.6,23,13.1,27.9c9.9,5.2,24.2-2,33.4-5.4c-3.9,9.8-8.1,19.7-12,29.6c-3.6,9.2-6.3,18.7-2.9,28.3
		c8.4,23.5,35.2-4.1,45.2-11.9c-0.9,10.3,0,24.4,8.5,31.9c6.2,5.4,16,2.7,22.5-0.6c5-2.5,6.6-2.3,10.7,1.8c3.5,3.4,7.3,6,11.4,8.8
		c9.6,6.7,16.3,14.8,23.6,23.9c4,5.1,6.5,8.4,4.9,15.2c-1.5,6-3.4,12.1-5.4,17.9c-3.8,11.1-9.8,21.4-14.6,32.1
		c-9.8,21.8-17.6,44.3-29.7,65.1c-12,20.4-29.3,37.6-45.5,54.8c-8.4,8.9-16.4,18.3-26.5,25.5c-5.2,3.7-10.5,6.8-16,9.9
		c-2.6,1.5-5.2,2.8-7.9,4.3c-1.5,0.8-3.7,2.8-5.5,2.4c-1.3-0.3-3.4-3.9-4.1-4.8c-1.8-2.2-3.5-4.3-5.5-6.2c-4.1-4-8.7-7.7-12.8-11.8
		c-9.2-9.1-17.9-18.6-27.5-27.1c-9.2-8-19.1-15-29.3-21.7c-9.8-6.3-20.2-12-31.9-13.9c-11.7-1.9-23.1-0.2-34.4,3
		c-10.6,3.1-19.7,8.6-29.5,13.6c-3.4,1.7-8,4.4-12,2.9c-1.9-0.7-3.1-2.5-4.6-3.8c-1.6-1.3-4-2.1-5.2-3.7c-2-2.6-0.3-7-0.4-10
		c-0.3-6.3-2.5-12.4-5.2-18c-10.9-23.7-23.9-46-33.1-70.6c-2.1-5.7-4.5-11.5-6-17.4c-0.9-3.7,0.1-7.7-0.7-11.2
		c-0.9-3.5-4.9-3.8-7.4-1.3c-2.8,2.7-1.8,7.6-1.2,11c4,26.2,15.2,49.7,26.7,73.3c2.9,5.7,5.5,11.5,8.5,17.2
		c2.5,4.9,5.2,9.9,4.2,15.6c-0.9,5.1-3.1,10.1-4.3,15.1c-1.2,5.4-1.9,11.8-4.5,16.7c-2.5,4.6-5.6,6.1-2.8,11.7
		c0.6,1.3,1.8,2.3,1.6,3.7c-0.2,2.1-4,4.7-5.3,6.1c-9.1,9-19.2,17.1-28.6,25.7c-4.1,3.8-7.9,8.7-12.5,11.8c-4.5,3-8.1,5.8-11.8,9.8
		c-8.5,9-17.7,17.4-26.5,26c-9.2,8.9-18.2,17.9-27.2,26.8c-8.4,8.4-16,18-24.9,26c-8.9,7.9-18.2,15.7-27.3,23.5
		c-2.1,1.8-3.8,3.6-6.6,4.2c-2.1,0.4-3.9,0-5.9,1.2c-4.5,2.9-7.9,9.4-11.3,13.6c-8,9.8-17.1,18.6-26.2,27.4
		c-4.3,4.3-8.5,8.8-12.4,13.4c-3.3,4-6.3,8.5-10.2,12.1c-4.1,3.7-7.7,6.6-11,11.2c-3.4,4.7-7,9.4-10.8,13.8
		c-3.9,4.7-7.9,9.4-11.5,14.3c-3.3,4.6-5.8,9.5-9.2,14c-3.3,4.5-7.3,8.4-10,13.3c-3,5.3-4.8,11.2-6.8,16.9c-0.1-0.5-2.9-1.7-3.2-2.1
		c-1.7-1.6-1.8-3.9-3.2-5.6c-2.8,4.3,1.9,12.2,3.1,16.4c-2.4-8.9-4-18.1-7.1-26.7c-3-8.6-6.7-17-8.8-25.8c-2.1-9-3.5-18.2-5.1-27.2
		c-0.7-3.9-1.3-7.8-1.3-11.8c0-1.6,0.4-3.5,0.3-5.1c-0.3-2.2-1.1-2.2-2.3-4c-1.9-2.7-0.8-3.3,0.1-6.1c1.2-3.2-0.8-3.7-2.3-6.4
		c-1.8-3.4,1.2-4.9,0.5-8.1c-0.3-1.4-1.8-2.4-2.1-3.6c-0.6-2.6,1-1.4,1.5-3.3c0.5-1.9-2.1-2.6-3.1-4.3c-0.9-1.4-1.1-2.8-0.6-4.5
		c0.1-0.4,0.5-1,0.6-1.5c0.1-0.8-0.1-1,0-1.6c0.3-5.4,1.4-10.7,2-16.2c0.5-4.9-1.7-9.5-2.5-14.3c-0.8-4.1,0.6-7.7,0.6-11.8
		c0-4.5-3-5.6-5.5-8.7c-2.8-3.7-3.7-9-2.8-13.5c1.1,2,2.2,3.9,3.3,5.9c0.1-1.8,0.6-3.7,0.1-5.5c-0.6-2-1.7-2-2.7-3.3
		c-1.7-2.5-0.1-1.5,0.3-4.2c0.3-1.4-0.7-2.9-0.9-4.2c-0.3-1.7,0.1-3.2,0.2-4.9c-0.1-2.7-1-4.6,0.4-7.1c1.2-2.3,3.4-4.1,4.9-6.1
		c3-3.7,5.7-7.8,8.5-11.5c4-5.3,9.8-10.3,8-17.5c-6.8,4.3-10.8,11.6-15.6,17.8c-5.3,6.9-11.8,12.7-17.3,19.5
		c-11.6,14.5-24.7,28-38.4,40.5c-6.8,6.3-13.8,12.2-20.7,18.3c-6.3,5.5-12,11.9-19.1,16.3c-6.5,4-14.6,9-22.6,7.8
		c-3.2-0.6-6.6-2-8.3-4.7c-1.5-2.3-1.4-6.5-4.2-7.8c-1.1-0.5-2.8,0.6-3.4-0.8c-0.5-1.1,1.4-3,1.3-4.2c-0.2-3-4.8-7.4-6.6-9.8
		c-1-1.4-1.9-3.4-3.6-4.3c-0.6-0.3-1.6-0.2-1.9-0.5c-0.5-0.5-0.2-1-0.6-1.4c-1.1-1.3-1.1-2.4-2.8-3.6c-1.8-1.3-4.1-1.9-6.1-2.8
		c0.1-0.1,1.6,0.5,1.8,0.5c-0.7-2.4-2.4-4.3-3.4-6.6c-0.9-2.5-0.6-4.9-2.3-7c-1.8-2.2-4.7-3.3-6.6-5.4c-1.9-2.2-3.1-4.9-4.8-7.3
		c-3.2-4.4-7.5-6.7-9.5-11.9c-0.4-1.1-0.6-2.2-1.6-3.1c-0.8-0.8-2-0.3-2.8-1.2c-1.1-1.4-0.3-2.8-2.1-4.2c-3.4-2.5-7.7-0.5-6.5-6.3
		c1.2-5.8-0.3-5.7-4.5-9c-4.2-3.4-6.4-9.4-8.9-14.1c-1-1.8-1.8-3.8-3.5-4.9c-2.8-1.8-3.2-0.2-2.9-4c-4.3,1.1-6.3-6.9-7.4-9.9
		c-0.8-2-1.8-4.6-3.6-5.9c-1.3-0.8-3.5-0.2-3.5-0.2c-1.1-0.5-3.5-3.5-3.9-4.5c-0.4-1,0.5-2,0-3.4s-2.1-2.4-3.2-3.1
		c-4.2-2.9-11.5-9.3-10.5-15.2c10.7,7.2,21.3,14.9,32,22.1c8.6,5.7,17.6,10.6,28.1,11.5c11.8,1.1,24-1,35.5-3.9c6-1.5,11.7-4,17.8-5
		c6.3-1,12.2-2.6,18.1-5.3c2.5-1.1,4.9-2.8,7.6-3.7c2-0.6,4.1-0.7,6.2-1.5c5.1-2,9.2-6.4,13.4-9.8c8.8-7.7,17.2-15.6,24.2-25.1
		c13.5-18.1,20.3-39.9,26.6-61.3c7.1-24.1,12.8-48.3,21.4-72.1c4.3-11.7,8.2-23.6,13.7-34.8c5-10.4,11.9-19.4,19.5-27.9
		c7.3-8,14.5-17.1,24.6-21.5c5.5-2.4,11.3-4,16.9-6.2c5.9-2.4,11.7-4.3,18.2-4c5.8,0.4,11.5,1.2,17.3,1.6c6.3,0.4,12.7,0,18.8,1.5
		c5.5,1.5,10.7,4,16.1,5.7c4.8,1.5,11.6,1.4,14.9,5.7c3.4,4.4,4.2,10.3,7.3,15c3.4,5.3,7.6,10.1,12.2,14.5
		c7.7,7.3,16.9,13.1,27.9,12.1c13.1-1.3,24.9-8.8,35.5-16c11-7.4,18.7-18.5,29.2-26.5c0.9,4.2,2.3,8.3,2.8,12.7
		c0.5,4.8,0.2,9.6,0.1,14.4c-0.3,9.4-0.5,18.8-2.3,28.1c-1.8,8.9-5.2,17.2-8.8,25.5c-3.4,8-6.5,16.3-11.1,23.8
		c-8.1,13.2-21.7,22.9-36.1,28.3c-14.8,5.6-32.2,8.7-46.5,0.6c-13.8-7.9-25.7-19.4-31.6-34.4c-7-17.3-10.2-36.1-12.9-54.5
		c-1.4-9.3-2.4-18.7-2.9-28.1c-0.4-8.2,1.5-17.4-3-24.6c-1.1-1.7-1.7-3.4-3.5-3.1c-3.2,0.5-4.8,5.8-5.6,8.2
		c-2.7,8.1-2.1,16.5-1.9,24.9c0.6,20.4,4.2,40.8,9.5,60.5c2.7,9.7,5.2,19.6,9.9,28.6c4.8,8.9,10.8,17.2,17.3,25
		c-1.9,0-2.8,1.3-1.8,3c0.6-0.9,1.3-2,1.9-3c11.8,10.1,26,22.1,42.1,23.9c9.4,1.1,18.4,1.6,27.8-0.7c9.2-2.3,17.3-6.6,25.1-11.9
		c7.1-4.8,14.4-9.2,19.7-16c5.4-7,9.2-15.5,12.9-23.5c8.1-17.2,14.3-35.2,16-54.2c0.9-9.4,0.1-18.5-0.3-27.8
		c-0.3-4.6-0.5-9.3-1.4-13.8c-0.8-3.7-2.4-7.1-3.2-10.8c-1.5-6.9,4.9-10.8,10.7-13c7.6-2.8,13,3.3,18.2,7.9
		c6.9,6.2,13.7,12.5,20.2,19.2c2.9,3,5,7.2,8,9.8c2,1.9,5,2.4,7.3,4.3c7.1,5.8,14.6,11.9,20.7,18.7c5.9,6.4,13.6,11.7,20.6,17
		c7.7,5.8,15.8,11,23.5,16.9c6,4.7,13.1,6.5,19.2,10.9c6.2,4.5,15,6.2,21.9,9.3c4.1,1.8,8,3.8,11.9,6c3.8,2.2,7.3,5.2,11.3,7
		c14.5,6.7,29,12.7,45.4,9.8c3.5-0.7,6.3-2.5,9.7-3.4c3.6-1,7.5,0,11.3-1.1c8.4-2.6,17.1-6.4,24.9-10.7
		c15.7-8.5,32.1-18.5,44.1-31.9c6.1-6.7,10.5-14.5,15.1-22.3c2.4-4.1,8.1-13.8,1.8-17.7c-5.4-3.2-11.2,10.3-13.5,13.5
		c-5,7.3-11.8,12.9-19,17.8c-7.3,4.9-15.1,9.1-22.7,13.7c-8,4.9-15.5,10.1-24.3,13c-4.6,1.6-9.1,2.9-13.7,4.3
		c-4.7,1.5-9.2,3.9-14.2,4.1c-9,0.6-18.5,1.5-27.2-1.2c-17-5.3-31.5-17.3-47.6-24.8c-8-3.7-16.5-6.5-24.3-10.9
		c-8-4.5-15.3-10.3-22.5-16c-16.1-12.3-32-24.8-47.7-37.6c-6.9-5.7-14.6-11-21-17.2c-2.6-2.5-4.8-5.4-5-9.2
		c-0.2-4.4,1.7-8.7,1.4-13.1c-0.8-8.5-6.8-15.8-11.8-22.4c-1.9-2.6-4.5-5.4-2.9-8.7c1.6-3.3,4.9-6.3,6.8-9.6
		c4.7-7.8,9.1-15.8,13.2-24.1c1.8-3.6,3.8-7.2,5.1-11.2c1.6-4.7,1.5-9.8,2-14.7c1.7-19.2-0.3-38.2-6.5-56.5
		c-5.6-16.7-11-35.9-22-49.9c-10.5-13.5-24.9-22.8-39.8-30.8c-8.6-4.6-17.3-9-25.9-13.5c-8.4-4.4-17-6.4-25.7-9.5
		c-17.5-6.1-34.9-4-52.4,1.2c-9.1,2.8-18.5,4.4-26.8,9.2c-7.9,4.5-14.8,10.8-21.3,17.2c-12.9,12.8-25.6,25.9-38.6,38.5
		c-26.6,25.5-61.7,49.3-99.9,47.8c-19-0.7-38.3-4.1-56.5-9.4c-18.3-5.2-35.7-12-54.4-15.1c-9.6-1.6-19.4-2.7-29.1-4.5
		c-4.1-0.8-8.5-2.2-12.9-1.9c-1.5,0.1-3.4,1.1-5.1,0.7c-1.4-0.3-1.1-1.2-2.2-1.7c-2.3-0.9-5.9,0.1-8.6-0.3c-2.5-0.4-7.4-2.6-9.9-1.8
		c-1.3,0.5-1.5,2-3,2.2c-1.4,0.3-3-1.1-4.3-1.4c-4.3-1.2-9.1-0.7-13.5-0.4c-8.4,0.6-15.9,1-23.2,5.5c-6.9,4.3-14,8.2-21,12.2
		c-3.6,2.1-5.7,3.8-8.6,6.8c-1.7,1.8-4,2.6-6.2,4c-6.1,4.2-11.9,11.7-13.6,18.8c-0.9,3.7-3.1,3.3-4.5,6.1c-1.5,2.9,0.1,6.3-1.9,9.4
		c-1.6,2.6-1.8,4.9-3.5,7.5c-2.1,3.4-2.9,7.6-3.7,11.5c-4.1,18.8-5.5,38.5-3.9,57.7c0.8,9.4,2.6,18.7,5.3,27.8
		c2.5,8.6,4.1,18,8.9,25.8c0.1-0.7,0.3-1.4,0.4-2.1c0.8,0.7,2.3,1.2,2.5,2.3c0.4,1.7-0.5,2.8-2,1.5c3.6,7,8.1,13.2,13.3,19.2
		c2.3,2.5,3.6,3,6.5,3.4c2.9,0.5,2.3,1.1,4.5,3.1c1.9,1.7,2.7,1.9,5,0.5c1-0.6,0.8-1.6,2.1-1.7c0.9,0,2.6,1.8,3.3,2.3
		c1.3,0.8,2.6,1.7,4.3,1.8c2,0.1,2.7-1.6,4.1-1.7c2.9-0.3,4.9,2.2,8,2c3.1-0.3,4.6-0.5,7.8,0.1c4.5,0.8,9.1,0.4,13.5-0.6
		c3.5-0.8,7.5-1.9,10.7-3.6c1.7-1,3-2.2,4.9-2.8c1.6-0.5,3.4-0.5,4.9-1.3c3.4-1.5,6.1-3.6,9.6-5c3.2-1.3,6.1-3,9.1-4.7
		c1.8-1,4.3-3,5.9-1c2,2.5-0.7,8.1-1.2,10.7c0.7-0.1,1.3-0.4,1.9-0.5c-2.5,1.7-2.3,1.5-3.1,4.5c-0.8,3.1-2,6-2.4,9.2
		c-1,7.3-0.2,15-0.2,22.2c0,15.8-0.2,31.1,4,46.6c3.7,13.3,7.9,27.7,19.8,36c2.4,1.7,5.2,3.3,7.1,5.6s3.1,5,5.5,7
		c4.6,3.9,11.4,6.5,17.4,6.5c6.8,0.1,14.2,0.1,20.8-2.2c6.3-2.3,12.7-4.5,18.9-7.2c13.4-5.7,21.9-18.8,28.8-31.1
		c3.6-6.4,7.4-12.7,10.6-19.3c0.9-1.8,1.7-5.2,3.5-6.4c2.3-1.4,4.6,0.1,7.1,0.5c3.8,0.6,8,0.3,11.9,0.3c2.9,0,5-1,5.5,2.2
		c0.5,2.9-2.1,8.3-2.9,11.2c-1,3.9-2,7.8-3,11.7c-3.9,15.2-8.2,30.4-13.2,45.3c-4.7,14.1-10.4,27.7-19.9,39.3
		c-9.1,11-20.4,21.2-32.2,29.4c-6.5,4.5-13.8,7.1-21.4,9.6c-3.2,1.1-6.6,2-9.9,3.1c-1.4,0.5-2.8,1.1-4.3,1.4
		c-1.5,0.3-3.2-0.2-4.5,0.1c-2.1,0.6-3.3,2.3-5.7,2.7c-3.3,0.7-6.8,1-10.3,1.6c-7.7,1.3-15.6,2.8-23.4,3
		c-15.3,0.4-26.6-6.2-39.1-13.9c-5.4-3.2-11.2-6.4-16.2-10.2c-1.5-1.1-2.4-1.5-2.2-3.4c0.1-0.8,1.2-1.8,1.6-2.5
		c1.1-2.1,2.1-4.9,2.3-7.2c0.4-3.9-4.3-11.4-9-8.7c-3.2,1.8-2.5,7.4-5.6,9.4c-2.8,1.8-4-0.4-5.1-2.6c-1.4-2.9-2.1-5.1-5-7
		c-2.6-1.8-5.6-2.1-6.3-5.6c-0.3-1.3,0.1-2.7-0.3-4c-0.4-1.3-2.3-2.7-2.5-4.1c-0.2-2.8,5.1-5.5,6.8-7.3c2.5-2.6,4.6-5.6,6.4-8.7
		c4.1-7.4,7-15.7,9.2-23.8c3.7-13.8,6-29.2,1.6-43.1c-1.6-5.3-4.4-10.5-8.9-13.9c-6.9-5.3-14.1-2.5-21.9-0.9
		c3.7-12.9,8.7-31.7-2.5-42.4c-9.1-8.7-21.6-0.1-30.7,4.3c-0.1-9.8,0.5-19.9-3.4-29.2c-2.5-6-7-13.1-13.8-14.4
		c-7.8-1.4-15.7,4.8-20.8,9.9c-6.1,6.1-10.8,14.2-14.3,22c-1.8,3.7-5,15.1-10.5,8.8c-1.8-2.1-2.7-4.9-4.2-7.2
		c-2.6-4.1-5.6-7.1-9.2-10.2c-2.4-2.1-2.4-4.9-4.5-7.3c-1.2-1.5-3-2.4-4.2-3.9c-1.6-1.9-2.4-4.2-3.7-6.3c-2.1-3.7-5.1-6.3-7.9-9.4
		c-3.2-3.6-4-8.3-6.6-12.3c-6.1-9.5-13.8-18.2-20.5-27.3c-5.6-7.7-11.4-15.3-20.6-18.9c-0.8,6.5,0.4,10,3.6,15.7
		c3.2,5.6,6.5,11.2,10,16.6c6.7,10.3,14.2,20.1,21.4,30c7.3,10,13.9,20.5,21.1,30.6c3.5,4.9,7.1,9.7,10.7,14.6c2.5,3.5,8.6,9,7,13.6
		c-0.6,1.9-2.3,3.6-3.3,5.3c-1.3,2.5-2.3,5.2-3.4,7.8c-2.2,5.3-4.6,10.3-6.8,15.5c-4.7,10.9-8.8,22.3-12.9,33.4
		c-8.3,22.4-9.5,48.3-1.5,71c4.2,11.9,6.6,24.3,10.9,36.2c4.3,11.8,9.5,23.2,15.5,34.2c5.4,10,14.1,18.8,15.8,30.3
		c1.3,9.2,3.1,18.4,6.8,27c1.5,3.6,3.3,7,5.8,9.9c1.2,1.5,2.7,2.9,4.2,4.1c1.7,1.3,4.4,1.8,5.8,3.1c0.9,0.8,1.2,2.6,1.8,3.6
		c0.9,1.8,2.1,3.2,3.4,4.6c3.9,4.4,8.3,9.2,13,12.7c8.8,6.4,17.6,13.2,27,18.8c9.6,5.7,19.2,12.2,29.2,17.2c2.7,1.4,5.6,2.6,8.5,3.5
		c1.2,0.4,2.8,1,4,1c0.9,0,1.9-0.6,2.8-0.5c2.1,0.3,0.1,0.1,2.4,1.4c1.9,1.1,3.5,1.1,5.7,1.7c12.1,3.1,23.5,8,36,9.5
		c13.7,1.7,27.8,3.8,41.6,3c6.1-0.4,19.6-6.5,22.5,1.7c3.2-5,8.6-2.5,13.4-2.4c-0.2-1.2-1.8-4-1.1-5.1c0.8-1.4,5.9-1.2,7.1-0.7
		c2.6,1.2,4.2,4.7,5.7,6.9c2.6,3.7,5.5,7.4,8.2,11c10.7,14.6,21.4,29.2,32.2,43.7c21.6,29,42.5,58.5,63.5,88
		c4.9,6.8,9.5,13.8,14.2,20.8c4.3,6.2,9.7,11.7,14.3,17.8c5.1,6.8,9.4,14.3,14.5,21c5.2,7,10.4,14,15.6,21.1
		c21.1,28.7,41.8,58,62.5,87.1c23.5,33,47.3,65.9,71.2,98.8c-16.5,7.4-32.8,15.7-49.8,21.8c-8,2.9-16.3,4.5-24.2,7.7
		c-4.1,1.7-7.5,3.4-12,4.3c-4.2,0.8-8.4,1.7-12.6,2.8c-16.8,4.3-34.3,7.7-51.7,8.7c-7,0.5-14.9,0-20.5,4.9
		c-4.9,4.2-5.5,10.4-5.2,16.4c-11.7-0.3-22.8-5.1-34.4-6.1c-11.1-0.9-23.2,0.6-32.8,6.6c-9.7,5.9-19.9,13.6-27.5,22.1
		c-7.7,8.8-12.2,19.9-15.8,30.9c-4,12.2-7.2,24.7-11,37c-3.9,12.7-8,25.2-10.9,38.2c-5.8,26-9,52.9-9.5,79.5
		c-0.1,10,0.8,20.8,9.1,27.7c8.5,7.2,19.3,5,28.2-0.2c4.9-2.9,9.1-6.6,13.4-10.3c4.2-3.5,8.4-6.6,11.8-11
		c7.2-9.3,15.6-17.9,23.1-27.2c14-17.5,30.5-32.1,40.7-52.4c5.2-10.2,12.3-20.5,15.1-31.7c0.9-3.6,0.5-10.3-4.9-9.3
		c-3.4,0.6-5.7,5.6-7.3,8.3c-7.4,12.3-15.9,24.1-25.4,34.9c-4.4,5.1-9.5,9.8-14.3,14.5c-4.8,4.8-8.9,10.1-13.4,15.1
		c-4.5,5-9.5,9.3-13.7,14.5c-4.3,5.3-8.7,10.2-13.5,14.9c-9.7,9.5-19.5,19.3-31.5,25.9c-1.9-8.7,1.5-17,2.6-25.5
		c1.2-8.9,1.8-17.5,3.7-26.3c2.1-9.5,4-19.1,6.3-28.5c2.2-9,5.5-17.5,7.6-26.5c2-8.1,5.9-15.3,7.3-23.3c0.8-4.1,2.8-8.1,4-12.1
		c1.4-4.5,2.6-8.9,4-13.4c5.6-17.2,15.8-30.1,29.9-41.5c7.7-6.1,16.5-10.7,26.2-13c11-2.6,22.4-1.8,33.4-4.1c1.1,7,3.8,14.9,3,22.1
		c-0.3,2.5-1.4,4.1-0.5,6.3c0.4,0.9,1.9,1.6,2.3,2.9c0.7,1.7,0.6,3.9,0.9,5.6c2.5,15.4,6.1,30.6,10.1,45.7
		c1.4,4.9,2.8,11.7,8.4,13.5c2.4,0.7,2.7,0,4.6-1.2c2.7-1.7,4.8-1.4,7.9-0.7c2,0.5,4.1,0.9,6.1,1.3c1,0.2,3,0.1,3.7,1.2
		c0.4,0.5,0.1,1.9,0.5,2.2c1.5,1.5,0.8,0.9,3.3,0c3.4-1,5.6-0.2,8.9,1c28.7,9.5,59.2,4.7,88.6,1.9c15.5-1.5,31-2,46.3-4.9
		c15.2-2.9,30.5-6.1,45.4-10.8c6.5-2.1,12.9-4.6,19.4-6.9c2.2-0.8,10.2-6.2,8.8,0.1c-0.7,2.7-3.6,5-5.2,7.1
		c-1.7,2.4-2.6,5.4-4.7,7.6c-2.7,2.9-5.4,5.2-7.8,8.5c-8.4,11.3-15.7,23.1-24.8,34c-3.7,4.5-8.2,9.1-9.9,14.8
		c-1.8,5.6-0.5,12.1,1.2,17.4c2,6,5.8,10.8,9.3,16c4.5,6.4,8.3,13.4,12.3,20c3.9,6.3,7.8,12.6,12,18.6c2.8,3.9,5.6,9.4,9.7,12.1
		c1.9,1.1,4.3,2,6.3,0.6c1.9-1.4,1.5-4,2.8-5.7c1.8-2.5,3.5-1.4,6.4-1.4c4,0,5-2.2,8-4.1c2.2-1.3,4.7-0.8,7-2.4
		c1.9-1.4,3-3.9,4.8-5.5c4.8-4.3,13.5-5.8,19.5-8.2c29.4-11.8,57.1-27.3,85.7-40.9c14.3-6.8,28.8-13.3,42.8-20.3
		c6.5-3.3,13.1-6.9,19.5-10.5c3.5-2,7.1-3.8,10.3-6c3-2.1,5.5-4.5,9-5.8c6.6-2.4,12.1-6.5,18.5-9.5c7-3.2,13-7.9,19.8-11.6
		c6.8-3.7,14-6.8,20.9-10.4c7-3.7,13.6-8.1,20.7-11.9c13.6-7.2,28.1-12.6,41-21.1c2.7-1.8,5.1-3.8,8-5.2c3.6-1.6,7.3-2.3,10.8-4.1
		c7.1-3.7,13.6-8.1,20.8-11.7c13.5-6.7,27.3-13.2,40.8-19.9c12.8-6.5,26.4-11,39.5-16.9c14.3-6.4,28.5-12.8,42.6-19.4
		c6.5-3,12.8-6.3,19.4-8.7c7-2.6,12.8-7.1,19.8-9.6c27.9-10.1,55.4-20.8,82.2-33.4c14-6.7,28.2-13.1,42.3-19.5
		c6.4-2.9,13.7-5.3,19.5-9.2c6.2-4.2,12.7-6.2,19.2-9.7c13.6-7.4,28.1-12.4,42-19.2c13.6-6.6,27.9-12.2,41.2-19.2
		c2.5-1.3,6.3-4.9,9.2-4.6c2.3,0.2,3.2,2.5,5.1,3.3c5.3,2.2,8.8-4.9,11.1-8.5c3.3-5,7.2-7.5,11.5-11.4c5.2-4.9,9.5-12.4,13.1-18.4
		c14.6-25.5,38.2-43.7,54.8-67.9c8.5-12.4,15.8-25.3,22.8-38.7c3.3-6.2,7-12.1,10.8-17.9c2.1-3.2,4.2-6.4,6.3-9.6
		c1.3-2,3.1-6.9,5.5-8c2-0.9,4.9,0.5,7.3-0.5c2.1-1,3.4-2.9,4.2-4.9C2797.2,879.8,2796.8,872.7,2792.7,868.8L2792.7,868.8z"/>
	<path id="Fill-18" class="st1" d="M2512.8,619.5C2512.6,619.5,2512.9,619.5,2512.8,619.5C2512.8,619.4,2512.7,619.5,2512.8,619.5"
		/>
	<path id="Fill-20" class="st1" d="M2240,991.5C2239.9,991.5,2239.9,991.6,2240,991.5C2239.9,991.7,2240,991.6,2240,991.5"/>
	<path id="Fill-22" class="st1" d="M1995.8,399.3c1.6-0.5,3.1-1.1,4.8-1.6C1997.7,396.3,1997.4,397.3,1995.8,399.3"/>
	<path id="Fill-24" class="st1" d="M1568.8,851.9c-0.7,0.2-1.3,0.6-2,0.8C1568.2,854.2,1568.1,853.4,1568.8,851.9"/>
	<path id="Fill-26" class="st1" d="M1859.9,680.1c-1.5,2-2.7,4.1-3.6,6.4c2.2-1,4.4-1.9,6.7-2.8c-6.6,21.2-9.1,43.4-11.2,65.6
		c-12-7.3-23.6-15-35.1-22.9c-3.7-2.6-10-5-12.7-8.8c-1.3-1.7-1.2-2.9-3-4.1c-2.2-1.4-6.2-1.3-8.7-1.8
		C1813.4,698.6,1837.1,690.3,1859.9,680.1 M1780.4,717.9c2.5-1.3,5.5-4.5,8.5-4.8c3.4-0.2,4.6,3.3,6.9,5.4
		c7.8,6.7,17.3,12.1,25.9,17.7c8.7,5.6,17.1,11.7,26.1,16.8c2.3,1.3,6.6,4.9,8.8,2.4c2.4-2.7,2.2-11,2.7-14.5
		c1.5-10.3,2.3-20.7,4.4-31c2.1-10.4,4.8-20.7,7.4-30.9c0.8-2.7,2.4-6.8-0.1-9.1c-3-2.7-7.5,0.7-10.3,2.1c-9.5,5-19.5,8.9-29.3,13
		c-10.8,4.4-21.1,10-31.2,15.7c-4.8,2.8-9.8,5.6-14.5,8.4c-4,2.4-8.8,4.8-10.7,9.3C1777,718.9,1778.5,719,1780.4,717.9"/>
	<path id="Fill-28" class="st1" d="M1911.3,646.8c13.3-7.7,27.1-14.7,41.7-19.4c7.4-2.4,15-3.9,22.5-5.5c5.4-1.1,13.1-3.2,7.1-9.5
		c-4.4-4.6-12.1-6.6-17.6-9.7c-5.7-3.2-10.1-7.9-14.4-12.8c-5-5.6-10.1-11.1-15-16.8c-3.7-4.2-7.2-10.7-13-12.2
		c6.9,12.6,17.3,22.7,26.9,33.2c4.4,4.7,8.9,10,14.6,13.2c4.5,2.5,11.3,3.3,14.1,8.1c-14,3-28.1,6.3-41.6,11.2
		c-11.4,4.2-22,14.1-34.1,15.6c3.7-17.7,8.6-35,13-52.4c1.6-6.4,3.3-13.2,3.4-19.7c0.1-6.3-2.7-3-3.9,1.1
		c-4,15.2-8.2,30.2-12.5,45.3c-1.2,4.1-2.2,8.3-3.2,12.5c-0.9,4-2.5,8.6-1.7,12.7C1899.1,648.6,1905.9,649.9,1911.3,646.8"/>
	<path id="Fill-30" class="st1" d="M1726.3,852c12.8-6.5,24.9-14.7,38.2-20.5c12.1-5.2,26.8-7,37.6-14.8c-5.6-6.7-14.2-6.6-21.5-11
		c-7.9-4.8-15.1-11.3-22.3-17.1c-7.4-6.1-13.8-13-20.9-19.5c-3.9-3.5-11.6-10.9-17.4-9.4c-3,0.8-4.3,4.6-1.5,6.7
		c2.1,1.5,5.8,0.4,8.2,1c7.4,2.1,12.9,10.6,18.3,15.5c7.2,6.5,14.8,12.5,22.4,18.4c8.4,6.6,16.9,10.8,26.7,14.9
		c-26,5.8-49.6,18.5-72.5,31.9c1.6-13.6,0.7-27.3-0.1-41c-0.5-6.7-1-13.5-1.8-20.3c-0.7-5.9-0.9-12.8-3.6-18.3
		c-2.4,7.4-0.7,15.6,0.1,23c0.9,9.1,1.8,18.2,2.1,27.3c0.2,8.6-0.7,17.3-0.6,25.9C1718,850.3,1720.2,855.1,1726.3,852"/>
	<path id="Fill-32" class="st1" d="M2188.9,800.3c4.7,11.1,6.8,22.9,11.6,33.9c2.4,5.3,4.8,10.6,7.4,15.9c1.8,3.8,5,9.3,4.3,13.7
		c-1.2,7.7-17.2-4-20.4-5.6c-11.2-5.4-22.2-11-33.2-16.7C2168.6,827.9,2178.7,814.1,2188.9,800.3 M2154,845.6
		c15,8.4,31.4,14.1,46,23c4.5,2.7,13.5,10,16.9,2.7c3.3-6.8-2.1-16.8-5-22.9c-3.6-8-6.9-16.2-9.6-24.5c-1.4-4.3-2.7-8.6-3.9-12.9
		s-3.3-8.4-4.1-12.7c-0.3-1.3-0.5-2.9-0.1-4.2c0.5-1.2,2-1.8,2.4-2.9c1.1-3.3-2-3.1-4.3-2.5c-3.2,0.7-3.9,1.3-5.3,4.2
		c-1.6,3.3-3.9,5.9-6.2,8.7c-6.4,7.5-12.9,15-18.8,22.8C2158.9,828.6,2146.3,841.2,2154,845.6"/>
	<path id="Fill-34" class="st1" d="M2101.4,669.8c3.6,15.9,9.8,31.2,18.8,44.9c-17.6,0.2-34.4-5.3-50.9-10.9
		C2080.1,692.3,2090.8,681.1,2101.4,669.8 M2069.3,711c8.6,2.8,17.2,6.2,25.9,8.1c7.6,1.7,15.5,1.1,23.1,2.1c4.3,0.6,13.6,3,9.8-4.6
		c-1.4-2.8-3.8-5.1-5.7-7.7c-2.6-3.7-4.9-7.8-7-12c-3.8-8.4-6.4-17.3-8.5-26.2c-1.7-6.8,2.7-12.1,8.9-15.3c2-1,6.5-3.9,1.4-5.3
		c-2.7-0.8-6.1,2.2-8.1,3.8c-6.7,5.2-12.2,11.7-18.2,17.7c-7.5,7.5-15.1,14.9-22.6,22.4c-2.4,2.3-5.6,5.1-5.8,8.7
		C2062.4,706.8,2065.7,709.8,2069.3,711"/>
	<path id="Fill-36" class="st1" d="M1798.8,893.9c-13.1-1.6-26.3-1.1-39.5-0.6c6.3-13.4,14.2-26.2,23-38.2
		c11.8,13.3,23.5,26.9,32.2,42.5C1809.2,896.3,1804.2,894.5,1798.8,893.9 M1813.8,889.2c-4.6-6.7-9-13.5-13.9-19.9
		c-2.1-2.7-4.3-5.4-6.8-7.9c-1.4-1.4-3.8-3.2-4.6-5.2c-0.8-2.2,0.3-2.7-0.8-4.8c-1.3-2.4-3-4.1-5.8-3c-5.2,2-10.1,10.6-13.1,14.9
		c-4.5,6.6-8.9,13.5-12.7,20.6c-3.7,6.9-3.1,13.2,5.3,15.5c6.8,1.9,14.8,0.2,21.7-0.2c8-0.6,16-0.7,23.7,1.6
		c3.3,0.9,11.6,6.3,12.4,0.1C1819.4,897.1,1815.8,892.2,1813.8,889.2"/>
	<path id="Fill-38" class="st1" d="M1870.4,774.9c-4.3,17.7-8,35.4-11,53.5c-1.3,8.2-2.9,16.4-3.6,24.5c-0.2,2.3,0,14.8,4.5,9.1
		c1.4-1.8,3-5.8,3.4-8c0.7-3.5-1.2-6.4-0.7-10c1.2-8.4,2.7-16.9,4-25.4c1.3-8.6,2.7-17,4.1-25.6c1.2-7.1,5.2-15.8,1.8-22.9
		C1871.9,771.8,1870.8,773.3,1870.4,774.9"/>
	<path id="Fill-40" class="st1" d="M2270.4,1184.4c-0.2-0.1-0.3-0.1-0.6-0.2C2270,1184.3,2270.2,1184.3,2270.4,1184.4
		 M2485.5,1033.3c-40.4,10.7-78.4,29.9-115.9,47.7c-38,18.1-75.3,37.8-111.5,59.2c-18,10.6-35.7,21.5-53.7,32.3
		c-15.2,9-32.1,18.4-44.3,31.4c-3.5,3.7-8.7,11.6-1.7,14.6c4.4,1.9,12.1,1.1,16.7,0.3c4.4-0.7,8.6-2.8,13-3.8c5.4-1,10.9-2,16.2-3.5
		c9.9-2.8,19.7-6.9,29.1-11.2c10.3-4.5,20-9.8,30.7-13.2c4-1.3,6.8-3.2,10.4-5.2c3.9-2.3,8.9-3,12.6-5.4c1.6-1.1,2.4-2.7,4-3.6
		c2-1.1,4.5-1,6.6-1.5c5.1-1.4,10.1-4.3,15-6.4c5.2-2.3,10.5-4.6,15.7-6.9c4.1-1.8,8.3-3.3,11-6.9c-4.8-2.5-7.2-1.1-11.9,1.3
		c-5.2,2.8-10.8,5.1-16.2,7.6c-11,5.1-21.7,10.4-32.8,15.4c-22.4,9.9-45.1,18.6-68.6,25.8c-5.8,1.7-11.6,3.5-17.2,5.5
		c-5.5,2-9.6,3.7-15.6,3.7c-4.8,0-9,0.7-4.8-4.6c1.3-1.6,3-2.8,4.4-4.2c1.8-1.8,1.6-3,2.5-5.2c1.6-3.9,6.3-4,10-4.9
		c4.3-1.1,7.3-4.5,11.3-6.7c4.4-2.4,8.2-3.5,11.8-6.9c1.6-1.5,1.6-1.3,3.6-1.6c2.4-0.5,4.2-1.5,6.2-3.1c4-3,6.7-5.7,11.6-6.6
		c2.8-0.5,3.6-1.6,5.8-3.4c2.4-2,4.9-3.1,7.8-4.1c6.1-2.1,11.7-4.6,17-8.3c2.3-1.6,4.3-3.8,6.6-5.5c0.3-0.3,4.5-1.8,4.5-1.9
		c0.3-0.5-0.8-2.5,0.8-2.9c1.5-0.4,2.5,1.1,4.1,0.5c0.7-0.2,0.4-1.2,0.9-1.6c1.1-0.7,1.6-1.1,2.9-1.3c5.1-1.2,7.5-2.6,11.7-5.9
		c1.8-1.4,3.7-2.4,5.8-3.5c2.2-1.2,2.7-2.3,4.5-3.8c3-2.5,4.3,1.2,7.7-0.3c1.7-0.8,2.7-2.4,4-3.6c1.8-1.5,3.4-1.9,5.7-2.7
		c4.3-1.4,7.7-4.3,11.8-6c1.7-0.7,3.1-1.8,4.8-2.5c2.2-1,4.7-1,6.9-2.3c3.5-2.2,4.6-5.2,8.7-6c5-1.1,8.9-3.6,13.3-6.4
		c4.7-2.9,9.1-6.3,14.3-8.3c4.8-1.7,9.9-2.7,14.6-4.9s9-5.2,13.6-7.8c4.9-2.9,9.9-4.7,15.1-6.8c4.4-1.8,9.4-3,13.6-5.1
		c1.9-0.9,3.3-2.4,5.1-3.3c2.1-1.1,4.2-1.3,6.3-2.8c1.8-1.3,3.2-3.3,5.4-4c2.7-0.9,5.2-0.8,7.9-2.1c2.4-1.1,4.4-1.3,6.9-2.1
		c2-0.5,3-2,5.1-3.2c4.5-2.7,10.2-3.1,15-5c4.8-1.9,10-4.2,13.6-8C2499.3,1028.5,2491.6,1031.7,2485.5,1033.3"/>
	<path id="Fill-42" class="st1" d="M2401.4,1104.9c-16.1,2.3-31.1,8.4-46.5,13.5c-12.5,4.2-26.3,7.3-36.7,16.1
		c14.4-4.1,28.9-7.6,42.9-12.7c12.7-4.6,25.4-11.6,39.4-10.9c-5,6-12.3,9.2-18.8,13c-8.2,4.8-16.3,9.8-24.5,14.6
		c4.2,3.5,11.2-2.9,15-4.9c6-3.2,11.7-6.6,17.3-10.3c4.8-3.3,10.3-6,14.7-9.9C2409.3,1109.1,2408.7,1103.9,2401.4,1104.9"/>
	<path id="Fill-44" class="st1" d="M2078.6,999.7c-3-4.1-9.6-5.6-13.4-8.8c-5.6-4.6-11.2-9.3-16.9-13.8c-5.4-4.2-10.4-8.6-14.9-13.8
		c-4.9-5.6-8.6-12.1-13.7-17.4c-0.7,2.5-1.5,5.5-0.5,8.1c0.9,2.5,3.3,3.3,5.1,5.1c4.6,4.2,7.7,10,12.3,14.4
		c9.9,9.5,21.1,17.3,31.7,25.8c-19.8,7.1-39.5,14-59.3,21.1c1.9-14.3,4.6-28.6,6.2-42.8c0.8-6.8,1.1-13.7,1.4-20.5
		c0.3-5.4,1-12.1-3.9-15.8c-0.6,8.6-0.5,17.3-1.6,25.9c-1.2,8.4-3,16.9-4.4,25.3c-1.4,8.2-9.2,36.2,7.2,34.3
		c6.9-0.8,14-4.4,20.3-6.8c8-3,16.1-6.3,24.2-9.1C2061.4,1009.4,2083.2,1005.9,2078.6,999.7"/>
	<path id="Fill-46" class="st1" d="M1956.5,1077.1c-6.7-5-13.5-9.8-20.3-14.7c-2.9,4.6-1.3,5.7,3,8.6c4,2.6,8.2,5,12.2,7.7
		s3.8,4.5,1,8.2c-3,4-6.5,7.7-9.7,11.7c-6.6,8.1-13,16.3-19.7,24.2c-5.5,6.5-11.4,16.1-19,20.2c-4.3-10.3-8.7-20.7-13-31.1
		c-3.7,1.7-4.3,2.9-2.7,6.8c1.9,4.9,4.6,9.7,6.7,14.5c1.8,4.1,4.6,8.6,4.8,13.2c0.1,1.9-0.9,4.1-0.5,6c0.5,2.2,2.2,3.2,3.5,5
		c13.6-13.6,25.9-28.3,37.8-43.2c5.7-7,11.1-14.4,17-21.3c1.8-2.1,4.4-4.3,4.5-7.3C1962.1,1082.5,1958.9,1078.9,1956.5,1077.1"/>
	<path id="Fill-48" class="st1" d="M1968.2,898.1c-18.4,7.7-37.3,14.2-56.1,20.7c5.6,6.2,12.1,2.7,18.6,0.4c9.6-3.5,19.2-6.6,29-9.5
		c4.4,17.3,9.8,34.4,13.4,52c0.9,4.3,1.9,10.2-3,12.5c-6.8,3.3-17.5,0.7-24.7,0.1c2,2,0.3,4.7,3.1,6.3c1.7,1,4.5,0.6,6.5,0.8
		c6.1,0.7,12.5,2,18.4-0.6c8.7-3.9,5.2-14.2,3.5-21.3c-3.3-13.6-7.7-27.3-9.9-41.2c-0.9-5.5,0.9-8.1,4.3-12.2
		c1.3-1.5,2.8-3.1,2.5-5.2C1973.3,898.3,1970.6,897.2,1968.2,898.1"/>
	<path id="Fill-50" class="st1" d="M1219.8,567.5c-0.4,0.3-0.3,0.3-0.2,0.9C1219.8,568.2,1219.9,567.9,1219.8,567.5"/>
	<path id="Fill-52" class="st1" d="M1740.6,1189.3c-4-1.4-4.6,2.9-5.5,5.8c-1.8,5.5-3.7,11-5.6,16.5c-2.9-3.8-4.3-8.4-5.8-12.9
		c-0.8-2.2-2-10-5.6-7c-3,2.6,0.8,7.8,1.8,10.5c1.6,4.4,3.1,8.8,5.5,12.8c5.1,8.7,9.6,1.7,11.9-4.7c1.8-4.9,3.9-9.7,5.6-14.7
		C1744.3,1192.3,1744.3,1190.6,1740.6,1189.3"/>
	<path id="Fill-54" class="st1" d="M1805.5,1255.1c-4.7,8.4-9.2,16.8-13.8,25.2c8.7-2.3,10.4-7.5,14.5-14.6c1.3-2.3,3.3-6.1,5.9-7.2
		c2.1-0.8,1.3-0.9,3.4,1.2c1.4,1.4,3,2.8,4.4,4.2c1.4,1.2,6.2,5.3,7.2,0.8c0.5-2.1-4.8-5.5-6.3-6.8
		C1816.7,1254,1809.9,1247.2,1805.5,1255.1"/>
	<path id="Fill-56" class="st1" d="M1802.9,299.2c4.7,9.8,12.8,0,15.4-5.4c3.8-8,5-17.2,4.9-25.9c0-3.6-0.5-8.1-2.8-11.1
		c-2.6-3.4-5.8-1.9-7.6,1.5c-2.1,4.1-2,9.7-2.9,14.2c-1,5-2.1,10-3.9,14.8c-2.7-1.9-6.6-3.7-7,1
		C1798.8,291.9,1801.4,296.1,1802.9,299.2"/>
	<path id="Fill-58" class="st1" d="M1782.2,281.1c4.6-1.4,11.2-6.1,11.8-11.2c1.3-10-11.8-2.7-15.9-1.2c-0.5-3.4-0.2-14.6-5.2-15.3
		c-3.8-0.5-4,7.1-4,9.5C1768.9,269.8,1772.6,284,1782.2,281.1"/>
	<path id="Fill-60" class="st1" d="M1767.5,304.7c0.6,3.2,9.7,17.8,13.6,10.4c1.8-3.4-1.5-4.9-3.6-6.7c-3.4-2.9-5.5-6.9-8.7-10
		C1768.4,300.3,1767.2,302.9,1767.5,304.7"/>
	<path id="Fill-62" class="st1" d="M2015.1,407.4c-1.3,2.3-2.6,4.3-0.7,6.7c0.8,1,3.8,3.4,5.3,2.5c1.5-0.7,0.9-3,0.2-4.1
		c-1.2-2.3-3.9-2.3-3.1-5.7C2016.3,407.2,2015.7,407.3,2015.1,407.4"/>
	<path id="Fill-64" class="st1" d="M1720.3,455c0.2,0.4,0.3,0.6,0.7,0.9C1722.5,453.6,1720.2,454.1,1720.3,455"/>
	<path id="Fill-66" class="st1" d="M1382.3,698.7c-0.3-0.3-0.5-0.5-0.8-0.9c-0.6,0.7-0.4,1.3,0.4,1.8
		C1382.1,699.3,1382.2,699,1382.3,698.7"/>
</g>
</svg>
