<svg xmlns="http://www.w3.org/2000/svg" viewBox="0 0 386.63 487"><defs><style>.cls-1{fill:#fff;}</style></defs><title>Recurso 3</title><g id="Capa_2" data-name="Capa 2"><g id="Capa_1-2" data-name="Capa 1"><path class="cls-1" d="M193.92,184.06a19.29,19.29,0,0,0,3.14-7.15L239.68,52.72A74.48,74.48,0,0,1,280.57,6.61,75.37,75.37,0,0,1,385.93,64.14a80.13,80.13,0,0,1-4.41,38.71c-11.16,33.58-23.08,67.06-34.6,100.59q-27.3,79.24-54.13,158.33c-8.32,24.35-17.2,48.55-25.36,73a76.41,76.41,0,0,1-85.59,51.09c-31.35-5.38-51.44-23.29-61.89-52.66-7.81-21.81-15.22-43.78-22.67-65.95q-37-106.74-74.22-213.78c-6.19-17.9-12.89-35.56-18.72-53.41A72.6,72.6,0,0,1,9.41,39.58,72.71,72.71,0,0,1,68.51.73a76.08,76.08,0,0,1,78.63,51.94c14,42.11,28.92,83.81,43.53,125.66C191.38,180.11,191.38,182.54,193.92,184.06Zm2.84,268.87a15.65,15.65,0,0,0,2.08-1.47C216.39,434.16,233,416,249,397.33a154.16,154.16,0,0,0,18.67-24.55,73.45,73.45,0,0,0,7.71-53.27c-4.67-21.76-15.83-38.6-39-44.28-13.5-3.3-32.87-.61-40.13,15.22a2.53,2.53,0,0,1-2.84,1.77c-1.32-1.93-2.79-4-4.16-6.14a22.47,22.47,0,0,0-12.83-9.59,44.34,44.34,0,0,0-45.66,9.8,62,62,0,0,0-18.87,40.12,72.38,72.38,0,0,0,16.48,57.48c7.51,9,14.61,18.42,22.63,26.89a556.64,556.64,0,0,0,40.58,42,3,3,0,0,0,4.09,1.11l.07,0a3.16,3.16,0,0,0,1-1.07Zm-114-348.11c.51.71.76,1.42,1.16,1.53,19.38,4,32.22-.51,41.4-15.78,15-25-.25-52.25-17.91-62.3A58.13,58.13,0,0,0,67.8,21.52,57.35,57.35,0,0,0,20,77.33a76.54,76.54,0,0,0,24.46,54.89A35.77,35.77,0,0,0,79.17,142c6.9-1.68,14-3,21-4.36,19.33-3.76,38.5-5.08,57.07,3.5a12.43,12.43,0,0,0,2.33-1.07L142.07,96.55c-2.43,3.25-4.06,5.48-5.73,7.67-11.72,15.21-26.33,23.89-46.42,22.37-22.37-1.68-45.66-20.29-50.73-42.36-3-13.55-1-26.33,10.15-36A45,45,0,0,1,81.2,37.45c27.69,1.27,38.3,30.19,27.74,50.28A34.13,34.13,0,0,1,82.77,104.82ZM228,140.34a94.71,94.71,0,0,1,51.49-4.06c9.79,1.77,19.68,3.4,29.37,5.58A37,37,0,0,0,344,131.15,77.77,77.77,0,0,0,366.2,90.21a57.31,57.31,0,0,0-3.15-35.51,59.54,59.54,0,0,0-68.38-32.36,48.61,48.61,0,0,0-37.85,51.23,36.53,36.53,0,0,0,17.71,29.73A32.42,32.42,0,0,0,305,104.57a24,24,0,0,1-5.08-.81A32.17,32.17,0,0,1,274,70.94c0-12.38,8.83-30.09,26.43-32.47a46,46,0,0,1,40,12.94,29.93,29.93,0,0,1,9,21.61,49.71,49.71,0,0,1-19.59,39.77c-23,19-57.17,20.54-78-7.36a20.65,20.65,0,0,0-7.05-8Zm-78,72A17.44,17.44,0,0,0,147.7,200c-12.53-25.36-50.42-27.44-67.47-3.55a62.68,62.68,0,0,0-9.69,24.56,36.8,36.8,0,0,0,11.72,36.67,59,59,0,0,0,90.25-14.3,59.89,59.89,0,0,0,5.94-48A51.42,51.42,0,0,0,137,155.55a81.16,81.16,0,0,0-46.37,3.81,50.75,50.75,0,0,1-39.21-.91c-1.63-.71-3.15-2.54-5.79-1A363.57,363.57,0,0,0,59,191.88,111.29,111.29,0,0,1,77.29,172.7c29.88-22.57,82.13-15.22,92.58,30.44,3.2,14.1,3.55,28.61-5.68,41.14-10.6,14.61-25.62,20.29-43.32,19.84a33.53,33.53,0,0,1-31.2-19.18,34.64,34.64,0,0,1,4-38.66c16-20.9,46.57-17.6,54.63,4.57.36.76.66,1.57,1.73,1.57Zm87.16,1.62a9.37,9.37,0,0,0,3.14-5.07,29,29,0,0,1,35.06-15.57,37.12,37.12,0,0,1,26.43,31.55,35.52,35.52,0,0,1-21.51,36.58,47.52,47.52,0,0,1-31.15.35c-17.15-5.53-29.37-15.88-32.47-34.95a58,58,0,0,1,.92-23.79c5.07-20.7,17.35-35.51,38.65-40.59,28.21-6.79,51.14,2.54,69,25,1.16,1.42,1.57,3.86,4.77,3.15,1.87-5.38,4-11,5.83-16.74s5.78-11,4.77-18.06c-2.69.76-5.07,1.32-7.05,2a64,64,0,0,1-38.76.81,148.57,148.57,0,0,0-27-4.42,53.93,53.93,0,0,0-33,7.06c-23.9,13.74-30.85,36.57-26.74,62.6a58.9,58.9,0,0,0,79.75,44.54c21-8,31.25-22.63,29.42-44.75-1.47-17.9-12.27-39.41-37.08-43.42-20.85-3.4-44.14,12.07-42.87,33.78Zm23.44-5.07a20.7,20.7,0,0,0-.51,41.4A21,21,0,0,0,280.92,230a20.29,20.29,0,0,0-19.67-20.9h-.17Zm-155,19.79a20.28,20.28,0,0,0,18.93,21.56c.45,0,.9.05,1.36.05a21.06,21.06,0,0,0,21-20.29,20.75,20.75,0,0,0-20.29-21,19.79,19.79,0,0,0-21.06,18.42c0,.46,0,.91,0,1.37Zm48.7,216.26A23.42,23.42,0,0,0,165,466.07a45.69,45.69,0,0,0,25.37,8.78,46.47,46.47,0,0,0,31.45-8.93,22.79,22.79,0,0,0,10.6-18.72c-25.82,18.42-59.51,14.61-78.17-2.48ZM76.12,55.72a16.54,16.54,0,0,0-18,12.88,28.51,28.51,0,0,0,4.82,22c.81,1.37,2.49,2.23,3.6,1.06,5.38-5.83,13.25-6.34,19.69-9.69a11.35,11.35,0,0,0,6.36-14.75A10.78,10.78,0,0,0,92,65.86,15.22,15.22,0,0,0,76.12,55.72Zm235.54,0a16.58,16.58,0,0,0-17,13.74c-1,7.06,3.19,12.38,12.27,14.82a25.63,25.63,0,0,1,12.74,6.14c2.28,2.38,4.06,1.21,5.37-1.17a34.59,34.59,0,0,0,4.77-12.84,17.5,17.5,0,0,0-18-20.69ZM102.15,322.05A257.34,257.34,0,0,0,119,291.61a182.68,182.68,0,0,0-29.27-6.95C93.88,297.29,97.73,308.71,102.15,322.05Zm182.32-2.23,12.73-34.55a134.84,134.84,0,0,0-28.3,5.38Zm-91.16-78.94a46.8,46.8,0,0,0-7.76,17.76,62.52,62.52,0,0,0,16.28-.51A71.62,71.62,0,0,0,193.31,240.88Z"/><path class="cls-1" d="M196.76,452.78a3,3,0,0,1-4.21.92h0a4,4,0,0,1-.91-.92h5.12Z"/><path class="cls-1" d="M196.91,452.78h-5.38a12.09,12.09,0,0,0-2.74-8,493.41,493.41,0,0,0-43.37-59.36,86.06,86.06,0,0,1-19.68-36.67,50.38,50.38,0,0,1,12.88-49.57c10.15-10.7,19.69-12.53,33.28-5.07a26.29,26.29,0,0,1,12.33,31A26.85,26.85,0,0,1,178,337.22a18,18,0,0,1-20.29,4.72,20.69,20.69,0,0,1-9.13-23.54c-13.85,6.85-11,23.94-1.83,30.84a26.08,26.08,0,0,0,33.94-1.47,58,58,0,0,0,13.24-18.52,79.39,79.39,0,0,0,13.19,18.11,25.75,25.75,0,0,0,31.6,3.81c13.5-7.61,14.41-23,1.32-33.43a27.73,27.73,0,0,1,0,14.3,17.2,17.2,0,0,1-28.71,5.79,30.45,30.45,0,0,1-5.84-31.2,28.72,28.72,0,0,1,25.93-16.74A27.18,27.18,0,0,1,250.74,300a53.23,53.23,0,0,1,9,58.44,117.2,117.2,0,0,1-21.46,33A429.19,429.19,0,0,0,199.75,445,11.92,11.92,0,0,0,196.91,452.78Z"/></g></g></svg>